M48
INCH,TZ
T1C0.0295
T2C0.0315
T3C0.0394
%
G90
G05
T1
X18058Y-29800
X18058Y-30300
X18058Y-30800
X26742Y-29250
X26742Y-29750
X26742Y-30250
X26750Y-26650
X26750Y-27150
X26750Y-27650
T2
X13124Y-25350
X13911Y-25350
X16000Y-25024
X16000Y-25811
X18100Y-24950
X18100Y-27950
X19950Y-24950
X19950Y-26650
X20050Y-27850
X20050Y-31850
X21900Y-27850
X21900Y-31850
X23750Y-27850
X23750Y-31850
X23950Y-24950
X23950Y-26650
X25250Y-24950
X25300Y-31750
X29250Y-24950
X29250Y-26300
X29250Y-30300
X29300Y-31750
X30429Y-31736
X34429Y-31736
T3
X16222Y-28946
X16222Y-29946
X16222Y-30946
X16222Y-31946
X31203Y-25047
X31203Y-26047
X31203Y-27047
X31203Y-28047
T0
M30
