G04 #@! TF.GenerationSoftware,KiCad,Pcbnew,6.0.0-d3dd2cf0fa~116~ubuntu20.04.1*
G04 #@! TF.CreationDate,2022-01-14T17:03:30+00:00*
G04 #@! TF.ProjectId,videopac_composite,76696465-6f70-4616-935f-636f6d706f73,rev?*
G04 #@! TF.SameCoordinates,Original*
G04 #@! TF.FileFunction,Soldermask,Bot*
G04 #@! TF.FilePolarity,Negative*
%FSLAX46Y46*%
G04 Gerber Fmt 4.6, Leading zero omitted, Abs format (unit mm)*
G04 Created by KiCad (PCBNEW 6.0.0-d3dd2cf0fa~116~ubuntu20.04.1) date 2022-01-14 17:03:30*
%MOMM*%
%LPD*%
G01*
G04 APERTURE LIST*
%ADD10O,1.700000X1.700000*%
%ADD11R,1.700000X1.700000*%
%ADD12R,1.600000X1.600000*%
%ADD13C,1.600000*%
%ADD14O,1.600000X1.600000*%
%ADD15R,1.500000X1.050000*%
%ADD16O,1.500000X1.050000*%
G04 APERTURE END LIST*
D10*
X79255000Y-71240000D03*
X79255000Y-68700000D03*
X79255000Y-66160000D03*
D11*
X79255000Y-63620000D03*
D12*
X33334888Y-64389000D03*
D13*
X35334888Y-64389000D03*
X64262000Y-80645000D03*
D14*
X74422000Y-80645000D03*
D15*
X67945000Y-70231000D03*
D16*
X67945000Y-68961000D03*
X67945000Y-67691000D03*
D13*
X60325000Y-70739000D03*
D14*
X60325000Y-80899000D03*
D13*
X74295000Y-66802000D03*
D14*
X74295000Y-76962000D03*
D15*
X45868000Y-75692000D03*
D16*
X45868000Y-76962000D03*
X45868000Y-78232000D03*
D13*
X50927000Y-80899000D03*
D14*
X50927000Y-70739000D03*
D12*
X40640000Y-63560888D03*
D13*
X40640000Y-65560888D03*
X50673000Y-63373000D03*
D14*
X60833000Y-63373000D03*
D13*
X55626000Y-80899000D03*
D14*
X55626000Y-70739000D03*
D13*
X74295000Y-63373000D03*
D14*
X64135000Y-63373000D03*
D15*
X67924000Y-76835000D03*
D16*
X67924000Y-75565000D03*
X67924000Y-74295000D03*
D12*
X45974000Y-70993000D03*
D14*
X45974000Y-63373000D03*
D13*
X77290000Y-80610000D03*
D14*
X87450000Y-80610000D03*
D13*
X60833000Y-67691000D03*
D14*
X50673000Y-67691000D03*
D11*
X41205000Y-81143000D03*
D10*
X41205000Y-78603000D03*
X41205000Y-76063000D03*
X41205000Y-73523000D03*
M02*
