G04 #@! TF.GenerationSoftware,KiCad,Pcbnew,6.0.0-d3dd2cf0fa~116~ubuntu20.04.1*
G04 #@! TF.CreationDate,2022-01-14T17:03:29+00:00*
G04 #@! TF.ProjectId,videopac_composite,76696465-6f70-4616-935f-636f6d706f73,rev?*
G04 #@! TF.SameCoordinates,Original*
G04 #@! TF.FileFunction,Legend,Top*
G04 #@! TF.FilePolarity,Positive*
%FSLAX46Y46*%
G04 Gerber Fmt 4.6, Leading zero omitted, Abs format (unit mm)*
G04 Created by KiCad (PCBNEW 6.0.0-d3dd2cf0fa~116~ubuntu20.04.1) date 2022-01-14 17:03:29*
%MOMM*%
%LPD*%
G01*
G04 APERTURE LIST*
%ADD10C,0.150000*%
%ADD11C,0.120000*%
G04 APERTURE END LIST*
D10*
X84787142Y-64510000D02*
X84691904Y-64462380D01*
X84549047Y-64462380D01*
X84406190Y-64510000D01*
X84310952Y-64605238D01*
X84263333Y-64700476D01*
X84215714Y-64890952D01*
X84215714Y-65033809D01*
X84263333Y-65224285D01*
X84310952Y-65319523D01*
X84406190Y-65414761D01*
X84549047Y-65462380D01*
X84644285Y-65462380D01*
X84787142Y-65414761D01*
X84834761Y-65367142D01*
X84834761Y-65033809D01*
X84644285Y-65033809D01*
X85263333Y-64795714D02*
X85263333Y-65462380D01*
X85263333Y-64890952D02*
X85310952Y-64843333D01*
X85406190Y-64795714D01*
X85549047Y-64795714D01*
X85644285Y-64843333D01*
X85691904Y-64938571D01*
X85691904Y-65462380D01*
X86596666Y-65462380D02*
X86596666Y-64462380D01*
X86596666Y-65414761D02*
X86501428Y-65462380D01*
X86310952Y-65462380D01*
X86215714Y-65414761D01*
X86168095Y-65367142D01*
X86120476Y-65271904D01*
X86120476Y-64986190D01*
X86168095Y-64890952D01*
X86215714Y-64843333D01*
X86310952Y-64795714D01*
X86501428Y-64795714D01*
X86596666Y-64843333D01*
X84837142Y-69470000D02*
X84741904Y-69422380D01*
X84599047Y-69422380D01*
X84456190Y-69470000D01*
X84360952Y-69565238D01*
X84313333Y-69660476D01*
X84265714Y-69850952D01*
X84265714Y-69993809D01*
X84313333Y-70184285D01*
X84360952Y-70279523D01*
X84456190Y-70374761D01*
X84599047Y-70422380D01*
X84694285Y-70422380D01*
X84837142Y-70374761D01*
X84884761Y-70327142D01*
X84884761Y-69993809D01*
X84694285Y-69993809D01*
X85313333Y-69755714D02*
X85313333Y-70422380D01*
X85313333Y-69850952D02*
X85360952Y-69803333D01*
X85456190Y-69755714D01*
X85599047Y-69755714D01*
X85694285Y-69803333D01*
X85741904Y-69898571D01*
X85741904Y-70422380D01*
X86646666Y-70422380D02*
X86646666Y-69422380D01*
X86646666Y-70374761D02*
X86551428Y-70422380D01*
X86360952Y-70422380D01*
X86265714Y-70374761D01*
X86218095Y-70327142D01*
X86170476Y-70231904D01*
X86170476Y-69946190D01*
X86218095Y-69850952D01*
X86265714Y-69803333D01*
X86360952Y-69755714D01*
X86551428Y-69755714D01*
X86646666Y-69803333D01*
X77193809Y-83721904D02*
X77193809Y-82921904D01*
X77650952Y-83721904D01*
X77650952Y-82921904D01*
X78374761Y-83721904D02*
X78374761Y-83302857D01*
X78336666Y-83226666D01*
X78260476Y-83188571D01*
X78108095Y-83188571D01*
X78031904Y-83226666D01*
X78374761Y-83683809D02*
X78298571Y-83721904D01*
X78108095Y-83721904D01*
X78031904Y-83683809D01*
X77993809Y-83607619D01*
X77993809Y-83531428D01*
X78031904Y-83455238D01*
X78108095Y-83417142D01*
X78298571Y-83417142D01*
X78374761Y-83379047D01*
X78641428Y-83188571D02*
X78946190Y-83188571D01*
X78755714Y-82921904D02*
X78755714Y-83607619D01*
X78793809Y-83683809D01*
X78870000Y-83721904D01*
X78946190Y-83721904D01*
X79555714Y-83188571D02*
X79555714Y-83721904D01*
X79212857Y-83188571D02*
X79212857Y-83607619D01*
X79250952Y-83683809D01*
X79327142Y-83721904D01*
X79441428Y-83721904D01*
X79517619Y-83683809D01*
X79555714Y-83645714D01*
X79936666Y-83721904D02*
X79936666Y-83188571D01*
X79936666Y-83340952D02*
X79974761Y-83264761D01*
X80012857Y-83226666D01*
X80089047Y-83188571D01*
X80165238Y-83188571D01*
X80774761Y-83721904D02*
X80774761Y-83302857D01*
X80736666Y-83226666D01*
X80660476Y-83188571D01*
X80508095Y-83188571D01*
X80431904Y-83226666D01*
X80774761Y-83683809D02*
X80698571Y-83721904D01*
X80508095Y-83721904D01*
X80431904Y-83683809D01*
X80393809Y-83607619D01*
X80393809Y-83531428D01*
X80431904Y-83455238D01*
X80508095Y-83417142D01*
X80698571Y-83417142D01*
X80774761Y-83379047D01*
X81270000Y-83721904D02*
X81193809Y-83683809D01*
X81155714Y-83607619D01*
X81155714Y-82921904D01*
X81460476Y-83188571D02*
X81765238Y-83188571D01*
X81574761Y-82921904D02*
X81574761Y-83607619D01*
X81612857Y-83683809D01*
X81689047Y-83721904D01*
X81765238Y-83721904D01*
X82374761Y-83721904D02*
X82374761Y-83302857D01*
X82336666Y-83226666D01*
X82260476Y-83188571D01*
X82108095Y-83188571D01*
X82031904Y-83226666D01*
X82374761Y-83683809D02*
X82298571Y-83721904D01*
X82108095Y-83721904D01*
X82031904Y-83683809D01*
X81993809Y-83607619D01*
X81993809Y-83531428D01*
X82031904Y-83455238D01*
X82108095Y-83417142D01*
X82298571Y-83417142D01*
X82374761Y-83379047D01*
X82755714Y-83188571D02*
X82755714Y-83721904D01*
X82755714Y-83264761D02*
X82793809Y-83226666D01*
X82870000Y-83188571D01*
X82984285Y-83188571D01*
X83060476Y-83226666D01*
X83098571Y-83302857D01*
X83098571Y-83721904D01*
X83822380Y-83188571D02*
X83822380Y-83836190D01*
X83784285Y-83912380D01*
X83746190Y-83950476D01*
X83670000Y-83988571D01*
X83555714Y-83988571D01*
X83479523Y-83950476D01*
X83822380Y-83683809D02*
X83746190Y-83721904D01*
X83593809Y-83721904D01*
X83517619Y-83683809D01*
X83479523Y-83645714D01*
X83441428Y-83569523D01*
X83441428Y-83340952D01*
X83479523Y-83264761D01*
X83517619Y-83226666D01*
X83593809Y-83188571D01*
X83746190Y-83188571D01*
X83822380Y-83226666D01*
X84508095Y-83683809D02*
X84431904Y-83721904D01*
X84279523Y-83721904D01*
X84203333Y-83683809D01*
X84165238Y-83607619D01*
X84165238Y-83302857D01*
X84203333Y-83226666D01*
X84279523Y-83188571D01*
X84431904Y-83188571D01*
X84508095Y-83226666D01*
X84546190Y-83302857D01*
X84546190Y-83379047D01*
X84165238Y-83455238D01*
X84889047Y-83188571D02*
X84889047Y-83721904D01*
X84889047Y-83264761D02*
X84927142Y-83226666D01*
X85003333Y-83188571D01*
X85117619Y-83188571D01*
X85193809Y-83226666D01*
X85231904Y-83302857D01*
X85231904Y-83721904D01*
X85498571Y-83188571D02*
X85803333Y-83188571D01*
X85612857Y-82921904D02*
X85612857Y-83607619D01*
X85650952Y-83683809D01*
X85727142Y-83721904D01*
X85803333Y-83721904D01*
X86641428Y-82998095D02*
X86679523Y-82960000D01*
X86755714Y-82921904D01*
X86946190Y-82921904D01*
X87022380Y-82960000D01*
X87060476Y-82998095D01*
X87098571Y-83074285D01*
X87098571Y-83150476D01*
X87060476Y-83264761D01*
X86603333Y-83721904D01*
X87098571Y-83721904D01*
X87593809Y-82921904D02*
X87670000Y-82921904D01*
X87746190Y-82960000D01*
X87784285Y-82998095D01*
X87822380Y-83074285D01*
X87860476Y-83226666D01*
X87860476Y-83417142D01*
X87822380Y-83569523D01*
X87784285Y-83645714D01*
X87746190Y-83683809D01*
X87670000Y-83721904D01*
X87593809Y-83721904D01*
X87517619Y-83683809D01*
X87479523Y-83645714D01*
X87441428Y-83569523D01*
X87403333Y-83417142D01*
X87403333Y-83226666D01*
X87441428Y-83074285D01*
X87479523Y-82998095D01*
X87517619Y-82960000D01*
X87593809Y-82921904D01*
X88165238Y-82998095D02*
X88203333Y-82960000D01*
X88279523Y-82921904D01*
X88469999Y-82921904D01*
X88546190Y-82960000D01*
X88584285Y-82998095D01*
X88622380Y-83074285D01*
X88622380Y-83150476D01*
X88584285Y-83264761D01*
X88127142Y-83721904D01*
X88622380Y-83721904D01*
X89384285Y-83721904D02*
X88927142Y-83721904D01*
X89155714Y-83721904D02*
X89155714Y-82921904D01*
X89079523Y-83036190D01*
X89003333Y-83112380D01*
X88927142Y-83150476D01*
X31059809Y-74382380D02*
X31393142Y-75382380D01*
X31726476Y-74382380D01*
X32059809Y-75382380D02*
X32059809Y-74715714D01*
X32059809Y-74382380D02*
X32012190Y-74430000D01*
X32059809Y-74477619D01*
X32107428Y-74430000D01*
X32059809Y-74382380D01*
X32059809Y-74477619D01*
X32964571Y-75382380D02*
X32964571Y-74382380D01*
X32964571Y-75334761D02*
X32869333Y-75382380D01*
X32678857Y-75382380D01*
X32583619Y-75334761D01*
X32536000Y-75287142D01*
X32488380Y-75191904D01*
X32488380Y-74906190D01*
X32536000Y-74810952D01*
X32583619Y-74763333D01*
X32678857Y-74715714D01*
X32869333Y-74715714D01*
X32964571Y-74763333D01*
X33821714Y-75334761D02*
X33726476Y-75382380D01*
X33536000Y-75382380D01*
X33440761Y-75334761D01*
X33393142Y-75239523D01*
X33393142Y-74858571D01*
X33440761Y-74763333D01*
X33536000Y-74715714D01*
X33726476Y-74715714D01*
X33821714Y-74763333D01*
X33869333Y-74858571D01*
X33869333Y-74953809D01*
X33393142Y-75049047D01*
X34440761Y-75382380D02*
X34345523Y-75334761D01*
X34297904Y-75287142D01*
X34250285Y-75191904D01*
X34250285Y-74906190D01*
X34297904Y-74810952D01*
X34345523Y-74763333D01*
X34440761Y-74715714D01*
X34583619Y-74715714D01*
X34678857Y-74763333D01*
X34726476Y-74810952D01*
X34774095Y-74906190D01*
X34774095Y-75191904D01*
X34726476Y-75287142D01*
X34678857Y-75334761D01*
X34583619Y-75382380D01*
X34440761Y-75382380D01*
X35964571Y-75382380D02*
X35964571Y-74382380D01*
X36440761Y-74715714D02*
X36440761Y-75382380D01*
X36440761Y-74810952D02*
X36488380Y-74763333D01*
X36583619Y-74715714D01*
X36726476Y-74715714D01*
X36821714Y-74763333D01*
X36869333Y-74858571D01*
X36869333Y-75382380D01*
X31004238Y-80176666D02*
X31480428Y-80176666D01*
X30909000Y-80462380D02*
X31242333Y-79462380D01*
X31575666Y-80462380D01*
X32337571Y-79795714D02*
X32337571Y-80462380D01*
X31909000Y-79795714D02*
X31909000Y-80319523D01*
X31956619Y-80414761D01*
X32051857Y-80462380D01*
X32194714Y-80462380D01*
X32289952Y-80414761D01*
X32337571Y-80367142D01*
X33242333Y-80462380D02*
X33242333Y-79462380D01*
X33242333Y-80414761D02*
X33147095Y-80462380D01*
X32956619Y-80462380D01*
X32861380Y-80414761D01*
X32813761Y-80367142D01*
X32766142Y-80271904D01*
X32766142Y-79986190D01*
X32813761Y-79890952D01*
X32861380Y-79843333D01*
X32956619Y-79795714D01*
X33147095Y-79795714D01*
X33242333Y-79843333D01*
X33718523Y-80462380D02*
X33718523Y-79795714D01*
X33718523Y-79462380D02*
X33670904Y-79510000D01*
X33718523Y-79557619D01*
X33766142Y-79510000D01*
X33718523Y-79462380D01*
X33718523Y-79557619D01*
X34337571Y-80462380D02*
X34242333Y-80414761D01*
X34194714Y-80367142D01*
X34147095Y-80271904D01*
X34147095Y-79986190D01*
X34194714Y-79890952D01*
X34242333Y-79843333D01*
X34337571Y-79795714D01*
X34480428Y-79795714D01*
X34575666Y-79843333D01*
X34623285Y-79890952D01*
X34670904Y-79986190D01*
X34670904Y-80271904D01*
X34623285Y-80367142D01*
X34575666Y-80414761D01*
X34480428Y-80462380D01*
X34337571Y-80462380D01*
X35861380Y-80462380D02*
X35861380Y-79462380D01*
X36337571Y-79795714D02*
X36337571Y-80462380D01*
X36337571Y-79890952D02*
X36385190Y-79843333D01*
X36480428Y-79795714D01*
X36623285Y-79795714D01*
X36718523Y-79843333D01*
X36766142Y-79938571D01*
X36766142Y-80462380D01*
X42386666Y-82881904D02*
X42653333Y-83681904D01*
X42920000Y-82881904D01*
X43186666Y-83681904D02*
X43186666Y-83148571D01*
X43186666Y-82881904D02*
X43148571Y-82920000D01*
X43186666Y-82958095D01*
X43224761Y-82920000D01*
X43186666Y-82881904D01*
X43186666Y-82958095D01*
X43910476Y-83681904D02*
X43910476Y-82881904D01*
X43910476Y-83643809D02*
X43834285Y-83681904D01*
X43681904Y-83681904D01*
X43605714Y-83643809D01*
X43567619Y-83605714D01*
X43529523Y-83529523D01*
X43529523Y-83300952D01*
X43567619Y-83224761D01*
X43605714Y-83186666D01*
X43681904Y-83148571D01*
X43834285Y-83148571D01*
X43910476Y-83186666D01*
X44596190Y-83643809D02*
X44520000Y-83681904D01*
X44367619Y-83681904D01*
X44291428Y-83643809D01*
X44253333Y-83567619D01*
X44253333Y-83262857D01*
X44291428Y-83186666D01*
X44367619Y-83148571D01*
X44520000Y-83148571D01*
X44596190Y-83186666D01*
X44634285Y-83262857D01*
X44634285Y-83339047D01*
X44253333Y-83415238D01*
X45091428Y-83681904D02*
X45015238Y-83643809D01*
X44977142Y-83605714D01*
X44939047Y-83529523D01*
X44939047Y-83300952D01*
X44977142Y-83224761D01*
X45015238Y-83186666D01*
X45091428Y-83148571D01*
X45205714Y-83148571D01*
X45281904Y-83186666D01*
X45320000Y-83224761D01*
X45358095Y-83300952D01*
X45358095Y-83529523D01*
X45320000Y-83605714D01*
X45281904Y-83643809D01*
X45205714Y-83681904D01*
X45091428Y-83681904D01*
X45700952Y-83148571D02*
X45700952Y-83948571D01*
X45700952Y-83186666D02*
X45777142Y-83148571D01*
X45929523Y-83148571D01*
X46005714Y-83186666D01*
X46043809Y-83224761D01*
X46081904Y-83300952D01*
X46081904Y-83529523D01*
X46043809Y-83605714D01*
X46005714Y-83643809D01*
X45929523Y-83681904D01*
X45777142Y-83681904D01*
X45700952Y-83643809D01*
X46767619Y-83681904D02*
X46767619Y-83262857D01*
X46729523Y-83186666D01*
X46653333Y-83148571D01*
X46500952Y-83148571D01*
X46424761Y-83186666D01*
X46767619Y-83643809D02*
X46691428Y-83681904D01*
X46500952Y-83681904D01*
X46424761Y-83643809D01*
X46386666Y-83567619D01*
X46386666Y-83491428D01*
X46424761Y-83415238D01*
X46500952Y-83377142D01*
X46691428Y-83377142D01*
X46767619Y-83339047D01*
X47491428Y-83643809D02*
X47415238Y-83681904D01*
X47262857Y-83681904D01*
X47186666Y-83643809D01*
X47148571Y-83605714D01*
X47110476Y-83529523D01*
X47110476Y-83300952D01*
X47148571Y-83224761D01*
X47186666Y-83186666D01*
X47262857Y-83148571D01*
X47415238Y-83148571D01*
X47491428Y-83186666D01*
X48862857Y-82920000D02*
X48786666Y-82881904D01*
X48672380Y-82881904D01*
X48558095Y-82920000D01*
X48481904Y-82996190D01*
X48443809Y-83072380D01*
X48405714Y-83224761D01*
X48405714Y-83339047D01*
X48443809Y-83491428D01*
X48481904Y-83567619D01*
X48558095Y-83643809D01*
X48672380Y-83681904D01*
X48748571Y-83681904D01*
X48862857Y-83643809D01*
X48900952Y-83605714D01*
X48900952Y-83339047D01*
X48748571Y-83339047D01*
X49167619Y-82881904D02*
X49700952Y-82881904D01*
X49358095Y-83681904D01*
X50158095Y-82881904D02*
X50234285Y-82881904D01*
X50310476Y-82920000D01*
X50348571Y-82958095D01*
X50386666Y-83034285D01*
X50424761Y-83186666D01*
X50424761Y-83377142D01*
X50386666Y-83529523D01*
X50348571Y-83605714D01*
X50310476Y-83643809D01*
X50234285Y-83681904D01*
X50158095Y-83681904D01*
X50081904Y-83643809D01*
X50043809Y-83605714D01*
X50005714Y-83529523D01*
X49967619Y-83377142D01*
X49967619Y-83186666D01*
X50005714Y-83034285D01*
X50043809Y-82958095D01*
X50081904Y-82920000D01*
X50158095Y-82881904D01*
X50920000Y-82881904D02*
X50996190Y-82881904D01*
X51072380Y-82920000D01*
X51110476Y-82958095D01*
X51148571Y-83034285D01*
X51186666Y-83186666D01*
X51186666Y-83377142D01*
X51148571Y-83529523D01*
X51110476Y-83605714D01*
X51072380Y-83643809D01*
X50996190Y-83681904D01*
X50920000Y-83681904D01*
X50843809Y-83643809D01*
X50805714Y-83605714D01*
X50767619Y-83529523D01*
X50729523Y-83377142D01*
X50729523Y-83186666D01*
X50767619Y-83034285D01*
X50805714Y-82958095D01*
X50843809Y-82920000D01*
X50920000Y-82881904D01*
X51681904Y-82881904D02*
X51758095Y-82881904D01*
X51834285Y-82920000D01*
X51872380Y-82958095D01*
X51910476Y-83034285D01*
X51948571Y-83186666D01*
X51948571Y-83377142D01*
X51910476Y-83529523D01*
X51872380Y-83605714D01*
X51834285Y-83643809D01*
X51758095Y-83681904D01*
X51681904Y-83681904D01*
X51605714Y-83643809D01*
X51567619Y-83605714D01*
X51529523Y-83529523D01*
X51491428Y-83377142D01*
X51491428Y-83186666D01*
X51529523Y-83034285D01*
X51567619Y-82958095D01*
X51605714Y-82920000D01*
X51681904Y-82881904D01*
X53358095Y-83605714D02*
X53320000Y-83643809D01*
X53205714Y-83681904D01*
X53129523Y-83681904D01*
X53015238Y-83643809D01*
X52939047Y-83567619D01*
X52900952Y-83491428D01*
X52862857Y-83339047D01*
X52862857Y-83224761D01*
X52900952Y-83072380D01*
X52939047Y-82996190D01*
X53015238Y-82920000D01*
X53129523Y-82881904D01*
X53205714Y-82881904D01*
X53320000Y-82920000D01*
X53358095Y-82958095D01*
X53815238Y-83681904D02*
X53739047Y-83643809D01*
X53700952Y-83605714D01*
X53662857Y-83529523D01*
X53662857Y-83300952D01*
X53700952Y-83224761D01*
X53739047Y-83186666D01*
X53815238Y-83148571D01*
X53929523Y-83148571D01*
X54005714Y-83186666D01*
X54043809Y-83224761D01*
X54081904Y-83300952D01*
X54081904Y-83529523D01*
X54043809Y-83605714D01*
X54005714Y-83643809D01*
X53929523Y-83681904D01*
X53815238Y-83681904D01*
X54424761Y-83681904D02*
X54424761Y-83148571D01*
X54424761Y-83224761D02*
X54462857Y-83186666D01*
X54539047Y-83148571D01*
X54653333Y-83148571D01*
X54729523Y-83186666D01*
X54767619Y-83262857D01*
X54767619Y-83681904D01*
X54767619Y-83262857D02*
X54805714Y-83186666D01*
X54881904Y-83148571D01*
X54996190Y-83148571D01*
X55072380Y-83186666D01*
X55110476Y-83262857D01*
X55110476Y-83681904D01*
X55491428Y-83148571D02*
X55491428Y-83948571D01*
X55491428Y-83186666D02*
X55567619Y-83148571D01*
X55720000Y-83148571D01*
X55796190Y-83186666D01*
X55834285Y-83224761D01*
X55872380Y-83300952D01*
X55872380Y-83529523D01*
X55834285Y-83605714D01*
X55796190Y-83643809D01*
X55720000Y-83681904D01*
X55567619Y-83681904D01*
X55491428Y-83643809D01*
X56329523Y-83681904D02*
X56253333Y-83643809D01*
X56215238Y-83605714D01*
X56177142Y-83529523D01*
X56177142Y-83300952D01*
X56215238Y-83224761D01*
X56253333Y-83186666D01*
X56329523Y-83148571D01*
X56443809Y-83148571D01*
X56520000Y-83186666D01*
X56558095Y-83224761D01*
X56596190Y-83300952D01*
X56596190Y-83529523D01*
X56558095Y-83605714D01*
X56520000Y-83643809D01*
X56443809Y-83681904D01*
X56329523Y-83681904D01*
X56900952Y-83643809D02*
X56977142Y-83681904D01*
X57129523Y-83681904D01*
X57205714Y-83643809D01*
X57243809Y-83567619D01*
X57243809Y-83529523D01*
X57205714Y-83453333D01*
X57129523Y-83415238D01*
X57015238Y-83415238D01*
X56939047Y-83377142D01*
X56900952Y-83300952D01*
X56900952Y-83262857D01*
X56939047Y-83186666D01*
X57015238Y-83148571D01*
X57129523Y-83148571D01*
X57205714Y-83186666D01*
X57586666Y-83681904D02*
X57586666Y-83148571D01*
X57586666Y-82881904D02*
X57548571Y-82920000D01*
X57586666Y-82958095D01*
X57624761Y-82920000D01*
X57586666Y-82881904D01*
X57586666Y-82958095D01*
X57853333Y-83148571D02*
X58158095Y-83148571D01*
X57967619Y-82881904D02*
X57967619Y-83567619D01*
X58005714Y-83643809D01*
X58081904Y-83681904D01*
X58158095Y-83681904D01*
X58729523Y-83643809D02*
X58653333Y-83681904D01*
X58500952Y-83681904D01*
X58424761Y-83643809D01*
X58386666Y-83567619D01*
X58386666Y-83262857D01*
X58424761Y-83186666D01*
X58500952Y-83148571D01*
X58653333Y-83148571D01*
X58729523Y-83186666D01*
X58767619Y-83262857D01*
X58767619Y-83339047D01*
X58386666Y-83415238D01*
X59605714Y-82881904D02*
X59872380Y-83681904D01*
X60139047Y-82881904D01*
X60405714Y-83681904D02*
X60405714Y-83148571D01*
X60405714Y-82881904D02*
X60367619Y-82920000D01*
X60405714Y-82958095D01*
X60443809Y-82920000D01*
X60405714Y-82881904D01*
X60405714Y-82958095D01*
X61129523Y-83681904D02*
X61129523Y-82881904D01*
X61129523Y-83643809D02*
X61053333Y-83681904D01*
X60900952Y-83681904D01*
X60824761Y-83643809D01*
X60786666Y-83605714D01*
X60748571Y-83529523D01*
X60748571Y-83300952D01*
X60786666Y-83224761D01*
X60824761Y-83186666D01*
X60900952Y-83148571D01*
X61053333Y-83148571D01*
X61129523Y-83186666D01*
X61815238Y-83643809D02*
X61739047Y-83681904D01*
X61586666Y-83681904D01*
X61510476Y-83643809D01*
X61472380Y-83567619D01*
X61472380Y-83262857D01*
X61510476Y-83186666D01*
X61586666Y-83148571D01*
X61739047Y-83148571D01*
X61815238Y-83186666D01*
X61853333Y-83262857D01*
X61853333Y-83339047D01*
X61472380Y-83415238D01*
X62310476Y-83681904D02*
X62234285Y-83643809D01*
X62196190Y-83605714D01*
X62158095Y-83529523D01*
X62158095Y-83300952D01*
X62196190Y-83224761D01*
X62234285Y-83186666D01*
X62310476Y-83148571D01*
X62424761Y-83148571D01*
X62500952Y-83186666D01*
X62539047Y-83224761D01*
X62577142Y-83300952D01*
X62577142Y-83529523D01*
X62539047Y-83605714D01*
X62500952Y-83643809D01*
X62424761Y-83681904D01*
X62310476Y-83681904D01*
X84436666Y-67676666D02*
X84912857Y-67676666D01*
X84341428Y-67962380D02*
X84674761Y-66962380D01*
X85008095Y-67962380D01*
X85770000Y-67295714D02*
X85770000Y-67962380D01*
X85341428Y-67295714D02*
X85341428Y-67819523D01*
X85389047Y-67914761D01*
X85484285Y-67962380D01*
X85627142Y-67962380D01*
X85722380Y-67914761D01*
X85770000Y-67867142D01*
X86674761Y-67962380D02*
X86674761Y-66962380D01*
X86674761Y-67914761D02*
X86579523Y-67962380D01*
X86389047Y-67962380D01*
X86293809Y-67914761D01*
X86246190Y-67867142D01*
X86198571Y-67771904D01*
X86198571Y-67486190D01*
X86246190Y-67390952D01*
X86293809Y-67343333D01*
X86389047Y-67295714D01*
X86579523Y-67295714D01*
X86674761Y-67343333D01*
X87150952Y-67962380D02*
X87150952Y-67295714D01*
X87150952Y-66962380D02*
X87103333Y-67010000D01*
X87150952Y-67057619D01*
X87198571Y-67010000D01*
X87150952Y-66962380D01*
X87150952Y-67057619D01*
X87770000Y-67962380D02*
X87674761Y-67914761D01*
X87627142Y-67867142D01*
X87579523Y-67771904D01*
X87579523Y-67486190D01*
X87627142Y-67390952D01*
X87674761Y-67343333D01*
X87770000Y-67295714D01*
X87912857Y-67295714D01*
X88008095Y-67343333D01*
X88055714Y-67390952D01*
X88103333Y-67486190D01*
X88103333Y-67771904D01*
X88055714Y-67867142D01*
X88008095Y-67914761D01*
X87912857Y-67962380D01*
X87770000Y-67962380D01*
X30935714Y-68227904D02*
X31202380Y-69027904D01*
X31469047Y-68227904D01*
X31735714Y-69027904D02*
X31735714Y-68494571D01*
X31735714Y-68227904D02*
X31697619Y-68266000D01*
X31735714Y-68304095D01*
X31773809Y-68266000D01*
X31735714Y-68227904D01*
X31735714Y-68304095D01*
X32459523Y-69027904D02*
X32459523Y-68227904D01*
X32459523Y-68989809D02*
X32383333Y-69027904D01*
X32230952Y-69027904D01*
X32154761Y-68989809D01*
X32116666Y-68951714D01*
X32078571Y-68875523D01*
X32078571Y-68646952D01*
X32116666Y-68570761D01*
X32154761Y-68532666D01*
X32230952Y-68494571D01*
X32383333Y-68494571D01*
X32459523Y-68532666D01*
X33145238Y-68989809D02*
X33069047Y-69027904D01*
X32916666Y-69027904D01*
X32840476Y-68989809D01*
X32802380Y-68913619D01*
X32802380Y-68608857D01*
X32840476Y-68532666D01*
X32916666Y-68494571D01*
X33069047Y-68494571D01*
X33145238Y-68532666D01*
X33183333Y-68608857D01*
X33183333Y-68685047D01*
X32802380Y-68761238D01*
X33640476Y-69027904D02*
X33564285Y-68989809D01*
X33526190Y-68951714D01*
X33488095Y-68875523D01*
X33488095Y-68646952D01*
X33526190Y-68570761D01*
X33564285Y-68532666D01*
X33640476Y-68494571D01*
X33754761Y-68494571D01*
X33830952Y-68532666D01*
X33869047Y-68570761D01*
X33907142Y-68646952D01*
X33907142Y-68875523D01*
X33869047Y-68951714D01*
X33830952Y-68989809D01*
X33754761Y-69027904D01*
X33640476Y-69027904D01*
X34859523Y-69027904D02*
X34859523Y-68227904D01*
X35240476Y-68494571D02*
X35240476Y-69027904D01*
X35240476Y-68570761D02*
X35278571Y-68532666D01*
X35354761Y-68494571D01*
X35469047Y-68494571D01*
X35545238Y-68532666D01*
X35583333Y-68608857D01*
X35583333Y-69027904D01*
X35964285Y-68951714D02*
X36002380Y-68989809D01*
X35964285Y-69027904D01*
X35926190Y-68989809D01*
X35964285Y-68951714D01*
X35964285Y-69027904D01*
X35964285Y-68532666D02*
X36002380Y-68570761D01*
X35964285Y-68608857D01*
X35926190Y-68570761D01*
X35964285Y-68532666D01*
X35964285Y-68608857D01*
X36954761Y-69027904D02*
X36954761Y-68227904D01*
X37792857Y-68951714D02*
X37754761Y-68989809D01*
X37640476Y-69027904D01*
X37564285Y-69027904D01*
X37450000Y-68989809D01*
X37373809Y-68913619D01*
X37335714Y-68837428D01*
X37297619Y-68685047D01*
X37297619Y-68570761D01*
X37335714Y-68418380D01*
X37373809Y-68342190D01*
X37450000Y-68266000D01*
X37564285Y-68227904D01*
X37640476Y-68227904D01*
X37754761Y-68266000D01*
X37792857Y-68304095D01*
X38478571Y-68227904D02*
X38326190Y-68227904D01*
X38250000Y-68266000D01*
X38211904Y-68304095D01*
X38135714Y-68418380D01*
X38097619Y-68570761D01*
X38097619Y-68875523D01*
X38135714Y-68951714D01*
X38173809Y-68989809D01*
X38250000Y-69027904D01*
X38402380Y-69027904D01*
X38478571Y-68989809D01*
X38516666Y-68951714D01*
X38554761Y-68875523D01*
X38554761Y-68685047D01*
X38516666Y-68608857D01*
X38478571Y-68570761D01*
X38402380Y-68532666D01*
X38250000Y-68532666D01*
X38173809Y-68570761D01*
X38135714Y-68608857D01*
X38097619Y-68685047D01*
X38821428Y-68227904D02*
X39354761Y-68227904D01*
X39011904Y-69027904D01*
X39697619Y-69027904D02*
X39850000Y-69027904D01*
X39926190Y-68989809D01*
X39964285Y-68951714D01*
X40040476Y-68837428D01*
X40078571Y-68685047D01*
X40078571Y-68380285D01*
X40040476Y-68304095D01*
X40002380Y-68266000D01*
X39926190Y-68227904D01*
X39773809Y-68227904D01*
X39697619Y-68266000D01*
X39659523Y-68304095D01*
X39621428Y-68380285D01*
X39621428Y-68570761D01*
X39659523Y-68646952D01*
X39697619Y-68685047D01*
X39773809Y-68723142D01*
X39926190Y-68723142D01*
X40002380Y-68685047D01*
X40040476Y-68646952D01*
X40078571Y-68570761D01*
X41030952Y-68494571D02*
X41030952Y-69294571D01*
X41030952Y-68532666D02*
X41107142Y-68494571D01*
X41259523Y-68494571D01*
X41335714Y-68532666D01*
X41373809Y-68570761D01*
X41411904Y-68646952D01*
X41411904Y-68875523D01*
X41373809Y-68951714D01*
X41335714Y-68989809D01*
X41259523Y-69027904D01*
X41107142Y-69027904D01*
X41030952Y-68989809D01*
X41754761Y-69027904D02*
X41754761Y-68494571D01*
X41754761Y-68227904D02*
X41716666Y-68266000D01*
X41754761Y-68304095D01*
X41792857Y-68266000D01*
X41754761Y-68227904D01*
X41754761Y-68304095D01*
X42135714Y-68494571D02*
X42135714Y-69027904D01*
X42135714Y-68570761D02*
X42173809Y-68532666D01*
X42250000Y-68494571D01*
X42364285Y-68494571D01*
X42440476Y-68532666D01*
X42478571Y-68608857D01*
X42478571Y-69027904D01*
X43850000Y-68227904D02*
X43469047Y-68227904D01*
X43430952Y-68608857D01*
X43469047Y-68570761D01*
X43545238Y-68532666D01*
X43735714Y-68532666D01*
X43811904Y-68570761D01*
X43850000Y-68608857D01*
X43888095Y-68685047D01*
X43888095Y-68875523D01*
X43850000Y-68951714D01*
X43811904Y-68989809D01*
X43735714Y-69027904D01*
X43545238Y-69027904D01*
X43469047Y-68989809D01*
X43430952Y-68951714D01*
X30611904Y-70087333D02*
X30992857Y-70087333D01*
X30535714Y-70315904D02*
X30802380Y-69515904D01*
X31069047Y-70315904D01*
X31678571Y-69782571D02*
X31678571Y-70315904D01*
X31335714Y-69782571D02*
X31335714Y-70201619D01*
X31373809Y-70277809D01*
X31450000Y-70315904D01*
X31564285Y-70315904D01*
X31640476Y-70277809D01*
X31678571Y-70239714D01*
X32402380Y-70315904D02*
X32402380Y-69515904D01*
X32402380Y-70277809D02*
X32326190Y-70315904D01*
X32173809Y-70315904D01*
X32097619Y-70277809D01*
X32059523Y-70239714D01*
X32021428Y-70163523D01*
X32021428Y-69934952D01*
X32059523Y-69858761D01*
X32097619Y-69820666D01*
X32173809Y-69782571D01*
X32326190Y-69782571D01*
X32402380Y-69820666D01*
X32783333Y-70315904D02*
X32783333Y-69782571D01*
X32783333Y-69515904D02*
X32745238Y-69554000D01*
X32783333Y-69592095D01*
X32821428Y-69554000D01*
X32783333Y-69515904D01*
X32783333Y-69592095D01*
X33278571Y-70315904D02*
X33202380Y-70277809D01*
X33164285Y-70239714D01*
X33126190Y-70163523D01*
X33126190Y-69934952D01*
X33164285Y-69858761D01*
X33202380Y-69820666D01*
X33278571Y-69782571D01*
X33392857Y-69782571D01*
X33469047Y-69820666D01*
X33507142Y-69858761D01*
X33545238Y-69934952D01*
X33545238Y-70163523D01*
X33507142Y-70239714D01*
X33469047Y-70277809D01*
X33392857Y-70315904D01*
X33278571Y-70315904D01*
X34497619Y-70315904D02*
X34497619Y-69515904D01*
X34878571Y-69782571D02*
X34878571Y-70315904D01*
X34878571Y-69858761D02*
X34916666Y-69820666D01*
X34992857Y-69782571D01*
X35107142Y-69782571D01*
X35183333Y-69820666D01*
X35221428Y-69896857D01*
X35221428Y-70315904D01*
X35602380Y-70239714D02*
X35640476Y-70277809D01*
X35602380Y-70315904D01*
X35564285Y-70277809D01*
X35602380Y-70239714D01*
X35602380Y-70315904D01*
X35602380Y-69820666D02*
X35640476Y-69858761D01*
X35602380Y-69896857D01*
X35564285Y-69858761D01*
X35602380Y-69820666D01*
X35602380Y-69896857D01*
X36592857Y-70315904D02*
X36592857Y-69515904D01*
X37430952Y-70239714D02*
X37392857Y-70277809D01*
X37278571Y-70315904D01*
X37202380Y-70315904D01*
X37088095Y-70277809D01*
X37011904Y-70201619D01*
X36973809Y-70125428D01*
X36935714Y-69973047D01*
X36935714Y-69858761D01*
X36973809Y-69706380D01*
X37011904Y-69630190D01*
X37088095Y-69554000D01*
X37202380Y-69515904D01*
X37278571Y-69515904D01*
X37392857Y-69554000D01*
X37430952Y-69592095D01*
X38116666Y-69515904D02*
X37964285Y-69515904D01*
X37888095Y-69554000D01*
X37850000Y-69592095D01*
X37773809Y-69706380D01*
X37735714Y-69858761D01*
X37735714Y-70163523D01*
X37773809Y-70239714D01*
X37811904Y-70277809D01*
X37888095Y-70315904D01*
X38040476Y-70315904D01*
X38116666Y-70277809D01*
X38154761Y-70239714D01*
X38192857Y-70163523D01*
X38192857Y-69973047D01*
X38154761Y-69896857D01*
X38116666Y-69858761D01*
X38040476Y-69820666D01*
X37888095Y-69820666D01*
X37811904Y-69858761D01*
X37773809Y-69896857D01*
X37735714Y-69973047D01*
X38878571Y-69782571D02*
X38878571Y-70315904D01*
X38688095Y-69477809D02*
X38497619Y-70049238D01*
X38992857Y-70049238D01*
X39259523Y-69592095D02*
X39297619Y-69554000D01*
X39373809Y-69515904D01*
X39564285Y-69515904D01*
X39640476Y-69554000D01*
X39678571Y-69592095D01*
X39716666Y-69668285D01*
X39716666Y-69744476D01*
X39678571Y-69858761D01*
X39221428Y-70315904D01*
X39716666Y-70315904D01*
X40669047Y-69782571D02*
X40669047Y-70582571D01*
X40669047Y-69820666D02*
X40745238Y-69782571D01*
X40897619Y-69782571D01*
X40973809Y-69820666D01*
X41011904Y-69858761D01*
X41050000Y-69934952D01*
X41050000Y-70163523D01*
X41011904Y-70239714D01*
X40973809Y-70277809D01*
X40897619Y-70315904D01*
X40745238Y-70315904D01*
X40669047Y-70277809D01*
X41392857Y-70315904D02*
X41392857Y-69782571D01*
X41392857Y-69515904D02*
X41354761Y-69554000D01*
X41392857Y-69592095D01*
X41430952Y-69554000D01*
X41392857Y-69515904D01*
X41392857Y-69592095D01*
X41773809Y-69782571D02*
X41773809Y-70315904D01*
X41773809Y-69858761D02*
X41811904Y-69820666D01*
X41888095Y-69782571D01*
X42002380Y-69782571D01*
X42078571Y-69820666D01*
X42116666Y-69896857D01*
X42116666Y-70315904D01*
X43069047Y-69592095D02*
X43107142Y-69554000D01*
X43183333Y-69515904D01*
X43373809Y-69515904D01*
X43450000Y-69554000D01*
X43488095Y-69592095D01*
X43526190Y-69668285D01*
X43526190Y-69744476D01*
X43488095Y-69858761D01*
X43030952Y-70315904D01*
X43526190Y-70315904D01*
X43792857Y-69515904D02*
X44326190Y-69515904D01*
X43983333Y-70315904D01*
X83915238Y-62087142D02*
X83867619Y-62134761D01*
X83724761Y-62182380D01*
X83629523Y-62182380D01*
X83486666Y-62134761D01*
X83391428Y-62039523D01*
X83343809Y-61944285D01*
X83296190Y-61753809D01*
X83296190Y-61610952D01*
X83343809Y-61420476D01*
X83391428Y-61325238D01*
X83486666Y-61230000D01*
X83629523Y-61182380D01*
X83724761Y-61182380D01*
X83867619Y-61230000D01*
X83915238Y-61277619D01*
X84486666Y-62182380D02*
X84391428Y-62134761D01*
X84343809Y-62087142D01*
X84296190Y-61991904D01*
X84296190Y-61706190D01*
X84343809Y-61610952D01*
X84391428Y-61563333D01*
X84486666Y-61515714D01*
X84629523Y-61515714D01*
X84724761Y-61563333D01*
X84772380Y-61610952D01*
X84820000Y-61706190D01*
X84820000Y-61991904D01*
X84772380Y-62087142D01*
X84724761Y-62134761D01*
X84629523Y-62182380D01*
X84486666Y-62182380D01*
X85248571Y-62182380D02*
X85248571Y-61515714D01*
X85248571Y-61610952D02*
X85296190Y-61563333D01*
X85391428Y-61515714D01*
X85534285Y-61515714D01*
X85629523Y-61563333D01*
X85677142Y-61658571D01*
X85677142Y-62182380D01*
X85677142Y-61658571D02*
X85724761Y-61563333D01*
X85820000Y-61515714D01*
X85962857Y-61515714D01*
X86058095Y-61563333D01*
X86105714Y-61658571D01*
X86105714Y-62182380D01*
X86581904Y-61515714D02*
X86581904Y-62515714D01*
X86581904Y-61563333D02*
X86677142Y-61515714D01*
X86867619Y-61515714D01*
X86962857Y-61563333D01*
X87010476Y-61610952D01*
X87058095Y-61706190D01*
X87058095Y-61991904D01*
X87010476Y-62087142D01*
X86962857Y-62134761D01*
X86867619Y-62182380D01*
X86677142Y-62182380D01*
X86581904Y-62134761D01*
X88439047Y-61182380D02*
X88629523Y-61182380D01*
X88724761Y-61230000D01*
X88820000Y-61325238D01*
X88867619Y-61515714D01*
X88867619Y-61849047D01*
X88820000Y-62039523D01*
X88724761Y-62134761D01*
X88629523Y-62182380D01*
X88439047Y-62182380D01*
X88343809Y-62134761D01*
X88248571Y-62039523D01*
X88200952Y-61849047D01*
X88200952Y-61515714D01*
X88248571Y-61325238D01*
X88343809Y-61230000D01*
X88439047Y-61182380D01*
X89724761Y-61515714D02*
X89724761Y-62182380D01*
X89296190Y-61515714D02*
X89296190Y-62039523D01*
X89343809Y-62134761D01*
X89439047Y-62182380D01*
X89581904Y-62182380D01*
X89677142Y-62134761D01*
X89724761Y-62087142D01*
X90058095Y-61515714D02*
X90439047Y-61515714D01*
X90200952Y-61182380D02*
X90200952Y-62039523D01*
X90248571Y-62134761D01*
X90343809Y-62182380D01*
X90439047Y-62182380D01*
X31480285Y-77414428D02*
X32242190Y-77414428D01*
X31861238Y-77795380D02*
X31861238Y-77033476D01*
X33194571Y-76795380D02*
X32718380Y-76795380D01*
X32670761Y-77271571D01*
X32718380Y-77223952D01*
X32813619Y-77176333D01*
X33051714Y-77176333D01*
X33146952Y-77223952D01*
X33194571Y-77271571D01*
X33242190Y-77366809D01*
X33242190Y-77604904D01*
X33194571Y-77700142D01*
X33146952Y-77747761D01*
X33051714Y-77795380D01*
X32813619Y-77795380D01*
X32718380Y-77747761D01*
X32670761Y-77700142D01*
X33527904Y-76795380D02*
X33861238Y-77795380D01*
X34194571Y-76795380D01*
X31750095Y-71890000D02*
X31654857Y-71842380D01*
X31512000Y-71842380D01*
X31369142Y-71890000D01*
X31273904Y-71985238D01*
X31226285Y-72080476D01*
X31178666Y-72270952D01*
X31178666Y-72413809D01*
X31226285Y-72604285D01*
X31273904Y-72699523D01*
X31369142Y-72794761D01*
X31512000Y-72842380D01*
X31607238Y-72842380D01*
X31750095Y-72794761D01*
X31797714Y-72747142D01*
X31797714Y-72413809D01*
X31607238Y-72413809D01*
X32226285Y-72842380D02*
X32226285Y-71842380D01*
X32797714Y-72842380D01*
X32797714Y-71842380D01*
X33273904Y-72842380D02*
X33273904Y-71842380D01*
X33512000Y-71842380D01*
X33654857Y-71890000D01*
X33750095Y-71985238D01*
X33797714Y-72080476D01*
X33845333Y-72270952D01*
X33845333Y-72413809D01*
X33797714Y-72604285D01*
X33750095Y-72699523D01*
X33654857Y-72794761D01*
X33512000Y-72842380D01*
X33273904Y-72842380D01*
X77514285Y-60752380D02*
X77514285Y-61466666D01*
X77466666Y-61609523D01*
X77371428Y-61704761D01*
X77228571Y-61752380D01*
X77133333Y-61752380D01*
X78514285Y-61752380D02*
X77942857Y-61752380D01*
X78228571Y-61752380D02*
X78228571Y-60752380D01*
X78133333Y-60895238D01*
X78038095Y-60990476D01*
X77942857Y-61038095D01*
X79133333Y-60752380D02*
X79228571Y-60752380D01*
X79323809Y-60800000D01*
X79371428Y-60847619D01*
X79419047Y-60942857D01*
X79466666Y-61133333D01*
X79466666Y-61371428D01*
X79419047Y-61561904D01*
X79371428Y-61657142D01*
X79323809Y-61704761D01*
X79228571Y-61752380D01*
X79133333Y-61752380D01*
X79038095Y-61704761D01*
X78990476Y-61657142D01*
X78942857Y-61561904D01*
X78895238Y-61371428D01*
X78895238Y-61133333D01*
X78942857Y-60942857D01*
X78990476Y-60847619D01*
X79038095Y-60800000D01*
X79133333Y-60752380D01*
X79847619Y-60847619D02*
X79895238Y-60800000D01*
X79990476Y-60752380D01*
X80228571Y-60752380D01*
X80323809Y-60800000D01*
X80371428Y-60847619D01*
X80419047Y-60942857D01*
X80419047Y-61038095D01*
X80371428Y-61180952D01*
X79800000Y-61752380D01*
X80419047Y-61752380D01*
X30720952Y-61527142D02*
X30673333Y-61574761D01*
X30530476Y-61622380D01*
X30435238Y-61622380D01*
X30292380Y-61574761D01*
X30197142Y-61479523D01*
X30149523Y-61384285D01*
X30101904Y-61193809D01*
X30101904Y-61050952D01*
X30149523Y-60860476D01*
X30197142Y-60765238D01*
X30292380Y-60670000D01*
X30435238Y-60622380D01*
X30530476Y-60622380D01*
X30673333Y-60670000D01*
X30720952Y-60717619D01*
X31673333Y-61622380D02*
X31101904Y-61622380D01*
X31387619Y-61622380D02*
X31387619Y-60622380D01*
X31292380Y-60765238D01*
X31197142Y-60860476D01*
X31101904Y-60908095D01*
X32292380Y-60622380D02*
X32387619Y-60622380D01*
X32482857Y-60670000D01*
X32530476Y-60717619D01*
X32578095Y-60812857D01*
X32625714Y-61003333D01*
X32625714Y-61241428D01*
X32578095Y-61431904D01*
X32530476Y-61527142D01*
X32482857Y-61574761D01*
X32387619Y-61622380D01*
X32292380Y-61622380D01*
X32197142Y-61574761D01*
X32149523Y-61527142D01*
X32101904Y-61431904D01*
X32054285Y-61241428D01*
X32054285Y-61003333D01*
X32101904Y-60812857D01*
X32149523Y-60717619D01*
X32197142Y-60670000D01*
X32292380Y-60622380D01*
X33578095Y-61622380D02*
X33006666Y-61622380D01*
X33292380Y-61622380D02*
X33292380Y-60622380D01*
X33197142Y-60765238D01*
X33101904Y-60860476D01*
X33006666Y-60908095D01*
X65301952Y-83510380D02*
X64968619Y-83034190D01*
X64730523Y-83510380D02*
X64730523Y-82510380D01*
X65111476Y-82510380D01*
X65206714Y-82558000D01*
X65254333Y-82605619D01*
X65301952Y-82700857D01*
X65301952Y-82843714D01*
X65254333Y-82938952D01*
X65206714Y-82986571D01*
X65111476Y-83034190D01*
X64730523Y-83034190D01*
X66254333Y-83510380D02*
X65682904Y-83510380D01*
X65968619Y-83510380D02*
X65968619Y-82510380D01*
X65873380Y-82653238D01*
X65778142Y-82748476D01*
X65682904Y-82796095D01*
X66873380Y-82510380D02*
X66968619Y-82510380D01*
X67063857Y-82558000D01*
X67111476Y-82605619D01*
X67159095Y-82700857D01*
X67206714Y-82891333D01*
X67206714Y-83129428D01*
X67159095Y-83319904D01*
X67111476Y-83415142D01*
X67063857Y-83462761D01*
X66968619Y-83510380D01*
X66873380Y-83510380D01*
X66778142Y-83462761D01*
X66730523Y-83415142D01*
X66682904Y-83319904D01*
X66635285Y-83129428D01*
X66635285Y-82891333D01*
X66682904Y-82700857D01*
X66730523Y-82605619D01*
X66778142Y-82558000D01*
X66873380Y-82510380D01*
X67778142Y-82938952D02*
X67682904Y-82891333D01*
X67635285Y-82843714D01*
X67587666Y-82748476D01*
X67587666Y-82700857D01*
X67635285Y-82605619D01*
X67682904Y-82558000D01*
X67778142Y-82510380D01*
X67968619Y-82510380D01*
X68063857Y-82558000D01*
X68111476Y-82605619D01*
X68159095Y-82700857D01*
X68159095Y-82748476D01*
X68111476Y-82843714D01*
X68063857Y-82891333D01*
X67968619Y-82938952D01*
X67778142Y-82938952D01*
X67682904Y-82986571D01*
X67635285Y-83034190D01*
X67587666Y-83129428D01*
X67587666Y-83319904D01*
X67635285Y-83415142D01*
X67682904Y-83462761D01*
X67778142Y-83510380D01*
X67968619Y-83510380D01*
X68063857Y-83462761D01*
X68111476Y-83415142D01*
X68159095Y-83319904D01*
X68159095Y-83129428D01*
X68111476Y-83034190D01*
X68063857Y-82986571D01*
X67968619Y-82938952D01*
X64932619Y-70008619D02*
X64885000Y-70103857D01*
X64789761Y-70199095D01*
X64646904Y-70341952D01*
X64599285Y-70437190D01*
X64599285Y-70532428D01*
X64837380Y-70484809D02*
X64789761Y-70580047D01*
X64694523Y-70675285D01*
X64504047Y-70722904D01*
X64170714Y-70722904D01*
X63980238Y-70675285D01*
X63885000Y-70580047D01*
X63837380Y-70484809D01*
X63837380Y-70294333D01*
X63885000Y-70199095D01*
X63980238Y-70103857D01*
X64170714Y-70056238D01*
X64504047Y-70056238D01*
X64694523Y-70103857D01*
X64789761Y-70199095D01*
X64837380Y-70294333D01*
X64837380Y-70484809D01*
X64837380Y-69103857D02*
X64837380Y-69675285D01*
X64837380Y-69389571D02*
X63837380Y-69389571D01*
X63980238Y-69484809D01*
X64075476Y-69580047D01*
X64123095Y-69675285D01*
X63837380Y-68484809D02*
X63837380Y-68389571D01*
X63885000Y-68294333D01*
X63932619Y-68246714D01*
X64027857Y-68199095D01*
X64218333Y-68151476D01*
X64456428Y-68151476D01*
X64646904Y-68199095D01*
X64742142Y-68246714D01*
X64789761Y-68294333D01*
X64837380Y-68389571D01*
X64837380Y-68484809D01*
X64789761Y-68580047D01*
X64742142Y-68627666D01*
X64646904Y-68675285D01*
X64456428Y-68722904D01*
X64218333Y-68722904D01*
X64027857Y-68675285D01*
X63932619Y-68627666D01*
X63885000Y-68580047D01*
X63837380Y-68484809D01*
X63932619Y-67770523D02*
X63885000Y-67722904D01*
X63837380Y-67627666D01*
X63837380Y-67389571D01*
X63885000Y-67294333D01*
X63932619Y-67246714D01*
X64027857Y-67199095D01*
X64123095Y-67199095D01*
X64265952Y-67246714D01*
X64837380Y-67818142D01*
X64837380Y-67199095D01*
X63147380Y-74398047D02*
X62671190Y-74731380D01*
X63147380Y-74969476D02*
X62147380Y-74969476D01*
X62147380Y-74588523D01*
X62195000Y-74493285D01*
X62242619Y-74445666D01*
X62337857Y-74398047D01*
X62480714Y-74398047D01*
X62575952Y-74445666D01*
X62623571Y-74493285D01*
X62671190Y-74588523D01*
X62671190Y-74969476D01*
X63147380Y-73445666D02*
X63147380Y-74017095D01*
X63147380Y-73731380D02*
X62147380Y-73731380D01*
X62290238Y-73826619D01*
X62385476Y-73921857D01*
X62433095Y-74017095D01*
X62147380Y-72826619D02*
X62147380Y-72731380D01*
X62195000Y-72636142D01*
X62242619Y-72588523D01*
X62337857Y-72540904D01*
X62528333Y-72493285D01*
X62766428Y-72493285D01*
X62956904Y-72540904D01*
X63052142Y-72588523D01*
X63099761Y-72636142D01*
X63147380Y-72731380D01*
X63147380Y-72826619D01*
X63099761Y-72921857D01*
X63052142Y-72969476D01*
X62956904Y-73017095D01*
X62766428Y-73064714D01*
X62528333Y-73064714D01*
X62337857Y-73017095D01*
X62242619Y-72969476D01*
X62195000Y-72921857D01*
X62147380Y-72826619D01*
X62147380Y-71588523D02*
X62147380Y-72064714D01*
X62623571Y-72112333D01*
X62575952Y-72064714D01*
X62528333Y-71969476D01*
X62528333Y-71731380D01*
X62575952Y-71636142D01*
X62623571Y-71588523D01*
X62718809Y-71540904D01*
X62956904Y-71540904D01*
X63052142Y-71588523D01*
X63099761Y-71636142D01*
X63147380Y-71731380D01*
X63147380Y-71969476D01*
X63099761Y-72064714D01*
X63052142Y-72112333D01*
X77160380Y-71604047D02*
X76684190Y-71937380D01*
X77160380Y-72175476D02*
X76160380Y-72175476D01*
X76160380Y-71794523D01*
X76208000Y-71699285D01*
X76255619Y-71651666D01*
X76350857Y-71604047D01*
X76493714Y-71604047D01*
X76588952Y-71651666D01*
X76636571Y-71699285D01*
X76684190Y-71794523D01*
X76684190Y-72175476D01*
X77160380Y-70651666D02*
X77160380Y-71223095D01*
X77160380Y-70937380D02*
X76160380Y-70937380D01*
X76303238Y-71032619D01*
X76398476Y-71127857D01*
X76446095Y-71223095D01*
X76160380Y-70032619D02*
X76160380Y-69937380D01*
X76208000Y-69842142D01*
X76255619Y-69794523D01*
X76350857Y-69746904D01*
X76541333Y-69699285D01*
X76779428Y-69699285D01*
X76969904Y-69746904D01*
X77065142Y-69794523D01*
X77112761Y-69842142D01*
X77160380Y-69937380D01*
X77160380Y-70032619D01*
X77112761Y-70127857D01*
X77065142Y-70175476D01*
X76969904Y-70223095D01*
X76779428Y-70270714D01*
X76541333Y-70270714D01*
X76350857Y-70223095D01*
X76255619Y-70175476D01*
X76208000Y-70127857D01*
X76160380Y-70032619D01*
X76160380Y-69365952D02*
X76160380Y-68699285D01*
X77160380Y-69127857D01*
X48680619Y-81819619D02*
X48633000Y-81914857D01*
X48537761Y-82010095D01*
X48394904Y-82152952D01*
X48347285Y-82248190D01*
X48347285Y-82343428D01*
X48585380Y-82295809D02*
X48537761Y-82391047D01*
X48442523Y-82486285D01*
X48252047Y-82533904D01*
X47918714Y-82533904D01*
X47728238Y-82486285D01*
X47633000Y-82391047D01*
X47585380Y-82295809D01*
X47585380Y-82105333D01*
X47633000Y-82010095D01*
X47728238Y-81914857D01*
X47918714Y-81867238D01*
X48252047Y-81867238D01*
X48442523Y-81914857D01*
X48537761Y-82010095D01*
X48585380Y-82105333D01*
X48585380Y-82295809D01*
X48585380Y-80914857D02*
X48585380Y-81486285D01*
X48585380Y-81200571D02*
X47585380Y-81200571D01*
X47728238Y-81295809D01*
X47823476Y-81391047D01*
X47871095Y-81486285D01*
X47585380Y-80295809D02*
X47585380Y-80200571D01*
X47633000Y-80105333D01*
X47680619Y-80057714D01*
X47775857Y-80010095D01*
X47966333Y-79962476D01*
X48204428Y-79962476D01*
X48394904Y-80010095D01*
X48490142Y-80057714D01*
X48537761Y-80105333D01*
X48585380Y-80200571D01*
X48585380Y-80295809D01*
X48537761Y-80391047D01*
X48490142Y-80438666D01*
X48394904Y-80486285D01*
X48204428Y-80533904D01*
X47966333Y-80533904D01*
X47775857Y-80486285D01*
X47680619Y-80438666D01*
X47633000Y-80391047D01*
X47585380Y-80295809D01*
X48585380Y-79010095D02*
X48585380Y-79581523D01*
X48585380Y-79295809D02*
X47585380Y-79295809D01*
X47728238Y-79391047D01*
X47823476Y-79486285D01*
X47871095Y-79581523D01*
X53792380Y-81383047D02*
X53316190Y-81716380D01*
X53792380Y-81954476D02*
X52792380Y-81954476D01*
X52792380Y-81573523D01*
X52840000Y-81478285D01*
X52887619Y-81430666D01*
X52982857Y-81383047D01*
X53125714Y-81383047D01*
X53220952Y-81430666D01*
X53268571Y-81478285D01*
X53316190Y-81573523D01*
X53316190Y-81954476D01*
X53792380Y-80430666D02*
X53792380Y-81002095D01*
X53792380Y-80716380D02*
X52792380Y-80716380D01*
X52935238Y-80811619D01*
X53030476Y-80906857D01*
X53078095Y-81002095D01*
X52792380Y-79811619D02*
X52792380Y-79716380D01*
X52840000Y-79621142D01*
X52887619Y-79573523D01*
X52982857Y-79525904D01*
X53173333Y-79478285D01*
X53411428Y-79478285D01*
X53601904Y-79525904D01*
X53697142Y-79573523D01*
X53744761Y-79621142D01*
X53792380Y-79716380D01*
X53792380Y-79811619D01*
X53744761Y-79906857D01*
X53697142Y-79954476D01*
X53601904Y-80002095D01*
X53411428Y-80049714D01*
X53173333Y-80049714D01*
X52982857Y-80002095D01*
X52887619Y-79954476D01*
X52840000Y-79906857D01*
X52792380Y-79811619D01*
X52792380Y-79144952D02*
X52792380Y-78525904D01*
X53173333Y-78859238D01*
X53173333Y-78716380D01*
X53220952Y-78621142D01*
X53268571Y-78573523D01*
X53363809Y-78525904D01*
X53601904Y-78525904D01*
X53697142Y-78573523D01*
X53744761Y-78621142D01*
X53792380Y-78716380D01*
X53792380Y-79002095D01*
X53744761Y-79097333D01*
X53697142Y-79144952D01*
X42750952Y-61587142D02*
X42703333Y-61634761D01*
X42560476Y-61682380D01*
X42465238Y-61682380D01*
X42322380Y-61634761D01*
X42227142Y-61539523D01*
X42179523Y-61444285D01*
X42131904Y-61253809D01*
X42131904Y-61110952D01*
X42179523Y-60920476D01*
X42227142Y-60825238D01*
X42322380Y-60730000D01*
X42465238Y-60682380D01*
X42560476Y-60682380D01*
X42703333Y-60730000D01*
X42750952Y-60777619D01*
X43703333Y-61682380D02*
X43131904Y-61682380D01*
X43417619Y-61682380D02*
X43417619Y-60682380D01*
X43322380Y-60825238D01*
X43227142Y-60920476D01*
X43131904Y-60968095D01*
X44322380Y-60682380D02*
X44417619Y-60682380D01*
X44512857Y-60730000D01*
X44560476Y-60777619D01*
X44608095Y-60872857D01*
X44655714Y-61063333D01*
X44655714Y-61301428D01*
X44608095Y-61491904D01*
X44560476Y-61587142D01*
X44512857Y-61634761D01*
X44417619Y-61682380D01*
X44322380Y-61682380D01*
X44227142Y-61634761D01*
X44179523Y-61587142D01*
X44131904Y-61491904D01*
X44084285Y-61301428D01*
X44084285Y-61063333D01*
X44131904Y-60872857D01*
X44179523Y-60777619D01*
X44227142Y-60730000D01*
X44322380Y-60682380D01*
X45036666Y-60777619D02*
X45084285Y-60730000D01*
X45179523Y-60682380D01*
X45417619Y-60682380D01*
X45512857Y-60730000D01*
X45560476Y-60777619D01*
X45608095Y-60872857D01*
X45608095Y-60968095D01*
X45560476Y-61110952D01*
X44989047Y-61682380D01*
X45608095Y-61682380D01*
X52093952Y-61793380D02*
X51760619Y-61317190D01*
X51522523Y-61793380D02*
X51522523Y-60793380D01*
X51903476Y-60793380D01*
X51998714Y-60841000D01*
X52046333Y-60888619D01*
X52093952Y-60983857D01*
X52093952Y-61126714D01*
X52046333Y-61221952D01*
X51998714Y-61269571D01*
X51903476Y-61317190D01*
X51522523Y-61317190D01*
X53046333Y-61793380D02*
X52474904Y-61793380D01*
X52760619Y-61793380D02*
X52760619Y-60793380D01*
X52665380Y-60936238D01*
X52570142Y-61031476D01*
X52474904Y-61079095D01*
X53665380Y-60793380D02*
X53760619Y-60793380D01*
X53855857Y-60841000D01*
X53903476Y-60888619D01*
X53951095Y-60983857D01*
X53998714Y-61174333D01*
X53998714Y-61412428D01*
X53951095Y-61602904D01*
X53903476Y-61698142D01*
X53855857Y-61745761D01*
X53760619Y-61793380D01*
X53665380Y-61793380D01*
X53570142Y-61745761D01*
X53522523Y-61698142D01*
X53474904Y-61602904D01*
X53427285Y-61412428D01*
X53427285Y-61174333D01*
X53474904Y-60983857D01*
X53522523Y-60888619D01*
X53570142Y-60841000D01*
X53665380Y-60793380D01*
X54379666Y-60888619D02*
X54427285Y-60841000D01*
X54522523Y-60793380D01*
X54760619Y-60793380D01*
X54855857Y-60841000D01*
X54903476Y-60888619D01*
X54951095Y-60983857D01*
X54951095Y-61079095D01*
X54903476Y-61221952D01*
X54332047Y-61793380D01*
X54951095Y-61793380D01*
X58364380Y-79605047D02*
X57888190Y-79938380D01*
X58364380Y-80176476D02*
X57364380Y-80176476D01*
X57364380Y-79795523D01*
X57412000Y-79700285D01*
X57459619Y-79652666D01*
X57554857Y-79605047D01*
X57697714Y-79605047D01*
X57792952Y-79652666D01*
X57840571Y-79700285D01*
X57888190Y-79795523D01*
X57888190Y-80176476D01*
X58364380Y-78652666D02*
X58364380Y-79224095D01*
X58364380Y-78938380D02*
X57364380Y-78938380D01*
X57507238Y-79033619D01*
X57602476Y-79128857D01*
X57650095Y-79224095D01*
X57364380Y-78033619D02*
X57364380Y-77938380D01*
X57412000Y-77843142D01*
X57459619Y-77795523D01*
X57554857Y-77747904D01*
X57745333Y-77700285D01*
X57983428Y-77700285D01*
X58173904Y-77747904D01*
X58269142Y-77795523D01*
X58316761Y-77843142D01*
X58364380Y-77938380D01*
X58364380Y-78033619D01*
X58316761Y-78128857D01*
X58269142Y-78176476D01*
X58173904Y-78224095D01*
X57983428Y-78271714D01*
X57745333Y-78271714D01*
X57554857Y-78224095D01*
X57459619Y-78176476D01*
X57412000Y-78128857D01*
X57364380Y-78033619D01*
X57697714Y-76843142D02*
X58364380Y-76843142D01*
X57316761Y-77081238D02*
X58031047Y-77319333D01*
X58031047Y-76700285D01*
X70635952Y-66195380D02*
X70302619Y-65719190D01*
X70064523Y-66195380D02*
X70064523Y-65195380D01*
X70445476Y-65195380D01*
X70540714Y-65243000D01*
X70588333Y-65290619D01*
X70635952Y-65385857D01*
X70635952Y-65528714D01*
X70588333Y-65623952D01*
X70540714Y-65671571D01*
X70445476Y-65719190D01*
X70064523Y-65719190D01*
X71588333Y-66195380D02*
X71016904Y-66195380D01*
X71302619Y-66195380D02*
X71302619Y-65195380D01*
X71207380Y-65338238D01*
X71112142Y-65433476D01*
X71016904Y-65481095D01*
X72207380Y-65195380D02*
X72302619Y-65195380D01*
X72397857Y-65243000D01*
X72445476Y-65290619D01*
X72493095Y-65385857D01*
X72540714Y-65576333D01*
X72540714Y-65814428D01*
X72493095Y-66004904D01*
X72445476Y-66100142D01*
X72397857Y-66147761D01*
X72302619Y-66195380D01*
X72207380Y-66195380D01*
X72112142Y-66147761D01*
X72064523Y-66100142D01*
X72016904Y-66004904D01*
X71969285Y-65814428D01*
X71969285Y-65576333D01*
X72016904Y-65385857D01*
X72064523Y-65290619D01*
X72112142Y-65243000D01*
X72207380Y-65195380D01*
X73397857Y-65195380D02*
X73207380Y-65195380D01*
X73112142Y-65243000D01*
X73064523Y-65290619D01*
X72969285Y-65433476D01*
X72921666Y-65623952D01*
X72921666Y-66004904D01*
X72969285Y-66100142D01*
X73016904Y-66147761D01*
X73112142Y-66195380D01*
X73302619Y-66195380D01*
X73397857Y-66147761D01*
X73445476Y-66100142D01*
X73493095Y-66004904D01*
X73493095Y-65766809D01*
X73445476Y-65671571D01*
X73397857Y-65623952D01*
X73302619Y-65576333D01*
X73112142Y-65576333D01*
X73016904Y-65623952D01*
X72969285Y-65671571D01*
X72921666Y-65766809D01*
X64911619Y-76612619D02*
X64864000Y-76707857D01*
X64768761Y-76803095D01*
X64625904Y-76945952D01*
X64578285Y-77041190D01*
X64578285Y-77136428D01*
X64816380Y-77088809D02*
X64768761Y-77184047D01*
X64673523Y-77279285D01*
X64483047Y-77326904D01*
X64149714Y-77326904D01*
X63959238Y-77279285D01*
X63864000Y-77184047D01*
X63816380Y-77088809D01*
X63816380Y-76898333D01*
X63864000Y-76803095D01*
X63959238Y-76707857D01*
X64149714Y-76660238D01*
X64483047Y-76660238D01*
X64673523Y-76707857D01*
X64768761Y-76803095D01*
X64816380Y-76898333D01*
X64816380Y-77088809D01*
X64816380Y-75707857D02*
X64816380Y-76279285D01*
X64816380Y-75993571D02*
X63816380Y-75993571D01*
X63959238Y-76088809D01*
X64054476Y-76184047D01*
X64102095Y-76279285D01*
X63816380Y-75088809D02*
X63816380Y-74993571D01*
X63864000Y-74898333D01*
X63911619Y-74850714D01*
X64006857Y-74803095D01*
X64197333Y-74755476D01*
X64435428Y-74755476D01*
X64625904Y-74803095D01*
X64721142Y-74850714D01*
X64768761Y-74898333D01*
X64816380Y-74993571D01*
X64816380Y-75088809D01*
X64768761Y-75184047D01*
X64721142Y-75231666D01*
X64625904Y-75279285D01*
X64435428Y-75326904D01*
X64197333Y-75326904D01*
X64006857Y-75279285D01*
X63911619Y-75231666D01*
X63864000Y-75184047D01*
X63816380Y-75088809D01*
X63816380Y-74422142D02*
X63816380Y-73803095D01*
X64197333Y-74136428D01*
X64197333Y-73993571D01*
X64244952Y-73898333D01*
X64292571Y-73850714D01*
X64387809Y-73803095D01*
X64625904Y-73803095D01*
X64721142Y-73850714D01*
X64768761Y-73898333D01*
X64816380Y-73993571D01*
X64816380Y-74279285D01*
X64768761Y-74374523D01*
X64721142Y-74422142D01*
X48458380Y-66333476D02*
X47458380Y-66333476D01*
X47458380Y-66095380D01*
X47506000Y-65952523D01*
X47601238Y-65857285D01*
X47696476Y-65809666D01*
X47886952Y-65762047D01*
X48029809Y-65762047D01*
X48220285Y-65809666D01*
X48315523Y-65857285D01*
X48410761Y-65952523D01*
X48458380Y-66095380D01*
X48458380Y-66333476D01*
X48458380Y-64809666D02*
X48458380Y-65381095D01*
X48458380Y-65095380D02*
X47458380Y-65095380D01*
X47601238Y-65190619D01*
X47696476Y-65285857D01*
X47744095Y-65381095D01*
X47458380Y-64190619D02*
X47458380Y-64095380D01*
X47506000Y-64000142D01*
X47553619Y-63952523D01*
X47648857Y-63904904D01*
X47839333Y-63857285D01*
X48077428Y-63857285D01*
X48267904Y-63904904D01*
X48363142Y-63952523D01*
X48410761Y-64000142D01*
X48458380Y-64095380D01*
X48458380Y-64190619D01*
X48410761Y-64285857D01*
X48363142Y-64333476D01*
X48267904Y-64381095D01*
X48077428Y-64428714D01*
X47839333Y-64428714D01*
X47648857Y-64381095D01*
X47553619Y-64333476D01*
X47506000Y-64285857D01*
X47458380Y-64190619D01*
X48458380Y-62904904D02*
X48458380Y-63476333D01*
X48458380Y-63190619D02*
X47458380Y-63190619D01*
X47601238Y-63285857D01*
X47696476Y-63381095D01*
X47744095Y-63476333D01*
X77186952Y-78692380D02*
X76853619Y-78216190D01*
X76615523Y-78692380D02*
X76615523Y-77692380D01*
X76996476Y-77692380D01*
X77091714Y-77740000D01*
X77139333Y-77787619D01*
X77186952Y-77882857D01*
X77186952Y-78025714D01*
X77139333Y-78120952D01*
X77091714Y-78168571D01*
X76996476Y-78216190D01*
X76615523Y-78216190D01*
X78139333Y-78692380D02*
X77567904Y-78692380D01*
X77853619Y-78692380D02*
X77853619Y-77692380D01*
X77758380Y-77835238D01*
X77663142Y-77930476D01*
X77567904Y-77978095D01*
X78758380Y-77692380D02*
X78853619Y-77692380D01*
X78948857Y-77740000D01*
X78996476Y-77787619D01*
X79044095Y-77882857D01*
X79091714Y-78073333D01*
X79091714Y-78311428D01*
X79044095Y-78501904D01*
X78996476Y-78597142D01*
X78948857Y-78644761D01*
X78853619Y-78692380D01*
X78758380Y-78692380D01*
X78663142Y-78644761D01*
X78615523Y-78597142D01*
X78567904Y-78501904D01*
X78520285Y-78311428D01*
X78520285Y-78073333D01*
X78567904Y-77882857D01*
X78615523Y-77787619D01*
X78663142Y-77740000D01*
X78758380Y-77692380D01*
X79567904Y-78692380D02*
X79758380Y-78692380D01*
X79853619Y-78644761D01*
X79901238Y-78597142D01*
X79996476Y-78454285D01*
X80044095Y-78263809D01*
X80044095Y-77882857D01*
X79996476Y-77787619D01*
X79948857Y-77740000D01*
X79853619Y-77692380D01*
X79663142Y-77692380D01*
X79567904Y-77740000D01*
X79520285Y-77787619D01*
X79472666Y-77882857D01*
X79472666Y-78120952D01*
X79520285Y-78216190D01*
X79567904Y-78263809D01*
X79663142Y-78311428D01*
X79853619Y-78311428D01*
X79948857Y-78263809D01*
X79996476Y-78216190D01*
X80044095Y-78120952D01*
X52093952Y-66111380D02*
X51760619Y-65635190D01*
X51522523Y-66111380D02*
X51522523Y-65111380D01*
X51903476Y-65111380D01*
X51998714Y-65159000D01*
X52046333Y-65206619D01*
X52093952Y-65301857D01*
X52093952Y-65444714D01*
X52046333Y-65539952D01*
X51998714Y-65587571D01*
X51903476Y-65635190D01*
X51522523Y-65635190D01*
X53046333Y-66111380D02*
X52474904Y-66111380D01*
X52760619Y-66111380D02*
X52760619Y-65111380D01*
X52665380Y-65254238D01*
X52570142Y-65349476D01*
X52474904Y-65397095D01*
X53665380Y-65111380D02*
X53760619Y-65111380D01*
X53855857Y-65159000D01*
X53903476Y-65206619D01*
X53951095Y-65301857D01*
X53998714Y-65492333D01*
X53998714Y-65730428D01*
X53951095Y-65920904D01*
X53903476Y-66016142D01*
X53855857Y-66063761D01*
X53760619Y-66111380D01*
X53665380Y-66111380D01*
X53570142Y-66063761D01*
X53522523Y-66016142D01*
X53474904Y-65920904D01*
X53427285Y-65730428D01*
X53427285Y-65492333D01*
X53474904Y-65301857D01*
X53522523Y-65206619D01*
X53570142Y-65159000D01*
X53665380Y-65111380D01*
X54951095Y-66111380D02*
X54379666Y-66111380D01*
X54665380Y-66111380D02*
X54665380Y-65111380D01*
X54570142Y-65254238D01*
X54474904Y-65349476D01*
X54379666Y-65397095D01*
X35534285Y-82865380D02*
X35534285Y-83579666D01*
X35486666Y-83722523D01*
X35391428Y-83817761D01*
X35248571Y-83865380D01*
X35153333Y-83865380D01*
X36534285Y-83865380D02*
X35962857Y-83865380D01*
X36248571Y-83865380D02*
X36248571Y-82865380D01*
X36153333Y-83008238D01*
X36058095Y-83103476D01*
X35962857Y-83151095D01*
X37153333Y-82865380D02*
X37248571Y-82865380D01*
X37343809Y-82913000D01*
X37391428Y-82960619D01*
X37439047Y-83055857D01*
X37486666Y-83246333D01*
X37486666Y-83484428D01*
X37439047Y-83674904D01*
X37391428Y-83770142D01*
X37343809Y-83817761D01*
X37248571Y-83865380D01*
X37153333Y-83865380D01*
X37058095Y-83817761D01*
X37010476Y-83770142D01*
X36962857Y-83674904D01*
X36915238Y-83484428D01*
X36915238Y-83246333D01*
X36962857Y-83055857D01*
X37010476Y-82960619D01*
X37058095Y-82913000D01*
X37153333Y-82865380D01*
X38343809Y-83198714D02*
X38343809Y-83865380D01*
X38105714Y-82817761D02*
X37867619Y-83532047D01*
X38486666Y-83532047D01*
D11*
X77985000Y-62350000D02*
X79255000Y-62350000D01*
X77985000Y-63620000D02*
X77985000Y-62350000D01*
X80297929Y-71620000D02*
X80695000Y-71620000D01*
X80297929Y-70860000D02*
X80695000Y-70860000D01*
X89355000Y-71620000D02*
X83355000Y-71620000D01*
X89355000Y-70860000D02*
X89355000Y-71620000D01*
X83355000Y-70860000D02*
X89355000Y-70860000D01*
X80695000Y-69970000D02*
X83355000Y-69970000D01*
X80297929Y-69080000D02*
X80695000Y-69080000D01*
X80297929Y-68320000D02*
X80695000Y-68320000D01*
X89355000Y-69080000D02*
X83355000Y-69080000D01*
X89355000Y-68320000D02*
X89355000Y-69080000D01*
X83355000Y-68320000D02*
X89355000Y-68320000D01*
X80695000Y-67430000D02*
X83355000Y-67430000D01*
X80297929Y-66540000D02*
X80695000Y-66540000D01*
X80297929Y-65780000D02*
X80695000Y-65780000D01*
X89355000Y-66540000D02*
X83355000Y-66540000D01*
X89355000Y-65780000D02*
X89355000Y-66540000D01*
X83355000Y-65780000D02*
X89355000Y-65780000D01*
X80695000Y-64890000D02*
X83355000Y-64890000D01*
X80365000Y-64000000D02*
X80695000Y-64000000D01*
X80365000Y-63240000D02*
X80695000Y-63240000D01*
X83355000Y-63900000D02*
X89355000Y-63900000D01*
X83355000Y-63780000D02*
X89355000Y-63780000D01*
X83355000Y-63660000D02*
X89355000Y-63660000D01*
X83355000Y-63540000D02*
X89355000Y-63540000D01*
X83355000Y-63420000D02*
X89355000Y-63420000D01*
X83355000Y-63300000D02*
X89355000Y-63300000D01*
X89355000Y-64000000D02*
X83355000Y-64000000D01*
X89355000Y-63240000D02*
X89355000Y-64000000D01*
X83355000Y-63240000D02*
X89355000Y-63240000D01*
X83355000Y-62290000D02*
X80695000Y-62290000D01*
X83355000Y-72570000D02*
X83355000Y-62290000D01*
X80695000Y-72570000D02*
X83355000Y-72570000D01*
X80695000Y-62290000D02*
X80695000Y-72570000D01*
X31530113Y-62914000D02*
X32030113Y-62914000D01*
X36295888Y-62690000D02*
X36295888Y-63349000D01*
X35655888Y-65429000D02*
X35655888Y-66613000D01*
X34854888Y-65429000D02*
X34854888Y-66917000D01*
X35615888Y-62142000D02*
X35615888Y-63349000D01*
X36175888Y-65429000D02*
X36175888Y-66215000D01*
X34414888Y-61810000D02*
X34414888Y-63349000D01*
X36855888Y-63712000D02*
X36855888Y-65066000D01*
X34614888Y-61824000D02*
X34614888Y-63349000D01*
X36895888Y-63871000D02*
X36895888Y-64907000D01*
X35055888Y-61909000D02*
X35055888Y-63349000D01*
X34534888Y-61816000D02*
X34534888Y-63349000D01*
X35135888Y-65429000D02*
X35135888Y-66844000D01*
X35375888Y-65429000D02*
X35375888Y-66754000D01*
X35415888Y-65429000D02*
X35415888Y-66737000D01*
X36375888Y-62784000D02*
X36375888Y-65994000D01*
X35014888Y-61898000D02*
X35014888Y-63349000D01*
X36455888Y-62889000D02*
X36455888Y-65889000D01*
X35175888Y-61947000D02*
X35175888Y-63349000D01*
X34854888Y-61861000D02*
X34854888Y-63349000D01*
X35775888Y-62240000D02*
X35775888Y-63349000D01*
X35255888Y-61975000D02*
X35255888Y-63349000D01*
X35895888Y-65429000D02*
X35895888Y-66454000D01*
X36135888Y-65429000D02*
X36135888Y-66253000D01*
X34574888Y-61820000D02*
X34574888Y-63349000D01*
X35495888Y-62079000D02*
X35495888Y-63349000D01*
X35935888Y-62354000D02*
X35935888Y-63349000D01*
X35295888Y-61991000D02*
X35295888Y-63349000D01*
X34614888Y-65429000D02*
X34614888Y-66954000D01*
X34654888Y-65429000D02*
X34654888Y-66950000D01*
X35535888Y-65429000D02*
X35535888Y-66679000D01*
X34374888Y-65429000D02*
X34374888Y-66969000D01*
X34694888Y-61833000D02*
X34694888Y-63349000D01*
X35255888Y-65429000D02*
X35255888Y-66803000D01*
X34494888Y-65429000D02*
X34494888Y-66965000D01*
X34654888Y-61828000D02*
X34654888Y-63349000D01*
X34574888Y-65429000D02*
X34574888Y-66958000D01*
X36095888Y-62488000D02*
X36095888Y-63349000D01*
X36535888Y-63006000D02*
X36535888Y-65772000D01*
X35975888Y-62385000D02*
X35975888Y-63349000D01*
X35815888Y-65429000D02*
X35815888Y-66511000D01*
X35695888Y-65429000D02*
X35695888Y-66589000D01*
X35095888Y-65429000D02*
X35095888Y-66857000D01*
X36615888Y-63138000D02*
X36615888Y-65640000D01*
X34734888Y-65429000D02*
X34734888Y-66939000D01*
X34894888Y-65429000D02*
X34894888Y-66909000D01*
X34334888Y-65429000D02*
X34334888Y-66969000D01*
X34814888Y-65429000D02*
X34814888Y-66925000D01*
X35455888Y-62060000D02*
X35455888Y-63349000D01*
X35335888Y-62007000D02*
X35335888Y-63349000D01*
X35375888Y-62024000D02*
X35375888Y-63349000D01*
X35215888Y-65429000D02*
X35215888Y-66817000D01*
X36135888Y-62525000D02*
X36135888Y-63349000D01*
X36575888Y-63070000D02*
X36575888Y-65708000D01*
X35855888Y-65429000D02*
X35855888Y-66484000D01*
X36775888Y-63474000D02*
X36775888Y-65304000D01*
X35975888Y-65429000D02*
X35975888Y-66393000D01*
X35215888Y-61961000D02*
X35215888Y-63349000D01*
X35295888Y-65429000D02*
X35295888Y-66787000D01*
X36815888Y-63584000D02*
X36815888Y-65194000D01*
X36215888Y-62604000D02*
X36215888Y-63349000D01*
X35735888Y-65429000D02*
X35735888Y-66564000D01*
X36695888Y-63291000D02*
X36695888Y-65487000D01*
X36055888Y-62452000D02*
X36055888Y-63349000D01*
X36255888Y-62646000D02*
X36255888Y-63349000D01*
X31780113Y-62664000D02*
X31780113Y-63164000D01*
X36335888Y-62736000D02*
X36335888Y-63349000D01*
X36215888Y-65429000D02*
X36215888Y-66174000D01*
X35014888Y-65429000D02*
X35014888Y-66880000D01*
X34814888Y-61853000D02*
X34814888Y-63349000D01*
X34734888Y-61839000D02*
X34734888Y-63349000D01*
X35815888Y-62267000D02*
X35815888Y-63349000D01*
X35775888Y-65429000D02*
X35775888Y-66538000D01*
X35895888Y-62324000D02*
X35895888Y-63349000D01*
X34334888Y-61809000D02*
X34334888Y-63349000D01*
X35575888Y-62121000D02*
X35575888Y-63349000D01*
X34534888Y-65429000D02*
X34534888Y-66962000D01*
X34894888Y-61869000D02*
X34894888Y-63349000D01*
X36735888Y-63378000D02*
X36735888Y-65400000D01*
X34974888Y-61888000D02*
X34974888Y-63349000D01*
X35615888Y-65429000D02*
X35615888Y-66636000D01*
X35455888Y-65429000D02*
X35455888Y-66718000D01*
X34694888Y-65429000D02*
X34694888Y-66945000D01*
X35935888Y-65429000D02*
X35935888Y-66424000D01*
X35135888Y-61934000D02*
X35135888Y-63349000D01*
X34934888Y-65429000D02*
X34934888Y-66900000D01*
X35695888Y-62189000D02*
X35695888Y-63349000D01*
X36015888Y-65429000D02*
X36015888Y-66360000D01*
X35735888Y-62214000D02*
X35735888Y-63349000D01*
X34454888Y-61811000D02*
X34454888Y-63349000D01*
X36015888Y-62418000D02*
X36015888Y-63349000D01*
X36095888Y-65429000D02*
X36095888Y-66290000D01*
X34774888Y-65429000D02*
X34774888Y-66932000D01*
X35095888Y-61921000D02*
X35095888Y-63349000D01*
X35655888Y-62165000D02*
X35655888Y-63349000D01*
X36935888Y-64105000D02*
X36935888Y-64673000D01*
X34414888Y-65429000D02*
X34414888Y-66968000D01*
X35175888Y-65429000D02*
X35175888Y-66831000D01*
X34774888Y-61846000D02*
X34774888Y-63349000D01*
X35855888Y-62294000D02*
X35855888Y-63349000D01*
X34974888Y-65429000D02*
X34974888Y-66890000D01*
X36175888Y-62563000D02*
X36175888Y-63349000D01*
X35535888Y-62099000D02*
X35535888Y-63349000D01*
X36655888Y-63211000D02*
X36655888Y-65567000D01*
X34454888Y-65429000D02*
X34454888Y-66967000D01*
X36415888Y-62835000D02*
X36415888Y-65943000D01*
X35495888Y-65429000D02*
X35495888Y-66699000D01*
X34494888Y-61813000D02*
X34494888Y-63349000D01*
X34374888Y-61809000D02*
X34374888Y-63349000D01*
X36295888Y-65429000D02*
X36295888Y-66088000D01*
X36255888Y-65429000D02*
X36255888Y-66132000D01*
X36335888Y-65429000D02*
X36335888Y-66042000D01*
X35575888Y-65429000D02*
X35575888Y-66657000D01*
X35335888Y-65429000D02*
X35335888Y-66771000D01*
X36495888Y-62946000D02*
X36495888Y-65832000D01*
X34934888Y-61878000D02*
X34934888Y-63349000D01*
X36055888Y-65429000D02*
X36055888Y-66326000D01*
X35055888Y-65429000D02*
X35055888Y-66869000D01*
X35415888Y-62041000D02*
X35415888Y-63349000D01*
X36954888Y-64389000D02*
G75*
G03*
X36954888Y-64389000I-2620000J0D01*
G01*
X72612000Y-79275000D02*
X66072000Y-79275000D01*
X65302000Y-80645000D02*
X66072000Y-80645000D01*
X66072000Y-79275000D02*
X66072000Y-82015000D01*
X72612000Y-82015000D02*
X72612000Y-79275000D01*
X73382000Y-80645000D02*
X72612000Y-80645000D01*
X66072000Y-82015000D02*
X72612000Y-82015000D01*
X69795000Y-70761000D02*
X69795000Y-67161000D01*
X69783478Y-67122522D02*
G75*
G03*
X65345000Y-68961000I-1838478J-1838478D01*
G01*
X65344999Y-68961000D02*
G75*
G03*
X69783478Y-70799478I2600001J0D01*
G01*
X58955000Y-72549000D02*
X58955000Y-79089000D01*
X58955000Y-79089000D02*
X61695000Y-79089000D01*
X60325000Y-79859000D02*
X60325000Y-79089000D01*
X61695000Y-72549000D02*
X58955000Y-72549000D01*
X60325000Y-71779000D02*
X60325000Y-72549000D01*
X61695000Y-79089000D02*
X61695000Y-72549000D01*
X75665000Y-68612000D02*
X72925000Y-68612000D01*
X72925000Y-68612000D02*
X72925000Y-75152000D01*
X72925000Y-75152000D02*
X75665000Y-75152000D01*
X74295000Y-75922000D02*
X74295000Y-75152000D01*
X74295000Y-67842000D02*
X74295000Y-68612000D01*
X75665000Y-75152000D02*
X75665000Y-68612000D01*
X44018000Y-75162000D02*
X44018000Y-78762000D01*
X44029522Y-78800478D02*
G75*
G03*
X48468000Y-76962000I1838478J1838478D01*
G01*
X48468001Y-76962000D02*
G75*
G03*
X44029522Y-75123522I-2600001J0D01*
G01*
X52297000Y-79089000D02*
X52297000Y-72549000D01*
X49557000Y-79089000D02*
X52297000Y-79089000D01*
X49557000Y-72549000D02*
X49557000Y-79089000D01*
X50927000Y-79859000D02*
X50927000Y-79089000D01*
X52297000Y-72549000D02*
X49557000Y-72549000D01*
X50927000Y-71779000D02*
X50927000Y-72549000D01*
X39600000Y-66241888D02*
X38669000Y-66241888D01*
X41317000Y-67081888D02*
X39963000Y-67081888D01*
X42194000Y-66641888D02*
X39086000Y-66641888D01*
X39600000Y-66081888D02*
X38545000Y-66081888D01*
X39600000Y-65080888D02*
X38112000Y-65080888D01*
X42815000Y-65961888D02*
X41680000Y-65961888D01*
X41651000Y-66961888D02*
X39629000Y-66961888D01*
X43196000Y-64920888D02*
X41680000Y-64920888D01*
X39600000Y-65040888D02*
X38104000Y-65040888D01*
X42988000Y-65641888D02*
X41680000Y-65641888D01*
X43218000Y-64680888D02*
X41680000Y-64680888D01*
X42762000Y-66041888D02*
X41680000Y-66041888D01*
X42735000Y-66081888D02*
X41680000Y-66081888D01*
X39600000Y-65200888D02*
X38139000Y-65200888D01*
X39600000Y-65961888D02*
X38465000Y-65961888D01*
X43022000Y-65561888D02*
X41680000Y-65561888D01*
X39600000Y-65881888D02*
X38416000Y-65881888D01*
X42644000Y-66201888D02*
X41680000Y-66201888D01*
X42115000Y-61756113D02*
X42115000Y-62256113D01*
X39600000Y-65401888D02*
X38198000Y-65401888D01*
X43176000Y-65040888D02*
X41680000Y-65040888D01*
X41445000Y-67041888D02*
X39835000Y-67041888D01*
X39600000Y-66401888D02*
X38814000Y-66401888D01*
X41555000Y-67001888D02*
X39725000Y-67001888D01*
X43005000Y-65601888D02*
X41680000Y-65601888D01*
X39600000Y-65160888D02*
X38129000Y-65160888D01*
X39600000Y-66041888D02*
X38518000Y-66041888D01*
X42789000Y-66001888D02*
X41680000Y-66001888D01*
X43219000Y-64640888D02*
X41680000Y-64640888D01*
X39600000Y-64600888D02*
X38060000Y-64600888D01*
X42339000Y-66521888D02*
X41680000Y-66521888D01*
X39600000Y-65721888D02*
X38330000Y-65721888D01*
X43120000Y-65281888D02*
X41680000Y-65281888D01*
X43216000Y-64720888D02*
X41680000Y-64720888D01*
X39600000Y-65921888D02*
X38440000Y-65921888D01*
X39600000Y-64720888D02*
X38064000Y-64720888D01*
X42245000Y-66601888D02*
X39035000Y-66601888D01*
X43160000Y-65120888D02*
X41680000Y-65120888D01*
X39600000Y-66481888D02*
X38897000Y-66481888D01*
X42705000Y-66121888D02*
X41680000Y-66121888D01*
X39600000Y-65000888D02*
X38097000Y-65000888D01*
X43131000Y-65240888D02*
X41680000Y-65240888D01*
X39600000Y-66361888D02*
X38776000Y-66361888D01*
X39600000Y-64800888D02*
X38071000Y-64800888D01*
X41818000Y-66881888D02*
X39462000Y-66881888D01*
X43068000Y-65441888D02*
X41680000Y-65441888D01*
X43082000Y-65401888D02*
X41680000Y-65401888D01*
X39600000Y-66161888D02*
X38605000Y-66161888D01*
X41738000Y-66921888D02*
X39542000Y-66921888D01*
X39600000Y-65761888D02*
X38350000Y-65761888D01*
X42950000Y-65721888D02*
X41680000Y-65721888D01*
X39600000Y-64920888D02*
X38084000Y-64920888D01*
X42504000Y-66361888D02*
X41680000Y-66361888D01*
X42864000Y-65881888D02*
X41680000Y-65881888D01*
X39600000Y-66201888D02*
X38636000Y-66201888D01*
X39600000Y-66281888D02*
X38703000Y-66281888D01*
X39600000Y-65321888D02*
X38172000Y-65321888D01*
X39600000Y-65281888D02*
X38160000Y-65281888D01*
X39600000Y-64880888D02*
X38079000Y-64880888D01*
X39600000Y-65481888D02*
X38226000Y-65481888D01*
X42611000Y-66241888D02*
X41680000Y-66241888D01*
X43220000Y-64560888D02*
X41680000Y-64560888D01*
X39600000Y-65841888D02*
X38393000Y-65841888D01*
X43213000Y-64760888D02*
X41680000Y-64760888D01*
X43095000Y-65361888D02*
X41680000Y-65361888D01*
X39600000Y-65801888D02*
X38372000Y-65801888D01*
X42930000Y-65761888D02*
X41680000Y-65761888D01*
X39600000Y-65240888D02*
X38149000Y-65240888D01*
X39600000Y-64760888D02*
X38067000Y-64760888D01*
X43108000Y-65321888D02*
X41680000Y-65321888D01*
X39600000Y-66561888D02*
X38987000Y-66561888D01*
X42023000Y-66761888D02*
X39257000Y-66761888D01*
X43054000Y-65481888D02*
X41680000Y-65481888D01*
X42293000Y-66561888D02*
X41680000Y-66561888D01*
X41959000Y-66801888D02*
X39321000Y-66801888D01*
X43209000Y-64800888D02*
X41680000Y-64800888D01*
X39600000Y-66121888D02*
X38575000Y-66121888D01*
X42365000Y-62006113D02*
X41865000Y-62006113D01*
X39600000Y-64640888D02*
X38061000Y-64640888D01*
X42577000Y-66281888D02*
X41680000Y-66281888D01*
X43183000Y-65000888D02*
X41680000Y-65000888D01*
X39600000Y-65641888D02*
X38292000Y-65641888D01*
X42908000Y-65801888D02*
X41680000Y-65801888D01*
X42425000Y-66441888D02*
X41680000Y-66441888D01*
X42969000Y-65681888D02*
X41680000Y-65681888D01*
X39600000Y-65601888D02*
X38275000Y-65601888D01*
X39600000Y-64960888D02*
X38090000Y-64960888D01*
X39600000Y-65561888D02*
X38258000Y-65561888D01*
X42675000Y-66161888D02*
X41680000Y-66161888D01*
X42466000Y-66401888D02*
X41680000Y-66401888D01*
X39600000Y-66521888D02*
X38941000Y-66521888D01*
X39600000Y-64840888D02*
X38075000Y-64840888D01*
X40924000Y-67161888D02*
X40356000Y-67161888D01*
X39600000Y-65441888D02*
X38212000Y-65441888D01*
X39600000Y-66001888D02*
X38491000Y-66001888D01*
X42887000Y-65841888D02*
X41680000Y-65841888D01*
X43151000Y-65160888D02*
X41680000Y-65160888D01*
X39600000Y-65120888D02*
X38120000Y-65120888D01*
X42083000Y-66721888D02*
X39197000Y-66721888D01*
X39600000Y-66321888D02*
X38739000Y-66321888D01*
X39600000Y-66441888D02*
X38855000Y-66441888D01*
X43205000Y-64840888D02*
X41680000Y-64840888D01*
X42840000Y-65921888D02*
X41680000Y-65921888D01*
X43168000Y-65080888D02*
X41680000Y-65080888D01*
X42140000Y-66681888D02*
X39140000Y-66681888D01*
X43201000Y-64880888D02*
X41680000Y-64880888D01*
X41891000Y-66841888D02*
X39389000Y-66841888D01*
X39600000Y-64680888D02*
X38062000Y-64680888D01*
X43220000Y-64600888D02*
X41680000Y-64600888D01*
X43141000Y-65200888D02*
X41680000Y-65200888D01*
X41158000Y-67121888D02*
X40122000Y-67121888D01*
X39600000Y-64560888D02*
X38060000Y-64560888D01*
X43038000Y-65521888D02*
X41680000Y-65521888D01*
X42541000Y-66321888D02*
X41680000Y-66321888D01*
X39600000Y-65681888D02*
X38311000Y-65681888D01*
X43190000Y-64960888D02*
X41680000Y-64960888D01*
X39600000Y-65361888D02*
X38185000Y-65361888D01*
X39600000Y-65521888D02*
X38242000Y-65521888D01*
X42383000Y-66481888D02*
X41680000Y-66481888D01*
X43260000Y-64560888D02*
G75*
G03*
X43260000Y-64560888I-2620000J0D01*
G01*
X59793000Y-63373000D02*
X59023000Y-63373000D01*
X59023000Y-64743000D02*
X59023000Y-62003000D01*
X52483000Y-62003000D02*
X52483000Y-64743000D01*
X52483000Y-64743000D02*
X59023000Y-64743000D01*
X59023000Y-62003000D02*
X52483000Y-62003000D01*
X51713000Y-63373000D02*
X52483000Y-63373000D01*
X54256000Y-79089000D02*
X56996000Y-79089000D01*
X54256000Y-72549000D02*
X54256000Y-79089000D01*
X55626000Y-79859000D02*
X55626000Y-79089000D01*
X56996000Y-79089000D02*
X56996000Y-72549000D01*
X55626000Y-71779000D02*
X55626000Y-72549000D01*
X56996000Y-72549000D02*
X54256000Y-72549000D01*
X73255000Y-63373000D02*
X72485000Y-63373000D01*
X65945000Y-64743000D02*
X72485000Y-64743000D01*
X65945000Y-62003000D02*
X65945000Y-64743000D01*
X72485000Y-64743000D02*
X72485000Y-62003000D01*
X72485000Y-62003000D02*
X65945000Y-62003000D01*
X65175000Y-63373000D02*
X65945000Y-63373000D01*
X69774000Y-77365000D02*
X69774000Y-73765000D01*
X65323999Y-75565000D02*
G75*
G03*
X69762478Y-77403478I2600001J0D01*
G01*
X69762478Y-73726522D02*
G75*
G03*
X65324000Y-75565000I-1838478J-1838478D01*
G01*
X45974000Y-64413000D02*
X45974000Y-65063000D01*
X47094000Y-69303000D02*
X47094000Y-65063000D01*
X44854000Y-69303000D02*
X47094000Y-69303000D01*
X44854000Y-68463000D02*
X47094000Y-68463000D01*
X44854000Y-65063000D02*
X44854000Y-69303000D01*
X44854000Y-68583000D02*
X47094000Y-68583000D01*
X45974000Y-69953000D02*
X45974000Y-69303000D01*
X44854000Y-68703000D02*
X47094000Y-68703000D01*
X47094000Y-65063000D02*
X44854000Y-65063000D01*
X86410000Y-80610000D02*
X85640000Y-80610000D01*
X85640000Y-81980000D02*
X85640000Y-79240000D01*
X78330000Y-80610000D02*
X79100000Y-80610000D01*
X79100000Y-81980000D02*
X85640000Y-81980000D01*
X85640000Y-79240000D02*
X79100000Y-79240000D01*
X79100000Y-79240000D02*
X79100000Y-81980000D01*
X52483000Y-66321000D02*
X52483000Y-69061000D01*
X59023000Y-66321000D02*
X52483000Y-66321000D01*
X59793000Y-67691000D02*
X59023000Y-67691000D01*
X52483000Y-69061000D02*
X59023000Y-69061000D01*
X59023000Y-69061000D02*
X59023000Y-66321000D01*
X51713000Y-67691000D02*
X52483000Y-67691000D01*
X37105000Y-80863000D02*
X31105000Y-80863000D01*
X31105000Y-81523000D02*
X31105000Y-80763000D01*
X40162071Y-78983000D02*
X39765000Y-78983000D01*
X40095000Y-80763000D02*
X39765000Y-80763000D01*
X37105000Y-81103000D02*
X31105000Y-81103000D01*
X31105000Y-78223000D02*
X37105000Y-78223000D01*
X37105000Y-82473000D02*
X39765000Y-82473000D01*
X37105000Y-81343000D02*
X31105000Y-81343000D01*
X31105000Y-78983000D02*
X31105000Y-78223000D01*
X40162071Y-73903000D02*
X39765000Y-73903000D01*
X37105000Y-81223000D02*
X31105000Y-81223000D01*
X39765000Y-74793000D02*
X37105000Y-74793000D01*
X39765000Y-82473000D02*
X39765000Y-72193000D01*
X39765000Y-77333000D02*
X37105000Y-77333000D01*
X40162071Y-73143000D02*
X39765000Y-73143000D01*
X40162071Y-75683000D02*
X39765000Y-75683000D01*
X37105000Y-80983000D02*
X31105000Y-80983000D01*
X31105000Y-73143000D02*
X37105000Y-73143000D01*
X40095000Y-81523000D02*
X39765000Y-81523000D01*
X42475000Y-81143000D02*
X42475000Y-82413000D01*
X39765000Y-72193000D02*
X37105000Y-72193000D01*
X37105000Y-81463000D02*
X31105000Y-81463000D01*
X42475000Y-82413000D02*
X41205000Y-82413000D01*
X37105000Y-72193000D02*
X37105000Y-82473000D01*
X37105000Y-78983000D02*
X31105000Y-78983000D01*
X31105000Y-73903000D02*
X31105000Y-73143000D01*
X40162071Y-76443000D02*
X39765000Y-76443000D01*
X37105000Y-73903000D02*
X31105000Y-73903000D01*
X31105000Y-80763000D02*
X37105000Y-80763000D01*
X31105000Y-75683000D02*
X37105000Y-75683000D01*
X37105000Y-76443000D02*
X31105000Y-76443000D01*
X40162071Y-78223000D02*
X39765000Y-78223000D01*
X39765000Y-79873000D02*
X37105000Y-79873000D01*
X37105000Y-81523000D02*
X31105000Y-81523000D01*
X31105000Y-76443000D02*
X31105000Y-75683000D01*
M02*
