G04 #@! TF.GenerationSoftware,KiCad,Pcbnew,6.0.0-d3dd2cf0fa~116~ubuntu20.04.1*
G04 #@! TF.CreationDate,2022-01-14T17:03:29+00:00*
G04 #@! TF.ProjectId,videopac_composite,76696465-6f70-4616-935f-636f6d706f73,rev?*
G04 #@! TF.SameCoordinates,Original*
G04 #@! TF.FileFunction,Copper,L1,Top*
G04 #@! TF.FilePolarity,Positive*
%FSLAX46Y46*%
G04 Gerber Fmt 4.6, Leading zero omitted, Abs format (unit mm)*
G04 Created by KiCad (PCBNEW 6.0.0-d3dd2cf0fa~116~ubuntu20.04.1) date 2022-01-14 17:03:29*
%MOMM*%
%LPD*%
G01*
G04 APERTURE LIST*
G04 #@! TA.AperFunction,ComponentPad*
%ADD10O,1.700000X1.700000*%
G04 #@! TD*
G04 #@! TA.AperFunction,ComponentPad*
%ADD11R,1.700000X1.700000*%
G04 #@! TD*
G04 #@! TA.AperFunction,ComponentPad*
%ADD12R,1.600000X1.600000*%
G04 #@! TD*
G04 #@! TA.AperFunction,ComponentPad*
%ADD13C,1.600000*%
G04 #@! TD*
G04 #@! TA.AperFunction,ComponentPad*
%ADD14O,1.600000X1.600000*%
G04 #@! TD*
G04 #@! TA.AperFunction,ComponentPad*
%ADD15R,1.500000X1.050000*%
G04 #@! TD*
G04 #@! TA.AperFunction,ComponentPad*
%ADD16O,1.500000X1.050000*%
G04 #@! TD*
G04 #@! TA.AperFunction,Conductor*
%ADD17C,0.500000*%
G04 #@! TD*
G04 APERTURE END LIST*
D10*
X79255000Y-71240000D03*
X79255000Y-68700000D03*
X79255000Y-66160000D03*
D11*
X79255000Y-63620000D03*
D12*
X33334888Y-64389000D03*
D13*
X35334888Y-64389000D03*
X64262000Y-80645000D03*
D14*
X74422000Y-80645000D03*
D15*
X67945000Y-70231000D03*
D16*
X67945000Y-68961000D03*
X67945000Y-67691000D03*
D13*
X60325000Y-70739000D03*
D14*
X60325000Y-80899000D03*
D13*
X74295000Y-66802000D03*
D14*
X74295000Y-76962000D03*
D15*
X45868000Y-75692000D03*
D16*
X45868000Y-76962000D03*
X45868000Y-78232000D03*
D13*
X50927000Y-80899000D03*
D14*
X50927000Y-70739000D03*
D12*
X40640000Y-63560888D03*
D13*
X40640000Y-65560888D03*
X50673000Y-63373000D03*
D14*
X60833000Y-63373000D03*
D13*
X55626000Y-80899000D03*
D14*
X55626000Y-70739000D03*
D13*
X74295000Y-63373000D03*
D14*
X64135000Y-63373000D03*
D15*
X67924000Y-76835000D03*
D16*
X67924000Y-75565000D03*
X67924000Y-74295000D03*
D12*
X45974000Y-70993000D03*
D14*
X45974000Y-63373000D03*
D13*
X77290000Y-80610000D03*
D14*
X87450000Y-80610000D03*
D13*
X60833000Y-67691000D03*
D14*
X50673000Y-67691000D03*
D11*
X41205000Y-81143000D03*
D10*
X41205000Y-78603000D03*
X41205000Y-76063000D03*
X41205000Y-73523000D03*
D17*
X60833000Y-67691000D02*
X61632999Y-68490999D01*
X61632999Y-68490999D02*
X61632999Y-71342999D01*
X61632999Y-71342999D02*
X67125000Y-76835000D01*
X67125000Y-76835000D02*
X67924000Y-76835000D01*
X50927000Y-80899000D02*
X50927000Y-77597000D01*
X50927000Y-77597000D02*
X60833000Y-67691000D01*
X41205000Y-78603000D02*
X43501000Y-80899000D01*
X43501000Y-80899000D02*
X50927000Y-80899000D01*
X60833000Y-67691000D02*
X67945000Y-67691000D01*
G04 #@! TA.AperFunction,Conductor*
G36*
X90366121Y-60853002D02*
G01*
X90412614Y-60906658D01*
X90424000Y-60959000D01*
X90424000Y-83567000D01*
X90403998Y-83635121D01*
X90350342Y-83681614D01*
X90298000Y-83693000D01*
X30479000Y-83693000D01*
X30410879Y-83672998D01*
X30364386Y-83619342D01*
X30353000Y-83567000D01*
X30353000Y-78569695D01*
X39842251Y-78569695D01*
X39842548Y-78574848D01*
X39842548Y-78574851D01*
X39848011Y-78669590D01*
X39855110Y-78792715D01*
X39856247Y-78797761D01*
X39856248Y-78797767D01*
X39871624Y-78865991D01*
X39904222Y-79010639D01*
X39940460Y-79099883D01*
X39975641Y-79186523D01*
X39988266Y-79217616D01*
X40017425Y-79265199D01*
X40086862Y-79378510D01*
X40104987Y-79408088D01*
X40251250Y-79576938D01*
X40255230Y-79580242D01*
X40259981Y-79584187D01*
X40299616Y-79643090D01*
X40301113Y-79714071D01*
X40263997Y-79774593D01*
X40223725Y-79799112D01*
X40134066Y-79832724D01*
X40108295Y-79842385D01*
X39991739Y-79929739D01*
X39904385Y-80046295D01*
X39853255Y-80182684D01*
X39846500Y-80244866D01*
X39846500Y-82041134D01*
X39853255Y-82103316D01*
X39904385Y-82239705D01*
X39991739Y-82356261D01*
X40108295Y-82443615D01*
X40244684Y-82494745D01*
X40306866Y-82501500D01*
X42103134Y-82501500D01*
X42165316Y-82494745D01*
X42301705Y-82443615D01*
X42418261Y-82356261D01*
X42505615Y-82239705D01*
X42556745Y-82103316D01*
X42563500Y-82041134D01*
X42563500Y-81338371D01*
X42583502Y-81270250D01*
X42637158Y-81223757D01*
X42707432Y-81213653D01*
X42772012Y-81243147D01*
X42778595Y-81249276D01*
X42917230Y-81387911D01*
X42929616Y-81402323D01*
X42938149Y-81413918D01*
X42938154Y-81413923D01*
X42942492Y-81419818D01*
X42948070Y-81424557D01*
X42948073Y-81424560D01*
X42982768Y-81454035D01*
X42990284Y-81460965D01*
X42995979Y-81466660D01*
X42998861Y-81468940D01*
X43018251Y-81484281D01*
X43021655Y-81487072D01*
X43024278Y-81489300D01*
X43077285Y-81534333D01*
X43083801Y-81537661D01*
X43088850Y-81541028D01*
X43093979Y-81544195D01*
X43099716Y-81548734D01*
X43165875Y-81579655D01*
X43169769Y-81581558D01*
X43234808Y-81614769D01*
X43241916Y-81616508D01*
X43247559Y-81618607D01*
X43253322Y-81620524D01*
X43259950Y-81623622D01*
X43267112Y-81625112D01*
X43267113Y-81625112D01*
X43331412Y-81638486D01*
X43335696Y-81639456D01*
X43406610Y-81656808D01*
X43412212Y-81657156D01*
X43412215Y-81657156D01*
X43417764Y-81657500D01*
X43417762Y-81657536D01*
X43421755Y-81657775D01*
X43425947Y-81658149D01*
X43433115Y-81659640D01*
X43510520Y-81657546D01*
X43513928Y-81657500D01*
X49795133Y-81657500D01*
X49863254Y-81677502D01*
X49898345Y-81711228D01*
X49920802Y-81743300D01*
X50082700Y-81905198D01*
X50087208Y-81908355D01*
X50087211Y-81908357D01*
X50158136Y-81958019D01*
X50270251Y-82036523D01*
X50275233Y-82038846D01*
X50275238Y-82038849D01*
X50429357Y-82110715D01*
X50477757Y-82133284D01*
X50483065Y-82134706D01*
X50483067Y-82134707D01*
X50693598Y-82191119D01*
X50693600Y-82191119D01*
X50698913Y-82192543D01*
X50927000Y-82212498D01*
X51155087Y-82192543D01*
X51160400Y-82191119D01*
X51160402Y-82191119D01*
X51370933Y-82134707D01*
X51370935Y-82134706D01*
X51376243Y-82133284D01*
X51424643Y-82110715D01*
X51578762Y-82038849D01*
X51578767Y-82038846D01*
X51583749Y-82036523D01*
X51695864Y-81958019D01*
X51766789Y-81908357D01*
X51766792Y-81908355D01*
X51771300Y-81905198D01*
X51933198Y-81743300D01*
X51957862Y-81708077D01*
X52022196Y-81616198D01*
X52064523Y-81555749D01*
X52066846Y-81550767D01*
X52066849Y-81550762D01*
X52158961Y-81353225D01*
X52158961Y-81353224D01*
X52161284Y-81348243D01*
X52165769Y-81331507D01*
X52219119Y-81132402D01*
X52219119Y-81132400D01*
X52220543Y-81127087D01*
X52240498Y-80899000D01*
X54312502Y-80899000D01*
X54332457Y-81127087D01*
X54333881Y-81132400D01*
X54333881Y-81132402D01*
X54387232Y-81331507D01*
X54391716Y-81348243D01*
X54394039Y-81353224D01*
X54394039Y-81353225D01*
X54486151Y-81550762D01*
X54486154Y-81550767D01*
X54488477Y-81555749D01*
X54530804Y-81616198D01*
X54595139Y-81708077D01*
X54619802Y-81743300D01*
X54781700Y-81905198D01*
X54786208Y-81908355D01*
X54786211Y-81908357D01*
X54857136Y-81958019D01*
X54969251Y-82036523D01*
X54974233Y-82038846D01*
X54974238Y-82038849D01*
X55128357Y-82110715D01*
X55176757Y-82133284D01*
X55182065Y-82134706D01*
X55182067Y-82134707D01*
X55392598Y-82191119D01*
X55392600Y-82191119D01*
X55397913Y-82192543D01*
X55626000Y-82212498D01*
X55854087Y-82192543D01*
X55859400Y-82191119D01*
X55859402Y-82191119D01*
X56069933Y-82134707D01*
X56069935Y-82134706D01*
X56075243Y-82133284D01*
X56123643Y-82110715D01*
X56277762Y-82038849D01*
X56277767Y-82038846D01*
X56282749Y-82036523D01*
X56394864Y-81958019D01*
X56465789Y-81908357D01*
X56465792Y-81908355D01*
X56470300Y-81905198D01*
X56632198Y-81743300D01*
X56656862Y-81708077D01*
X56721196Y-81616198D01*
X56763523Y-81555749D01*
X56765846Y-81550767D01*
X56765849Y-81550762D01*
X56857961Y-81353225D01*
X56857961Y-81353224D01*
X56860284Y-81348243D01*
X56864769Y-81331507D01*
X56909245Y-81165522D01*
X59042273Y-81165522D01*
X59089764Y-81342761D01*
X59093510Y-81353053D01*
X59185586Y-81550511D01*
X59191069Y-81560007D01*
X59316028Y-81738467D01*
X59323084Y-81746875D01*
X59477125Y-81900916D01*
X59485533Y-81907972D01*
X59663993Y-82032931D01*
X59673489Y-82038414D01*
X59870947Y-82130490D01*
X59881239Y-82134236D01*
X60053503Y-82180394D01*
X60067599Y-82180058D01*
X60071000Y-82172116D01*
X60071000Y-82166967D01*
X60579000Y-82166967D01*
X60582973Y-82180498D01*
X60591522Y-82181727D01*
X60768761Y-82134236D01*
X60779053Y-82130490D01*
X60976511Y-82038414D01*
X60986007Y-82032931D01*
X61164467Y-81907972D01*
X61172875Y-81900916D01*
X61326916Y-81746875D01*
X61333972Y-81738467D01*
X61458931Y-81560007D01*
X61464414Y-81550511D01*
X61556490Y-81353053D01*
X61560236Y-81342761D01*
X61606394Y-81170497D01*
X61606058Y-81156401D01*
X61598116Y-81153000D01*
X60597115Y-81153000D01*
X60581876Y-81157475D01*
X60580671Y-81158865D01*
X60579000Y-81166548D01*
X60579000Y-82166967D01*
X60071000Y-82166967D01*
X60071000Y-81171115D01*
X60066525Y-81155876D01*
X60065135Y-81154671D01*
X60057452Y-81153000D01*
X59057033Y-81153000D01*
X59043502Y-81156973D01*
X59042273Y-81165522D01*
X56909245Y-81165522D01*
X56918119Y-81132402D01*
X56918119Y-81132400D01*
X56919543Y-81127087D01*
X56939498Y-80899000D01*
X56919543Y-80670913D01*
X56909244Y-80632478D01*
X56907911Y-80627503D01*
X59043606Y-80627503D01*
X59043942Y-80641599D01*
X59051884Y-80645000D01*
X60052885Y-80645000D01*
X60068124Y-80640525D01*
X60069329Y-80639135D01*
X60071000Y-80631452D01*
X60071000Y-80626885D01*
X60579000Y-80626885D01*
X60583475Y-80642124D01*
X60584865Y-80643329D01*
X60592548Y-80645000D01*
X61592967Y-80645000D01*
X62948502Y-80645000D01*
X62968457Y-80873087D01*
X62969881Y-80878400D01*
X62969881Y-80878402D01*
X63019673Y-81064225D01*
X63027716Y-81094243D01*
X63030039Y-81099224D01*
X63030039Y-81099225D01*
X63122151Y-81296762D01*
X63122154Y-81296767D01*
X63124477Y-81301749D01*
X63189531Y-81394655D01*
X63252288Y-81484281D01*
X63255802Y-81489300D01*
X63417700Y-81651198D01*
X63422208Y-81654355D01*
X63422211Y-81654357D01*
X63498931Y-81708077D01*
X63605251Y-81782523D01*
X63610233Y-81784846D01*
X63610238Y-81784849D01*
X63739740Y-81845236D01*
X63812757Y-81879284D01*
X63818065Y-81880706D01*
X63818067Y-81880707D01*
X64028598Y-81937119D01*
X64028600Y-81937119D01*
X64033913Y-81938543D01*
X64262000Y-81958498D01*
X64490087Y-81938543D01*
X64495400Y-81937119D01*
X64495402Y-81937119D01*
X64705933Y-81880707D01*
X64705935Y-81880706D01*
X64711243Y-81879284D01*
X64784260Y-81845236D01*
X64913762Y-81784849D01*
X64913767Y-81784846D01*
X64918749Y-81782523D01*
X65025069Y-81708077D01*
X65101789Y-81654357D01*
X65101792Y-81654355D01*
X65106300Y-81651198D01*
X65268198Y-81489300D01*
X65271713Y-81484281D01*
X65334469Y-81394655D01*
X65399523Y-81301749D01*
X65401846Y-81296767D01*
X65401849Y-81296762D01*
X65493961Y-81099225D01*
X65493961Y-81099224D01*
X65496284Y-81094243D01*
X65504328Y-81064225D01*
X65554119Y-80878402D01*
X65554119Y-80878400D01*
X65555543Y-80873087D01*
X65575498Y-80645000D01*
X73108502Y-80645000D01*
X73128457Y-80873087D01*
X73129881Y-80878400D01*
X73129881Y-80878402D01*
X73179673Y-81064225D01*
X73187716Y-81094243D01*
X73190039Y-81099224D01*
X73190039Y-81099225D01*
X73282151Y-81296762D01*
X73282154Y-81296767D01*
X73284477Y-81301749D01*
X73349531Y-81394655D01*
X73412288Y-81484281D01*
X73415802Y-81489300D01*
X73577700Y-81651198D01*
X73582208Y-81654355D01*
X73582211Y-81654357D01*
X73658931Y-81708077D01*
X73765251Y-81782523D01*
X73770233Y-81784846D01*
X73770238Y-81784849D01*
X73899740Y-81845236D01*
X73972757Y-81879284D01*
X73978065Y-81880706D01*
X73978067Y-81880707D01*
X74188598Y-81937119D01*
X74188600Y-81937119D01*
X74193913Y-81938543D01*
X74422000Y-81958498D01*
X74650087Y-81938543D01*
X74655400Y-81937119D01*
X74655402Y-81937119D01*
X74865933Y-81880707D01*
X74865935Y-81880706D01*
X74871243Y-81879284D01*
X74944260Y-81845236D01*
X75073762Y-81784849D01*
X75073767Y-81784846D01*
X75078749Y-81782523D01*
X75185069Y-81708077D01*
X75202228Y-81696062D01*
X76568493Y-81696062D01*
X76577789Y-81708077D01*
X76628994Y-81743931D01*
X76638489Y-81749414D01*
X76835947Y-81841490D01*
X76846239Y-81845236D01*
X77056688Y-81901625D01*
X77067481Y-81903528D01*
X77284525Y-81922517D01*
X77295475Y-81922517D01*
X77512519Y-81903528D01*
X77523312Y-81901625D01*
X77733761Y-81845236D01*
X77744053Y-81841490D01*
X77941511Y-81749414D01*
X77951006Y-81743931D01*
X78003048Y-81707491D01*
X78011424Y-81697012D01*
X78004356Y-81683566D01*
X77302812Y-80982022D01*
X77288868Y-80974408D01*
X77287035Y-80974539D01*
X77280420Y-80978790D01*
X76574923Y-81684287D01*
X76568493Y-81696062D01*
X75202228Y-81696062D01*
X75261789Y-81654357D01*
X75261792Y-81654355D01*
X75266300Y-81651198D01*
X75428198Y-81489300D01*
X75431713Y-81484281D01*
X75494469Y-81394655D01*
X75559523Y-81301749D01*
X75561846Y-81296767D01*
X75561849Y-81296762D01*
X75653961Y-81099225D01*
X75653961Y-81099224D01*
X75656284Y-81094243D01*
X75664328Y-81064225D01*
X75714119Y-80878402D01*
X75714119Y-80878400D01*
X75715543Y-80873087D01*
X75732261Y-80681999D01*
X75753144Y-80628615D01*
X75751973Y-80626387D01*
X75959358Y-80626387D01*
X75981312Y-80668155D01*
X75983303Y-80681999D01*
X75996472Y-80832520D01*
X75998375Y-80843312D01*
X76054764Y-81053761D01*
X76058510Y-81064053D01*
X76150586Y-81261511D01*
X76156069Y-81271006D01*
X76192509Y-81323048D01*
X76202988Y-81331424D01*
X76216434Y-81324356D01*
X76917978Y-80622812D01*
X76924356Y-80611132D01*
X77654408Y-80611132D01*
X77654539Y-80612965D01*
X77658790Y-80619580D01*
X78364287Y-81325077D01*
X78376062Y-81331507D01*
X78388077Y-81322211D01*
X78423931Y-81271006D01*
X78429414Y-81261511D01*
X78521490Y-81064053D01*
X78525236Y-81053761D01*
X78581625Y-80843312D01*
X78583528Y-80832519D01*
X78602517Y-80615475D01*
X78602517Y-80610000D01*
X86136502Y-80610000D01*
X86156457Y-80838087D01*
X86157881Y-80843400D01*
X86157881Y-80843402D01*
X86209001Y-81034181D01*
X86215716Y-81059243D01*
X86218039Y-81064224D01*
X86218039Y-81064225D01*
X86310151Y-81261762D01*
X86310154Y-81261767D01*
X86312477Y-81266749D01*
X86443802Y-81454300D01*
X86605700Y-81616198D01*
X86610208Y-81619355D01*
X86610211Y-81619357D01*
X86664751Y-81657546D01*
X86793251Y-81747523D01*
X86798233Y-81749846D01*
X86798238Y-81749849D01*
X86873297Y-81784849D01*
X87000757Y-81844284D01*
X87006065Y-81845706D01*
X87006067Y-81845707D01*
X87216598Y-81902119D01*
X87216600Y-81902119D01*
X87221913Y-81903543D01*
X87450000Y-81923498D01*
X87678087Y-81903543D01*
X87683400Y-81902119D01*
X87683402Y-81902119D01*
X87893933Y-81845707D01*
X87893935Y-81845706D01*
X87899243Y-81844284D01*
X88026703Y-81784849D01*
X88101762Y-81749849D01*
X88101767Y-81749846D01*
X88106749Y-81747523D01*
X88235249Y-81657546D01*
X88289789Y-81619357D01*
X88289792Y-81619355D01*
X88294300Y-81616198D01*
X88456198Y-81454300D01*
X88587523Y-81266749D01*
X88589846Y-81261767D01*
X88589849Y-81261762D01*
X88681961Y-81064225D01*
X88681961Y-81064224D01*
X88684284Y-81059243D01*
X88691000Y-81034181D01*
X88742119Y-80843402D01*
X88742119Y-80843400D01*
X88743543Y-80838087D01*
X88763498Y-80610000D01*
X88743543Y-80381913D01*
X88706821Y-80244866D01*
X88685707Y-80166067D01*
X88685706Y-80166065D01*
X88684284Y-80160757D01*
X88674838Y-80140500D01*
X88589849Y-79958238D01*
X88589846Y-79958233D01*
X88587523Y-79953251D01*
X88483864Y-79805211D01*
X88459357Y-79770211D01*
X88459355Y-79770208D01*
X88456198Y-79765700D01*
X88294300Y-79603802D01*
X88289792Y-79600645D01*
X88289789Y-79600643D01*
X88163920Y-79512509D01*
X88106749Y-79472477D01*
X88101767Y-79470154D01*
X88101762Y-79470151D01*
X87904225Y-79378039D01*
X87904224Y-79378039D01*
X87899243Y-79375716D01*
X87893935Y-79374294D01*
X87893933Y-79374293D01*
X87683402Y-79317881D01*
X87683400Y-79317881D01*
X87678087Y-79316457D01*
X87450000Y-79296502D01*
X87221913Y-79316457D01*
X87216600Y-79317881D01*
X87216598Y-79317881D01*
X87006067Y-79374293D01*
X87006065Y-79374294D01*
X87000757Y-79375716D01*
X86995776Y-79378039D01*
X86995775Y-79378039D01*
X86798238Y-79470151D01*
X86798233Y-79470154D01*
X86793251Y-79472477D01*
X86736080Y-79512509D01*
X86610211Y-79600643D01*
X86610208Y-79600645D01*
X86605700Y-79603802D01*
X86443802Y-79765700D01*
X86440645Y-79770208D01*
X86440643Y-79770211D01*
X86416136Y-79805211D01*
X86312477Y-79953251D01*
X86310154Y-79958233D01*
X86310151Y-79958238D01*
X86225162Y-80140500D01*
X86215716Y-80160757D01*
X86214294Y-80166065D01*
X86214293Y-80166067D01*
X86193179Y-80244866D01*
X86156457Y-80381913D01*
X86136502Y-80610000D01*
X78602517Y-80610000D01*
X78602517Y-80604525D01*
X78583528Y-80387481D01*
X78581625Y-80376688D01*
X78525236Y-80166239D01*
X78521490Y-80155947D01*
X78429414Y-79958489D01*
X78423931Y-79948994D01*
X78387491Y-79896952D01*
X78377012Y-79888576D01*
X78363566Y-79895644D01*
X77662022Y-80597188D01*
X77654408Y-80611132D01*
X76924356Y-80611132D01*
X76925592Y-80608868D01*
X76925461Y-80607035D01*
X76921210Y-80600420D01*
X76215713Y-79894923D01*
X76203938Y-79888493D01*
X76191923Y-79897789D01*
X76156069Y-79948994D01*
X76150586Y-79958489D01*
X76058510Y-80155947D01*
X76054764Y-80166239D01*
X75998375Y-80376688D01*
X75996472Y-80387481D01*
X75980241Y-80573001D01*
X75959358Y-80626387D01*
X75751973Y-80626387D01*
X75731190Y-80586847D01*
X75729199Y-80573002D01*
X75718416Y-80449757D01*
X75715543Y-80416913D01*
X75704741Y-80376598D01*
X75657707Y-80201067D01*
X75657706Y-80201065D01*
X75656284Y-80195757D01*
X75642520Y-80166239D01*
X75561849Y-79993238D01*
X75561846Y-79993233D01*
X75559523Y-79988251D01*
X75486098Y-79883389D01*
X75431357Y-79805211D01*
X75431355Y-79805208D01*
X75428198Y-79800700D01*
X75266300Y-79638802D01*
X75261792Y-79635645D01*
X75261789Y-79635643D01*
X75177949Y-79576938D01*
X75100901Y-79522988D01*
X76568576Y-79522988D01*
X76575644Y-79536434D01*
X77277188Y-80237978D01*
X77291132Y-80245592D01*
X77292965Y-80245461D01*
X77299580Y-80241210D01*
X78005077Y-79535713D01*
X78011507Y-79523938D01*
X78002211Y-79511923D01*
X77951006Y-79476069D01*
X77941511Y-79470586D01*
X77744053Y-79378510D01*
X77733761Y-79374764D01*
X77523312Y-79318375D01*
X77512519Y-79316472D01*
X77295475Y-79297483D01*
X77284525Y-79297483D01*
X77067481Y-79316472D01*
X77056688Y-79318375D01*
X76846239Y-79374764D01*
X76835947Y-79378510D01*
X76638489Y-79470586D01*
X76628994Y-79476069D01*
X76576952Y-79512509D01*
X76568576Y-79522988D01*
X75100901Y-79522988D01*
X75078749Y-79507477D01*
X75073767Y-79505154D01*
X75073762Y-79505151D01*
X74876225Y-79413039D01*
X74876224Y-79413039D01*
X74871243Y-79410716D01*
X74865935Y-79409294D01*
X74865933Y-79409293D01*
X74655402Y-79352881D01*
X74655400Y-79352881D01*
X74650087Y-79351457D01*
X74422000Y-79331502D01*
X74193913Y-79351457D01*
X74188600Y-79352881D01*
X74188598Y-79352881D01*
X73978067Y-79409293D01*
X73978065Y-79409294D01*
X73972757Y-79410716D01*
X73967776Y-79413039D01*
X73967775Y-79413039D01*
X73770238Y-79505151D01*
X73770233Y-79505154D01*
X73765251Y-79507477D01*
X73666051Y-79576938D01*
X73582211Y-79635643D01*
X73582208Y-79635645D01*
X73577700Y-79638802D01*
X73415802Y-79800700D01*
X73412645Y-79805208D01*
X73412643Y-79805211D01*
X73357902Y-79883389D01*
X73284477Y-79988251D01*
X73282154Y-79993233D01*
X73282151Y-79993238D01*
X73201480Y-80166239D01*
X73187716Y-80195757D01*
X73186294Y-80201065D01*
X73186293Y-80201067D01*
X73139259Y-80376598D01*
X73128457Y-80416913D01*
X73108502Y-80645000D01*
X65575498Y-80645000D01*
X65555543Y-80416913D01*
X65544741Y-80376598D01*
X65497707Y-80201067D01*
X65497706Y-80201065D01*
X65496284Y-80195757D01*
X65482520Y-80166239D01*
X65401849Y-79993238D01*
X65401846Y-79993233D01*
X65399523Y-79988251D01*
X65326098Y-79883389D01*
X65271357Y-79805211D01*
X65271355Y-79805208D01*
X65268198Y-79800700D01*
X65106300Y-79638802D01*
X65101792Y-79635645D01*
X65101789Y-79635643D01*
X65017949Y-79576938D01*
X64918749Y-79507477D01*
X64913767Y-79505154D01*
X64913762Y-79505151D01*
X64716225Y-79413039D01*
X64716224Y-79413039D01*
X64711243Y-79410716D01*
X64705935Y-79409294D01*
X64705933Y-79409293D01*
X64495402Y-79352881D01*
X64495400Y-79352881D01*
X64490087Y-79351457D01*
X64262000Y-79331502D01*
X64033913Y-79351457D01*
X64028600Y-79352881D01*
X64028598Y-79352881D01*
X63818067Y-79409293D01*
X63818065Y-79409294D01*
X63812757Y-79410716D01*
X63807776Y-79413039D01*
X63807775Y-79413039D01*
X63610238Y-79505151D01*
X63610233Y-79505154D01*
X63605251Y-79507477D01*
X63506051Y-79576938D01*
X63422211Y-79635643D01*
X63422208Y-79635645D01*
X63417700Y-79638802D01*
X63255802Y-79800700D01*
X63252645Y-79805208D01*
X63252643Y-79805211D01*
X63197902Y-79883389D01*
X63124477Y-79988251D01*
X63122154Y-79993233D01*
X63122151Y-79993238D01*
X63041480Y-80166239D01*
X63027716Y-80195757D01*
X63026294Y-80201065D01*
X63026293Y-80201067D01*
X62979259Y-80376598D01*
X62968457Y-80416913D01*
X62948502Y-80645000D01*
X61592967Y-80645000D01*
X61606498Y-80641027D01*
X61607727Y-80632478D01*
X61560236Y-80455239D01*
X61556490Y-80444947D01*
X61464414Y-80247489D01*
X61458931Y-80237993D01*
X61333972Y-80059533D01*
X61326916Y-80051125D01*
X61172875Y-79897084D01*
X61164467Y-79890028D01*
X60986007Y-79765069D01*
X60976511Y-79759586D01*
X60779053Y-79667510D01*
X60768761Y-79663764D01*
X60596497Y-79617606D01*
X60582401Y-79617942D01*
X60579000Y-79625884D01*
X60579000Y-80626885D01*
X60071000Y-80626885D01*
X60071000Y-79631033D01*
X60067027Y-79617502D01*
X60058478Y-79616273D01*
X59881239Y-79663764D01*
X59870947Y-79667510D01*
X59673489Y-79759586D01*
X59663993Y-79765069D01*
X59485533Y-79890028D01*
X59477125Y-79897084D01*
X59323084Y-80051125D01*
X59316028Y-80059533D01*
X59191069Y-80237993D01*
X59185586Y-80247489D01*
X59093510Y-80444947D01*
X59089764Y-80455239D01*
X59043606Y-80627503D01*
X56907911Y-80627503D01*
X56861707Y-80455067D01*
X56861706Y-80455065D01*
X56860284Y-80449757D01*
X56842490Y-80411598D01*
X56765849Y-80247238D01*
X56765846Y-80247233D01*
X56763523Y-80242251D01*
X56632198Y-80054700D01*
X56470300Y-79892802D01*
X56465792Y-79889645D01*
X56465789Y-79889643D01*
X56336497Y-79799112D01*
X56282749Y-79761477D01*
X56277767Y-79759154D01*
X56277762Y-79759151D01*
X56080225Y-79667039D01*
X56080224Y-79667039D01*
X56075243Y-79664716D01*
X56069935Y-79663294D01*
X56069933Y-79663293D01*
X55859402Y-79606881D01*
X55859400Y-79606881D01*
X55854087Y-79605457D01*
X55626000Y-79585502D01*
X55397913Y-79605457D01*
X55392600Y-79606881D01*
X55392598Y-79606881D01*
X55182067Y-79663293D01*
X55182065Y-79663294D01*
X55176757Y-79664716D01*
X55171776Y-79667039D01*
X55171775Y-79667039D01*
X54974238Y-79759151D01*
X54974233Y-79759154D01*
X54969251Y-79761477D01*
X54915503Y-79799112D01*
X54786211Y-79889643D01*
X54786208Y-79889645D01*
X54781700Y-79892802D01*
X54619802Y-80054700D01*
X54488477Y-80242251D01*
X54486154Y-80247233D01*
X54486151Y-80247238D01*
X54409510Y-80411598D01*
X54391716Y-80449757D01*
X54390294Y-80455065D01*
X54390293Y-80455067D01*
X54342756Y-80632478D01*
X54332457Y-80670913D01*
X54312502Y-80899000D01*
X52240498Y-80899000D01*
X52220543Y-80670913D01*
X52210244Y-80632478D01*
X52162707Y-80455067D01*
X52162706Y-80455065D01*
X52161284Y-80449757D01*
X52143490Y-80411598D01*
X52066849Y-80247238D01*
X52066846Y-80247233D01*
X52064523Y-80242251D01*
X51933198Y-80054700D01*
X51771300Y-79892802D01*
X51739229Y-79870345D01*
X51694901Y-79814890D01*
X51685500Y-79767133D01*
X51685500Y-77963371D01*
X51705502Y-77895250D01*
X51722405Y-77874276D01*
X58808061Y-70788620D01*
X58870373Y-70754594D01*
X58941188Y-70759659D01*
X58998024Y-70802206D01*
X59022677Y-70866733D01*
X59031457Y-70967087D01*
X59032881Y-70972400D01*
X59032881Y-70972402D01*
X59057887Y-71065723D01*
X59090716Y-71188243D01*
X59093039Y-71193224D01*
X59093039Y-71193225D01*
X59185151Y-71390762D01*
X59185154Y-71390767D01*
X59187477Y-71395749D01*
X59214798Y-71434767D01*
X59283598Y-71533023D01*
X59318802Y-71583300D01*
X59480700Y-71745198D01*
X59485208Y-71748355D01*
X59485211Y-71748357D01*
X59563389Y-71803098D01*
X59668251Y-71876523D01*
X59673233Y-71878846D01*
X59673238Y-71878849D01*
X59870775Y-71970961D01*
X59875757Y-71973284D01*
X59881065Y-71974706D01*
X59881067Y-71974707D01*
X60091598Y-72031119D01*
X60091600Y-72031119D01*
X60096913Y-72032543D01*
X60325000Y-72052498D01*
X60553087Y-72032543D01*
X60558400Y-72031119D01*
X60558402Y-72031119D01*
X60768933Y-71974707D01*
X60768935Y-71974706D01*
X60774243Y-71973284D01*
X60978237Y-71878161D01*
X61048427Y-71867500D01*
X61113239Y-71896480D01*
X61120580Y-71903261D01*
X66541230Y-77323911D01*
X66553616Y-77338323D01*
X66562149Y-77349918D01*
X66562154Y-77349923D01*
X66566492Y-77355818D01*
X66572070Y-77360557D01*
X66572073Y-77360560D01*
X66606768Y-77390035D01*
X66614284Y-77396965D01*
X66619979Y-77402660D01*
X66622850Y-77404931D01*
X66631514Y-77411786D01*
X66672132Y-77469185D01*
X66672255Y-77470316D01*
X66674175Y-77475438D01*
X66674176Y-77475441D01*
X66692824Y-77525185D01*
X66723385Y-77606705D01*
X66810739Y-77723261D01*
X66927295Y-77810615D01*
X67063684Y-77861745D01*
X67125866Y-77868500D01*
X68722134Y-77868500D01*
X68784316Y-77861745D01*
X68920705Y-77810615D01*
X69037261Y-77723261D01*
X69124615Y-77606705D01*
X69175745Y-77470316D01*
X69182500Y-77408134D01*
X69182500Y-76962000D01*
X72981502Y-76962000D01*
X73001457Y-77190087D01*
X73002881Y-77195400D01*
X73002881Y-77195402D01*
X73057721Y-77400064D01*
X73060716Y-77411243D01*
X73063039Y-77416224D01*
X73063039Y-77416225D01*
X73155151Y-77613762D01*
X73155154Y-77613767D01*
X73157477Y-77618749D01*
X73160634Y-77623257D01*
X73264279Y-77771277D01*
X73288802Y-77806300D01*
X73450700Y-77968198D01*
X73455208Y-77971355D01*
X73455211Y-77971357D01*
X73520815Y-78017293D01*
X73638251Y-78099523D01*
X73643233Y-78101846D01*
X73643238Y-78101849D01*
X73775884Y-78163702D01*
X73845757Y-78196284D01*
X73851065Y-78197706D01*
X73851067Y-78197707D01*
X74061598Y-78254119D01*
X74061600Y-78254119D01*
X74066913Y-78255543D01*
X74295000Y-78275498D01*
X74523087Y-78255543D01*
X74528400Y-78254119D01*
X74528402Y-78254119D01*
X74738933Y-78197707D01*
X74738935Y-78197706D01*
X74744243Y-78196284D01*
X74814116Y-78163702D01*
X74946762Y-78101849D01*
X74946767Y-78101846D01*
X74951749Y-78099523D01*
X75069185Y-78017293D01*
X75134789Y-77971357D01*
X75134792Y-77971355D01*
X75139300Y-77968198D01*
X75301198Y-77806300D01*
X75325722Y-77771277D01*
X75429366Y-77623257D01*
X75432523Y-77618749D01*
X75434846Y-77613767D01*
X75434849Y-77613762D01*
X75526961Y-77416225D01*
X75526961Y-77416224D01*
X75529284Y-77411243D01*
X75532280Y-77400064D01*
X75587119Y-77195402D01*
X75587119Y-77195400D01*
X75588543Y-77190087D01*
X75608498Y-76962000D01*
X75588543Y-76733913D01*
X75573458Y-76677616D01*
X75530707Y-76518067D01*
X75530706Y-76518065D01*
X75529284Y-76512757D01*
X75511876Y-76475425D01*
X75434849Y-76310238D01*
X75434846Y-76310233D01*
X75432523Y-76305251D01*
X75311847Y-76132908D01*
X75304357Y-76122211D01*
X75304355Y-76122208D01*
X75301198Y-76117700D01*
X75139300Y-75955802D01*
X75134792Y-75952645D01*
X75134789Y-75952643D01*
X74981804Y-75845522D01*
X74951749Y-75824477D01*
X74946767Y-75822154D01*
X74946762Y-75822151D01*
X74749225Y-75730039D01*
X74749224Y-75730039D01*
X74744243Y-75727716D01*
X74738935Y-75726294D01*
X74738933Y-75726293D01*
X74528402Y-75669881D01*
X74528400Y-75669881D01*
X74523087Y-75668457D01*
X74295000Y-75648502D01*
X74066913Y-75668457D01*
X74061600Y-75669881D01*
X74061598Y-75669881D01*
X73851067Y-75726293D01*
X73851065Y-75726294D01*
X73845757Y-75727716D01*
X73840776Y-75730039D01*
X73840775Y-75730039D01*
X73643238Y-75822151D01*
X73643233Y-75822154D01*
X73638251Y-75824477D01*
X73608196Y-75845522D01*
X73455211Y-75952643D01*
X73455208Y-75952645D01*
X73450700Y-75955802D01*
X73288802Y-76117700D01*
X73285645Y-76122208D01*
X73285643Y-76122211D01*
X73278153Y-76132908D01*
X73157477Y-76305251D01*
X73155154Y-76310233D01*
X73155151Y-76310238D01*
X73078124Y-76475425D01*
X73060716Y-76512757D01*
X73059294Y-76518065D01*
X73059293Y-76518067D01*
X73016542Y-76677616D01*
X73001457Y-76733913D01*
X72981502Y-76962000D01*
X69182500Y-76962000D01*
X69182500Y-76261866D01*
X69175745Y-76199684D01*
X69143550Y-76113803D01*
X69127768Y-76071704D01*
X69127766Y-76071701D01*
X69124615Y-76063295D01*
X69119227Y-76056106D01*
X69119094Y-76055863D01*
X69103924Y-75986506D01*
X69109248Y-75958092D01*
X69164468Y-75779706D01*
X69166290Y-75773820D01*
X69184844Y-75597297D01*
X69186832Y-75578378D01*
X69186832Y-75578377D01*
X69187476Y-75572250D01*
X69179898Y-75488986D01*
X69169665Y-75376543D01*
X69169664Y-75376540D01*
X69169106Y-75370404D01*
X69111881Y-75175971D01*
X69017981Y-74996355D01*
X69018016Y-74996337D01*
X68998111Y-74930559D01*
X69013271Y-74869591D01*
X69051787Y-74798358D01*
X69106356Y-74697435D01*
X69166290Y-74503820D01*
X69176996Y-74401965D01*
X69186832Y-74308378D01*
X69186832Y-74308377D01*
X69187476Y-74302250D01*
X69172873Y-74141794D01*
X69169665Y-74106543D01*
X69169664Y-74106540D01*
X69169106Y-74100404D01*
X69111881Y-73905971D01*
X69107951Y-73898452D01*
X69059533Y-73805837D01*
X69017981Y-73726355D01*
X69012630Y-73719699D01*
X68894840Y-73573199D01*
X68890981Y-73568399D01*
X68735719Y-73438119D01*
X68730327Y-73435155D01*
X68730323Y-73435152D01*
X68563506Y-73343444D01*
X68558109Y-73340477D01*
X68364916Y-73279193D01*
X68358799Y-73278507D01*
X68358795Y-73278506D01*
X68274045Y-73269000D01*
X68207183Y-73261500D01*
X67647996Y-73261500D01*
X67497287Y-73276277D01*
X67303258Y-73334858D01*
X67124302Y-73430010D01*
X66967237Y-73558110D01*
X66963310Y-73562857D01*
X66963308Y-73562859D01*
X66841973Y-73709528D01*
X66841971Y-73709531D01*
X66838044Y-73714278D01*
X66741644Y-73892565D01*
X66737494Y-73905971D01*
X66699328Y-74029267D01*
X66681710Y-74086180D01*
X66660524Y-74287750D01*
X66678894Y-74489596D01*
X66680632Y-74495502D01*
X66680633Y-74495506D01*
X66683080Y-74503820D01*
X66736119Y-74684029D01*
X66738972Y-74689486D01*
X66738973Y-74689489D01*
X66783069Y-74773837D01*
X66829923Y-74863460D01*
X66829923Y-74863462D01*
X66830019Y-74863645D01*
X66829984Y-74863663D01*
X66849889Y-74929441D01*
X66834729Y-74990409D01*
X66746100Y-75154324D01*
X66696106Y-75204732D01*
X66626795Y-75220109D01*
X66560173Y-75195573D01*
X66546170Y-75183489D01*
X62428404Y-71065723D01*
X62394378Y-71003411D01*
X62391499Y-70976628D01*
X62391499Y-68575500D01*
X62411501Y-68507379D01*
X62465157Y-68460886D01*
X62517499Y-68449500D01*
X66625503Y-68449500D01*
X66693624Y-68469502D01*
X66740117Y-68523158D01*
X66750221Y-68593432D01*
X66745868Y-68612759D01*
X66702710Y-68752180D01*
X66702066Y-68758305D01*
X66702066Y-68758306D01*
X66684760Y-68922961D01*
X66681524Y-68953750D01*
X66699894Y-69155596D01*
X66701632Y-69161502D01*
X66701633Y-69161506D01*
X66737221Y-69282423D01*
X66755788Y-69345507D01*
X66757119Y-69350029D01*
X66756260Y-69350282D01*
X66762714Y-69415662D01*
X66749548Y-69452406D01*
X66744385Y-69459295D01*
X66741236Y-69467696D01*
X66741234Y-69467699D01*
X66725864Y-69508699D01*
X66693255Y-69595684D01*
X66686500Y-69657866D01*
X66686500Y-70804134D01*
X66693255Y-70866316D01*
X66744385Y-71002705D01*
X66831739Y-71119261D01*
X66948295Y-71206615D01*
X67084684Y-71257745D01*
X67146866Y-71264500D01*
X68743134Y-71264500D01*
X68805316Y-71257745D01*
X68941492Y-71206695D01*
X77892251Y-71206695D01*
X77892548Y-71211848D01*
X77892548Y-71211851D01*
X77898011Y-71306590D01*
X77905110Y-71429715D01*
X77906247Y-71434761D01*
X77906248Y-71434767D01*
X77926119Y-71522939D01*
X77954222Y-71647639D01*
X77994346Y-71746453D01*
X78032792Y-71841134D01*
X78038266Y-71854616D01*
X78053116Y-71878849D01*
X78148328Y-72034221D01*
X78154987Y-72045088D01*
X78301250Y-72213938D01*
X78473126Y-72356632D01*
X78666000Y-72469338D01*
X78874692Y-72549030D01*
X78879760Y-72550061D01*
X78879763Y-72550062D01*
X78987017Y-72571883D01*
X79093597Y-72593567D01*
X79098772Y-72593757D01*
X79098774Y-72593757D01*
X79311673Y-72601564D01*
X79311677Y-72601564D01*
X79316837Y-72601753D01*
X79321957Y-72601097D01*
X79321959Y-72601097D01*
X79533288Y-72574025D01*
X79533289Y-72574025D01*
X79538416Y-72573368D01*
X79543366Y-72571883D01*
X79747429Y-72510661D01*
X79747434Y-72510659D01*
X79752384Y-72509174D01*
X79952994Y-72410896D01*
X80134860Y-72281173D01*
X80169387Y-72246767D01*
X80222908Y-72193432D01*
X80293096Y-72123489D01*
X80352594Y-72040689D01*
X80420435Y-71946277D01*
X80423453Y-71942077D01*
X80445989Y-71896480D01*
X80520136Y-71746453D01*
X80520137Y-71746451D01*
X80522430Y-71741811D01*
X80554900Y-71634940D01*
X80585865Y-71533023D01*
X80585865Y-71533021D01*
X80587370Y-71528069D01*
X80616529Y-71306590D01*
X80616611Y-71303240D01*
X80618074Y-71243365D01*
X80618074Y-71243361D01*
X80618156Y-71240000D01*
X80599852Y-71017361D01*
X80545431Y-70800702D01*
X80456354Y-70595840D01*
X80335014Y-70408277D01*
X80184670Y-70243051D01*
X80180619Y-70239852D01*
X80180615Y-70239848D01*
X80013414Y-70107800D01*
X80013410Y-70107798D01*
X80009359Y-70104598D01*
X79967569Y-70081529D01*
X79917598Y-70031097D01*
X79902826Y-69961654D01*
X79927942Y-69895248D01*
X79955294Y-69868641D01*
X80130328Y-69743792D01*
X80138200Y-69737139D01*
X80289052Y-69586812D01*
X80295730Y-69578965D01*
X80420003Y-69406020D01*
X80425313Y-69397183D01*
X80519670Y-69206267D01*
X80523469Y-69196672D01*
X80585377Y-68992910D01*
X80587555Y-68982837D01*
X80588986Y-68971962D01*
X80586775Y-68957778D01*
X80573617Y-68954000D01*
X77938225Y-68954000D01*
X77924694Y-68957973D01*
X77923257Y-68967966D01*
X77953565Y-69102446D01*
X77956645Y-69112275D01*
X78036770Y-69309603D01*
X78041413Y-69318794D01*
X78152694Y-69500388D01*
X78158777Y-69508699D01*
X78298213Y-69669667D01*
X78305580Y-69676883D01*
X78469434Y-69812916D01*
X78477881Y-69818831D01*
X78546969Y-69859203D01*
X78595693Y-69910842D01*
X78608764Y-69980625D01*
X78582033Y-70046396D01*
X78541584Y-70079752D01*
X78528607Y-70086507D01*
X78524474Y-70089610D01*
X78524471Y-70089612D01*
X78354100Y-70217530D01*
X78349965Y-70220635D01*
X78195629Y-70382138D01*
X78192715Y-70386410D01*
X78192714Y-70386411D01*
X78180404Y-70404457D01*
X78069743Y-70566680D01*
X78054003Y-70600590D01*
X77980166Y-70759659D01*
X77975688Y-70769305D01*
X77915989Y-70984570D01*
X77892251Y-71206695D01*
X68941492Y-71206695D01*
X68941705Y-71206615D01*
X69058261Y-71119261D01*
X69145615Y-71002705D01*
X69196745Y-70866316D01*
X69203500Y-70804134D01*
X69203500Y-69657866D01*
X69196745Y-69595684D01*
X69164136Y-69508699D01*
X69148768Y-69467704D01*
X69148766Y-69467701D01*
X69145615Y-69459295D01*
X69140227Y-69452106D01*
X69140094Y-69451863D01*
X69124924Y-69382506D01*
X69130248Y-69354092D01*
X69131428Y-69350282D01*
X69187290Y-69169820D01*
X69206703Y-68985124D01*
X69207832Y-68974378D01*
X69207832Y-68974377D01*
X69208476Y-68968250D01*
X69195971Y-68830849D01*
X69190665Y-68772543D01*
X69190664Y-68772540D01*
X69190106Y-68766404D01*
X69169738Y-68697198D01*
X69134620Y-68577880D01*
X69132881Y-68571971D01*
X69115748Y-68539197D01*
X69074808Y-68460886D01*
X69038981Y-68392355D01*
X69039016Y-68392337D01*
X69019111Y-68326559D01*
X69034271Y-68265591D01*
X69099353Y-68145225D01*
X69127356Y-68093435D01*
X69181326Y-67919087D01*
X69185468Y-67905707D01*
X69185469Y-67905704D01*
X69187290Y-67899820D01*
X69208476Y-67698250D01*
X69194987Y-67550036D01*
X69190665Y-67502543D01*
X69190664Y-67502540D01*
X69190106Y-67496404D01*
X69182050Y-67469030D01*
X69134620Y-67307880D01*
X69132881Y-67301971D01*
X69119635Y-67276632D01*
X69078281Y-67197529D01*
X69038981Y-67122355D01*
X68911981Y-66964399D01*
X68756719Y-66834119D01*
X68751327Y-66831155D01*
X68751323Y-66831152D01*
X68698295Y-66802000D01*
X72981502Y-66802000D01*
X73001457Y-67030087D01*
X73002881Y-67035400D01*
X73002881Y-67035402D01*
X73006026Y-67047137D01*
X73060716Y-67251243D01*
X73063039Y-67256224D01*
X73063039Y-67256225D01*
X73155151Y-67453762D01*
X73155154Y-67453767D01*
X73157477Y-67458749D01*
X73288802Y-67646300D01*
X73450700Y-67808198D01*
X73455208Y-67811355D01*
X73455211Y-67811357D01*
X73531474Y-67864757D01*
X73638251Y-67939523D01*
X73643233Y-67941846D01*
X73643238Y-67941849D01*
X73816516Y-68022649D01*
X73845757Y-68036284D01*
X73851065Y-68037706D01*
X73851067Y-68037707D01*
X74061598Y-68094119D01*
X74061600Y-68094119D01*
X74066913Y-68095543D01*
X74295000Y-68115498D01*
X74523087Y-68095543D01*
X74528400Y-68094119D01*
X74528402Y-68094119D01*
X74738933Y-68037707D01*
X74738935Y-68037706D01*
X74744243Y-68036284D01*
X74773484Y-68022649D01*
X74946762Y-67941849D01*
X74946767Y-67941846D01*
X74951749Y-67939523D01*
X75058526Y-67864757D01*
X75134789Y-67811357D01*
X75134792Y-67811355D01*
X75139300Y-67808198D01*
X75301198Y-67646300D01*
X75432523Y-67458749D01*
X75434846Y-67453767D01*
X75434849Y-67453762D01*
X75526961Y-67256225D01*
X75526961Y-67256224D01*
X75529284Y-67251243D01*
X75583975Y-67047137D01*
X75587119Y-67035402D01*
X75587119Y-67035400D01*
X75588543Y-67030087D01*
X75608498Y-66802000D01*
X75588543Y-66573913D01*
X75582444Y-66551151D01*
X75530707Y-66358067D01*
X75530706Y-66358065D01*
X75529284Y-66352757D01*
X75493476Y-66275965D01*
X75434849Y-66150238D01*
X75434846Y-66150233D01*
X75432523Y-66145251D01*
X75419530Y-66126695D01*
X77892251Y-66126695D01*
X77892548Y-66131848D01*
X77892548Y-66131851D01*
X77898011Y-66226590D01*
X77905110Y-66349715D01*
X77906247Y-66354761D01*
X77906248Y-66354767D01*
X77906992Y-66358067D01*
X77954222Y-66567639D01*
X78038266Y-66774616D01*
X78040965Y-66779020D01*
X78152139Y-66960440D01*
X78154987Y-66965088D01*
X78301250Y-67133938D01*
X78473126Y-67276632D01*
X78507145Y-67296511D01*
X78546955Y-67319774D01*
X78595679Y-67371412D01*
X78608750Y-67441195D01*
X78582019Y-67506967D01*
X78541562Y-67540327D01*
X78533457Y-67544546D01*
X78524738Y-67550036D01*
X78354433Y-67677905D01*
X78346726Y-67684748D01*
X78199590Y-67838717D01*
X78193104Y-67846727D01*
X78073098Y-68022649D01*
X78068000Y-68031623D01*
X77978338Y-68224783D01*
X77974775Y-68234470D01*
X77919389Y-68434183D01*
X77920912Y-68442607D01*
X77933292Y-68446000D01*
X80573344Y-68446000D01*
X80586875Y-68442027D01*
X80588180Y-68432947D01*
X80546214Y-68265875D01*
X80542894Y-68256124D01*
X80457972Y-68060814D01*
X80453105Y-68051739D01*
X80337426Y-67872926D01*
X80331136Y-67864757D01*
X80187806Y-67707240D01*
X80180273Y-67700215D01*
X80013139Y-67568222D01*
X80004556Y-67562520D01*
X79967602Y-67542120D01*
X79917631Y-67491687D01*
X79902859Y-67422245D01*
X79927975Y-67355839D01*
X79955327Y-67329232D01*
X80001200Y-67296511D01*
X80134860Y-67201173D01*
X80293096Y-67043489D01*
X80302974Y-67029743D01*
X80420435Y-66866277D01*
X80423453Y-66862077D01*
X80427240Y-66854416D01*
X80520136Y-66666453D01*
X80520137Y-66666451D01*
X80522430Y-66661811D01*
X80587370Y-66448069D01*
X80616529Y-66226590D01*
X80618156Y-66160000D01*
X80599852Y-65937361D01*
X80545431Y-65720702D01*
X80456354Y-65515840D01*
X80335014Y-65328277D01*
X80331540Y-65324459D01*
X80331533Y-65324450D01*
X80187435Y-65166088D01*
X80156383Y-65102242D01*
X80164779Y-65031744D01*
X80209956Y-64976976D01*
X80236400Y-64963307D01*
X80343052Y-64923325D01*
X80358649Y-64914786D01*
X80460724Y-64838285D01*
X80473285Y-64825724D01*
X80549786Y-64723649D01*
X80558324Y-64708054D01*
X80603478Y-64587606D01*
X80607105Y-64572351D01*
X80612631Y-64521486D01*
X80613000Y-64514672D01*
X80613000Y-63892115D01*
X80608525Y-63876876D01*
X80607135Y-63875671D01*
X80599452Y-63874000D01*
X77915116Y-63874000D01*
X77899877Y-63878475D01*
X77898672Y-63879865D01*
X77897001Y-63887548D01*
X77897001Y-64514669D01*
X77897371Y-64521490D01*
X77902895Y-64572352D01*
X77906521Y-64587604D01*
X77951676Y-64708054D01*
X77960214Y-64723649D01*
X78036715Y-64825724D01*
X78049276Y-64838285D01*
X78151351Y-64914786D01*
X78166946Y-64923324D01*
X78275827Y-64964142D01*
X78332591Y-65006784D01*
X78357291Y-65073345D01*
X78342083Y-65142694D01*
X78322691Y-65169175D01*
X78205833Y-65291460D01*
X78195629Y-65302138D01*
X78069743Y-65486680D01*
X78031049Y-65570039D01*
X77978827Y-65682543D01*
X77975688Y-65689305D01*
X77915989Y-65904570D01*
X77892251Y-66126695D01*
X75419530Y-66126695D01*
X75301198Y-65957700D01*
X75139300Y-65795802D01*
X75134792Y-65792645D01*
X75134789Y-65792643D01*
X75032046Y-65720702D01*
X74951749Y-65664477D01*
X74946767Y-65662154D01*
X74946762Y-65662151D01*
X74749225Y-65570039D01*
X74749224Y-65570039D01*
X74744243Y-65567716D01*
X74738935Y-65566294D01*
X74738933Y-65566293D01*
X74528402Y-65509881D01*
X74528400Y-65509881D01*
X74523087Y-65508457D01*
X74295000Y-65488502D01*
X74066913Y-65508457D01*
X74061600Y-65509881D01*
X74061598Y-65509881D01*
X73851067Y-65566293D01*
X73851065Y-65566294D01*
X73845757Y-65567716D01*
X73840776Y-65570039D01*
X73840775Y-65570039D01*
X73643238Y-65662151D01*
X73643233Y-65662154D01*
X73638251Y-65664477D01*
X73557954Y-65720702D01*
X73455211Y-65792643D01*
X73455208Y-65792645D01*
X73450700Y-65795802D01*
X73288802Y-65957700D01*
X73157477Y-66145251D01*
X73155154Y-66150233D01*
X73155151Y-66150238D01*
X73096524Y-66275965D01*
X73060716Y-66352757D01*
X73059294Y-66358065D01*
X73059293Y-66358067D01*
X73007556Y-66551151D01*
X73001457Y-66573913D01*
X72981502Y-66802000D01*
X68698295Y-66802000D01*
X68584506Y-66739444D01*
X68579109Y-66736477D01*
X68385916Y-66675193D01*
X68379799Y-66674507D01*
X68379795Y-66674506D01*
X68305652Y-66666190D01*
X68228183Y-66657500D01*
X67668996Y-66657500D01*
X67518287Y-66672277D01*
X67324258Y-66730858D01*
X67145302Y-66826010D01*
X67140528Y-66829904D01*
X67140526Y-66829905D01*
X67049502Y-66904143D01*
X66984070Y-66931697D01*
X66969866Y-66932500D01*
X61964867Y-66932500D01*
X61896746Y-66912498D01*
X61861655Y-66878772D01*
X61839198Y-66846700D01*
X61677300Y-66684802D01*
X61672792Y-66681645D01*
X61672789Y-66681643D01*
X61594611Y-66626902D01*
X61489749Y-66553477D01*
X61484767Y-66551154D01*
X61484762Y-66551151D01*
X61287225Y-66459039D01*
X61287224Y-66459039D01*
X61282243Y-66456716D01*
X61276935Y-66455294D01*
X61276933Y-66455293D01*
X61066402Y-66398881D01*
X61066400Y-66398881D01*
X61061087Y-66397457D01*
X60833000Y-66377502D01*
X60604913Y-66397457D01*
X60599600Y-66398881D01*
X60599598Y-66398881D01*
X60389067Y-66455293D01*
X60389065Y-66455294D01*
X60383757Y-66456716D01*
X60378776Y-66459039D01*
X60378775Y-66459039D01*
X60181238Y-66551151D01*
X60181233Y-66551154D01*
X60176251Y-66553477D01*
X60071389Y-66626902D01*
X59993211Y-66681643D01*
X59993208Y-66681645D01*
X59988700Y-66684802D01*
X59826802Y-66846700D01*
X59823645Y-66851208D01*
X59823643Y-66851211D01*
X59821399Y-66854416D01*
X59695477Y-67034251D01*
X59693154Y-67039233D01*
X59693151Y-67039238D01*
X59601039Y-67236775D01*
X59598716Y-67241757D01*
X59597294Y-67247065D01*
X59597293Y-67247067D01*
X59550354Y-67422245D01*
X59539457Y-67462913D01*
X59519502Y-67691000D01*
X59519981Y-67696475D01*
X59533755Y-67853913D01*
X59519766Y-67923518D01*
X59497329Y-67953990D01*
X57078269Y-70373050D01*
X57015957Y-70407076D01*
X56945142Y-70402011D01*
X56888306Y-70359464D01*
X56867467Y-70316564D01*
X56861708Y-70295072D01*
X56860284Y-70289757D01*
X56773944Y-70104598D01*
X56765849Y-70087238D01*
X56765846Y-70087233D01*
X56763523Y-70082251D01*
X56632198Y-69894700D01*
X56470300Y-69732802D01*
X56465792Y-69729645D01*
X56465789Y-69729643D01*
X56380134Y-69669667D01*
X56282749Y-69601477D01*
X56277767Y-69599154D01*
X56277762Y-69599151D01*
X56080225Y-69507039D01*
X56080224Y-69507039D01*
X56075243Y-69504716D01*
X56069935Y-69503294D01*
X56069933Y-69503293D01*
X55859402Y-69446881D01*
X55859400Y-69446881D01*
X55854087Y-69445457D01*
X55626000Y-69425502D01*
X55397913Y-69445457D01*
X55392600Y-69446881D01*
X55392598Y-69446881D01*
X55182067Y-69503293D01*
X55182065Y-69503294D01*
X55176757Y-69504716D01*
X55171776Y-69507039D01*
X55171775Y-69507039D01*
X54974238Y-69599151D01*
X54974233Y-69599154D01*
X54969251Y-69601477D01*
X54871866Y-69669667D01*
X54786211Y-69729643D01*
X54786208Y-69729645D01*
X54781700Y-69732802D01*
X54619802Y-69894700D01*
X54488477Y-70082251D01*
X54486154Y-70087233D01*
X54486151Y-70087238D01*
X54478056Y-70104598D01*
X54391716Y-70289757D01*
X54390294Y-70295065D01*
X54390293Y-70295067D01*
X54333881Y-70505598D01*
X54332457Y-70510913D01*
X54312502Y-70739000D01*
X54332457Y-70967087D01*
X54333881Y-70972400D01*
X54333881Y-70972402D01*
X54358887Y-71065723D01*
X54391716Y-71188243D01*
X54394039Y-71193224D01*
X54394039Y-71193225D01*
X54486151Y-71390762D01*
X54486154Y-71390767D01*
X54488477Y-71395749D01*
X54515798Y-71434767D01*
X54584598Y-71533023D01*
X54619802Y-71583300D01*
X54781700Y-71745198D01*
X54786208Y-71748355D01*
X54786211Y-71748357D01*
X54864389Y-71803098D01*
X54969251Y-71876523D01*
X54974233Y-71878846D01*
X54974238Y-71878849D01*
X55171775Y-71970961D01*
X55176757Y-71973284D01*
X55199796Y-71979457D01*
X55203564Y-71980467D01*
X55264188Y-72017417D01*
X55295210Y-72081277D01*
X55286783Y-72151772D01*
X55260050Y-72191269D01*
X50438089Y-77013230D01*
X50423677Y-77025616D01*
X50412082Y-77034149D01*
X50412077Y-77034154D01*
X50406182Y-77038492D01*
X50401443Y-77044070D01*
X50401440Y-77044073D01*
X50371965Y-77078768D01*
X50365035Y-77086284D01*
X50359340Y-77091979D01*
X50357060Y-77094861D01*
X50341719Y-77114251D01*
X50338928Y-77117655D01*
X50296409Y-77167703D01*
X50291667Y-77173285D01*
X50288339Y-77179801D01*
X50284972Y-77184850D01*
X50281805Y-77189979D01*
X50277266Y-77195716D01*
X50246345Y-77261875D01*
X50244442Y-77265769D01*
X50211231Y-77330808D01*
X50209492Y-77337916D01*
X50207393Y-77343559D01*
X50205476Y-77349322D01*
X50202378Y-77355950D01*
X50200888Y-77363112D01*
X50200888Y-77363113D01*
X50187514Y-77427412D01*
X50186544Y-77431696D01*
X50169192Y-77502610D01*
X50168500Y-77513764D01*
X50168464Y-77513762D01*
X50168225Y-77517755D01*
X50167851Y-77521947D01*
X50166360Y-77529115D01*
X50166558Y-77536432D01*
X50168454Y-77606521D01*
X50168500Y-77609928D01*
X50168500Y-79767133D01*
X50148498Y-79835254D01*
X50114772Y-79870345D01*
X50082700Y-79892802D01*
X49920802Y-80054700D01*
X49898345Y-80086771D01*
X49842890Y-80131099D01*
X49795133Y-80140500D01*
X43867371Y-80140500D01*
X43799250Y-80120498D01*
X43778276Y-80103595D01*
X42584609Y-78909928D01*
X42550583Y-78847616D01*
X42548782Y-78804389D01*
X42566529Y-78669590D01*
X42567582Y-78626489D01*
X42568074Y-78606365D01*
X42568074Y-78606361D01*
X42568156Y-78603000D01*
X42549852Y-78380361D01*
X42510765Y-78224750D01*
X44604524Y-78224750D01*
X44622894Y-78426596D01*
X44680119Y-78621029D01*
X44682972Y-78626486D01*
X44682973Y-78626489D01*
X44687127Y-78634435D01*
X44774019Y-78800645D01*
X44777879Y-78805445D01*
X44777879Y-78805446D01*
X44783729Y-78812722D01*
X44901019Y-78958601D01*
X45056281Y-79088881D01*
X45061673Y-79091845D01*
X45061677Y-79091848D01*
X45228494Y-79183556D01*
X45233891Y-79186523D01*
X45239764Y-79188386D01*
X45345793Y-79222020D01*
X45427084Y-79247807D01*
X45433201Y-79248493D01*
X45433205Y-79248494D01*
X45507348Y-79256810D01*
X45584817Y-79265500D01*
X46144004Y-79265500D01*
X46294713Y-79250723D01*
X46488742Y-79192142D01*
X46667698Y-79096990D01*
X46824763Y-78968890D01*
X46837246Y-78953801D01*
X46950027Y-78817472D01*
X46950029Y-78817469D01*
X46953956Y-78812722D01*
X47050356Y-78634435D01*
X47110290Y-78440820D01*
X47131476Y-78239250D01*
X47118971Y-78101849D01*
X47113665Y-78043543D01*
X47113664Y-78043540D01*
X47113106Y-78037404D01*
X47092738Y-77968198D01*
X47063286Y-77868131D01*
X47055881Y-77842971D01*
X47051951Y-77835452D01*
X46964835Y-77668815D01*
X46961981Y-77663355D01*
X46962016Y-77663337D01*
X46942111Y-77597559D01*
X46957271Y-77536591D01*
X46972614Y-77508215D01*
X47050356Y-77364435D01*
X47082120Y-77261823D01*
X47108468Y-77176707D01*
X47108469Y-77176704D01*
X47110290Y-77170820D01*
X47118850Y-77089383D01*
X47130832Y-76975378D01*
X47130832Y-76975377D01*
X47131476Y-76969250D01*
X47113106Y-76767404D01*
X47107188Y-76747294D01*
X47057620Y-76578879D01*
X47057619Y-76578877D01*
X47055881Y-76572971D01*
X47056740Y-76572718D01*
X47050286Y-76507338D01*
X47063452Y-76470594D01*
X47068615Y-76463705D01*
X47071768Y-76455296D01*
X47110840Y-76351069D01*
X47119745Y-76327316D01*
X47126500Y-76265134D01*
X47126500Y-75118866D01*
X47119745Y-75056684D01*
X47068615Y-74920295D01*
X46981261Y-74803739D01*
X46864705Y-74716385D01*
X46728316Y-74665255D01*
X46666134Y-74658500D01*
X45069866Y-74658500D01*
X45007684Y-74665255D01*
X44871295Y-74716385D01*
X44754739Y-74803739D01*
X44667385Y-74920295D01*
X44616255Y-75056684D01*
X44609500Y-75118866D01*
X44609500Y-76265134D01*
X44616255Y-76327316D01*
X44625160Y-76351069D01*
X44664232Y-76455296D01*
X44664234Y-76455299D01*
X44667385Y-76463705D01*
X44672773Y-76470894D01*
X44672906Y-76471137D01*
X44688076Y-76540494D01*
X44682752Y-76568907D01*
X44625710Y-76753180D01*
X44625066Y-76759305D01*
X44625066Y-76759306D01*
X44624215Y-76767404D01*
X44604524Y-76954750D01*
X44622894Y-77156596D01*
X44624632Y-77162502D01*
X44624633Y-77162506D01*
X44662845Y-77292338D01*
X44680119Y-77351029D01*
X44682972Y-77356486D01*
X44682973Y-77356489D01*
X44707111Y-77402660D01*
X44773923Y-77530460D01*
X44773923Y-77530462D01*
X44774019Y-77530645D01*
X44773984Y-77530663D01*
X44793889Y-77596441D01*
X44778729Y-77657409D01*
X44685644Y-77829565D01*
X44675683Y-77861745D01*
X44645627Y-77958840D01*
X44625710Y-78023180D01*
X44625066Y-78029305D01*
X44625066Y-78029306D01*
X44614734Y-78127610D01*
X44604524Y-78224750D01*
X42510765Y-78224750D01*
X42495431Y-78163702D01*
X42406354Y-77958840D01*
X42310463Y-77810615D01*
X42287822Y-77775617D01*
X42287820Y-77775614D01*
X42285014Y-77771277D01*
X42134670Y-77606051D01*
X42130619Y-77602852D01*
X42130615Y-77602848D01*
X41963414Y-77470800D01*
X41963410Y-77470798D01*
X41959359Y-77467598D01*
X41918053Y-77444796D01*
X41868084Y-77394364D01*
X41853312Y-77324921D01*
X41878428Y-77258516D01*
X41905780Y-77231909D01*
X41972095Y-77184607D01*
X42084860Y-77104173D01*
X42243096Y-76946489D01*
X42302594Y-76863689D01*
X42370435Y-76769277D01*
X42373453Y-76765077D01*
X42472430Y-76564811D01*
X42537370Y-76351069D01*
X42566529Y-76129590D01*
X42566915Y-76113803D01*
X42568074Y-76066365D01*
X42568074Y-76066361D01*
X42568156Y-76063000D01*
X42549852Y-75840361D01*
X42495431Y-75623702D01*
X42406354Y-75418840D01*
X42285014Y-75231277D01*
X42134670Y-75066051D01*
X42130619Y-75062852D01*
X42130615Y-75062848D01*
X41963414Y-74930800D01*
X41963410Y-74930798D01*
X41959359Y-74927598D01*
X41917569Y-74904529D01*
X41867598Y-74854097D01*
X41852826Y-74784654D01*
X41877942Y-74718248D01*
X41905294Y-74691641D01*
X42080328Y-74566792D01*
X42088200Y-74560139D01*
X42239052Y-74409812D01*
X42245730Y-74401965D01*
X42370003Y-74229020D01*
X42375313Y-74220183D01*
X42469670Y-74029267D01*
X42473469Y-74019672D01*
X42535377Y-73815910D01*
X42537555Y-73805837D01*
X42538986Y-73794962D01*
X42536775Y-73780778D01*
X42523617Y-73777000D01*
X39888225Y-73777000D01*
X39874694Y-73780973D01*
X39873257Y-73790966D01*
X39903565Y-73925446D01*
X39906645Y-73935275D01*
X39986770Y-74132603D01*
X39991413Y-74141794D01*
X40102694Y-74323388D01*
X40108777Y-74331699D01*
X40248213Y-74492667D01*
X40255580Y-74499883D01*
X40419434Y-74635916D01*
X40427881Y-74641831D01*
X40496969Y-74682203D01*
X40545693Y-74733842D01*
X40558764Y-74803625D01*
X40532033Y-74869396D01*
X40491584Y-74902752D01*
X40478607Y-74909507D01*
X40474474Y-74912610D01*
X40474471Y-74912612D01*
X40450568Y-74930559D01*
X40299965Y-75043635D01*
X40296393Y-75047373D01*
X40154770Y-75195573D01*
X40145629Y-75205138D01*
X40019743Y-75389680D01*
X40004003Y-75423590D01*
X39932153Y-75578378D01*
X39925688Y-75592305D01*
X39865989Y-75807570D01*
X39842251Y-76029695D01*
X39842548Y-76034848D01*
X39842548Y-76034851D01*
X39848011Y-76129590D01*
X39855110Y-76252715D01*
X39856247Y-76257761D01*
X39856248Y-76257767D01*
X39870152Y-76319460D01*
X39904222Y-76470639D01*
X39988266Y-76677616D01*
X40104987Y-76868088D01*
X40251250Y-77036938D01*
X40423126Y-77179632D01*
X40450651Y-77195716D01*
X40496445Y-77222476D01*
X40545169Y-77274114D01*
X40558240Y-77343897D01*
X40531509Y-77409669D01*
X40491055Y-77443027D01*
X40478607Y-77449507D01*
X40474474Y-77452610D01*
X40474471Y-77452612D01*
X40354456Y-77542722D01*
X40299965Y-77583635D01*
X40296393Y-77587373D01*
X40173397Y-77716081D01*
X40145629Y-77745138D01*
X40019743Y-77929680D01*
X39925688Y-78132305D01*
X39865989Y-78347570D01*
X39842251Y-78569695D01*
X30353000Y-78569695D01*
X30353000Y-73257183D01*
X39869389Y-73257183D01*
X39870912Y-73265607D01*
X39883292Y-73269000D01*
X40932885Y-73269000D01*
X40948124Y-73264525D01*
X40949329Y-73263135D01*
X40951000Y-73255452D01*
X40951000Y-73250885D01*
X41459000Y-73250885D01*
X41463475Y-73266124D01*
X41464865Y-73267329D01*
X41472548Y-73269000D01*
X42523344Y-73269000D01*
X42536875Y-73265027D01*
X42538180Y-73255947D01*
X42496214Y-73088875D01*
X42492894Y-73079124D01*
X42407972Y-72883814D01*
X42403105Y-72874739D01*
X42287426Y-72695926D01*
X42281136Y-72687757D01*
X42137806Y-72530240D01*
X42130273Y-72523215D01*
X41963139Y-72391222D01*
X41954552Y-72385517D01*
X41768117Y-72282599D01*
X41758705Y-72278369D01*
X41557959Y-72207280D01*
X41547988Y-72204646D01*
X41476837Y-72191972D01*
X41463540Y-72193432D01*
X41459000Y-72207989D01*
X41459000Y-73250885D01*
X40951000Y-73250885D01*
X40951000Y-72206102D01*
X40947082Y-72192758D01*
X40932806Y-72190771D01*
X40894324Y-72196660D01*
X40884288Y-72199051D01*
X40681868Y-72265212D01*
X40672359Y-72269209D01*
X40483463Y-72367542D01*
X40474738Y-72373036D01*
X40304433Y-72500905D01*
X40296726Y-72507748D01*
X40149590Y-72661717D01*
X40143104Y-72669727D01*
X40023098Y-72845649D01*
X40018000Y-72854623D01*
X39928338Y-73047783D01*
X39924775Y-73057470D01*
X39869389Y-73257183D01*
X30353000Y-73257183D01*
X30353000Y-71841134D01*
X44665500Y-71841134D01*
X44672255Y-71903316D01*
X44723385Y-72039705D01*
X44810739Y-72156261D01*
X44927295Y-72243615D01*
X45063684Y-72294745D01*
X45125866Y-72301500D01*
X46822134Y-72301500D01*
X46884316Y-72294745D01*
X47020705Y-72243615D01*
X47137261Y-72156261D01*
X47224615Y-72039705D01*
X47275745Y-71903316D01*
X47282500Y-71841134D01*
X47282500Y-70739000D01*
X49613502Y-70739000D01*
X49633457Y-70967087D01*
X49634881Y-70972400D01*
X49634881Y-70972402D01*
X49659887Y-71065723D01*
X49692716Y-71188243D01*
X49695039Y-71193224D01*
X49695039Y-71193225D01*
X49787151Y-71390762D01*
X49787154Y-71390767D01*
X49789477Y-71395749D01*
X49816798Y-71434767D01*
X49885598Y-71533023D01*
X49920802Y-71583300D01*
X50082700Y-71745198D01*
X50087208Y-71748355D01*
X50087211Y-71748357D01*
X50165389Y-71803098D01*
X50270251Y-71876523D01*
X50275233Y-71878846D01*
X50275238Y-71878849D01*
X50472775Y-71970961D01*
X50477757Y-71973284D01*
X50483065Y-71974706D01*
X50483067Y-71974707D01*
X50693598Y-72031119D01*
X50693600Y-72031119D01*
X50698913Y-72032543D01*
X50927000Y-72052498D01*
X51155087Y-72032543D01*
X51160400Y-72031119D01*
X51160402Y-72031119D01*
X51370933Y-71974707D01*
X51370935Y-71974706D01*
X51376243Y-71973284D01*
X51381225Y-71970961D01*
X51578762Y-71878849D01*
X51578767Y-71878846D01*
X51583749Y-71876523D01*
X51688611Y-71803098D01*
X51766789Y-71748357D01*
X51766792Y-71748355D01*
X51771300Y-71745198D01*
X51933198Y-71583300D01*
X51968403Y-71533023D01*
X52037202Y-71434767D01*
X52064523Y-71395749D01*
X52066846Y-71390767D01*
X52066849Y-71390762D01*
X52158961Y-71193225D01*
X52158961Y-71193224D01*
X52161284Y-71188243D01*
X52194114Y-71065723D01*
X52219119Y-70972402D01*
X52219119Y-70972400D01*
X52220543Y-70967087D01*
X52240498Y-70739000D01*
X52220543Y-70510913D01*
X52219119Y-70505598D01*
X52162707Y-70295067D01*
X52162706Y-70295065D01*
X52161284Y-70289757D01*
X52074944Y-70104598D01*
X52066849Y-70087238D01*
X52066846Y-70087233D01*
X52064523Y-70082251D01*
X51933198Y-69894700D01*
X51771300Y-69732802D01*
X51766792Y-69729645D01*
X51766789Y-69729643D01*
X51681134Y-69669667D01*
X51583749Y-69601477D01*
X51578767Y-69599154D01*
X51578762Y-69599151D01*
X51381225Y-69507039D01*
X51381224Y-69507039D01*
X51376243Y-69504716D01*
X51370935Y-69503294D01*
X51370933Y-69503293D01*
X51160402Y-69446881D01*
X51160400Y-69446881D01*
X51155087Y-69445457D01*
X50927000Y-69425502D01*
X50698913Y-69445457D01*
X50693600Y-69446881D01*
X50693598Y-69446881D01*
X50483067Y-69503293D01*
X50483065Y-69503294D01*
X50477757Y-69504716D01*
X50472776Y-69507039D01*
X50472775Y-69507039D01*
X50275238Y-69599151D01*
X50275233Y-69599154D01*
X50270251Y-69601477D01*
X50172866Y-69669667D01*
X50087211Y-69729643D01*
X50087208Y-69729645D01*
X50082700Y-69732802D01*
X49920802Y-69894700D01*
X49789477Y-70082251D01*
X49787154Y-70087233D01*
X49787151Y-70087238D01*
X49779056Y-70104598D01*
X49692716Y-70289757D01*
X49691294Y-70295065D01*
X49691293Y-70295067D01*
X49634881Y-70505598D01*
X49633457Y-70510913D01*
X49613502Y-70739000D01*
X47282500Y-70739000D01*
X47282500Y-70144866D01*
X47275745Y-70082684D01*
X47224615Y-69946295D01*
X47137261Y-69829739D01*
X47020705Y-69742385D01*
X46884316Y-69691255D01*
X46822134Y-69684500D01*
X45125866Y-69684500D01*
X45063684Y-69691255D01*
X44927295Y-69742385D01*
X44810739Y-69829739D01*
X44723385Y-69946295D01*
X44672255Y-70082684D01*
X44665500Y-70144866D01*
X44665500Y-71841134D01*
X30353000Y-71841134D01*
X30353000Y-67691000D01*
X49359502Y-67691000D01*
X49379457Y-67919087D01*
X49380881Y-67924400D01*
X49380881Y-67924402D01*
X49432086Y-68115498D01*
X49438716Y-68140243D01*
X49441039Y-68145224D01*
X49441039Y-68145225D01*
X49533151Y-68342762D01*
X49533154Y-68342767D01*
X49535477Y-68347749D01*
X49666802Y-68535300D01*
X49828700Y-68697198D01*
X49833208Y-68700355D01*
X49833211Y-68700357D01*
X49898815Y-68746293D01*
X50016251Y-68828523D01*
X50021233Y-68830846D01*
X50021238Y-68830849D01*
X50218775Y-68922961D01*
X50223757Y-68925284D01*
X50229065Y-68926706D01*
X50229067Y-68926707D01*
X50439598Y-68983119D01*
X50439600Y-68983119D01*
X50444913Y-68984543D01*
X50673000Y-69004498D01*
X50901087Y-68984543D01*
X50906400Y-68983119D01*
X50906402Y-68983119D01*
X51116933Y-68926707D01*
X51116935Y-68926706D01*
X51122243Y-68925284D01*
X51127225Y-68922961D01*
X51324762Y-68830849D01*
X51324767Y-68830846D01*
X51329749Y-68828523D01*
X51447185Y-68746293D01*
X51512789Y-68700357D01*
X51512792Y-68700355D01*
X51517300Y-68697198D01*
X51679198Y-68535300D01*
X51810523Y-68347749D01*
X51812846Y-68342767D01*
X51812849Y-68342762D01*
X51904961Y-68145225D01*
X51904961Y-68145224D01*
X51907284Y-68140243D01*
X51913915Y-68115498D01*
X51965119Y-67924402D01*
X51965119Y-67924400D01*
X51966543Y-67919087D01*
X51986498Y-67691000D01*
X51966543Y-67462913D01*
X51955646Y-67422245D01*
X51908707Y-67247067D01*
X51908706Y-67247065D01*
X51907284Y-67241757D01*
X51904961Y-67236775D01*
X51812849Y-67039238D01*
X51812846Y-67039233D01*
X51810523Y-67034251D01*
X51684601Y-66854416D01*
X51682357Y-66851211D01*
X51682355Y-66851208D01*
X51679198Y-66846700D01*
X51517300Y-66684802D01*
X51512792Y-66681645D01*
X51512789Y-66681643D01*
X51434611Y-66626902D01*
X51329749Y-66553477D01*
X51324767Y-66551154D01*
X51324762Y-66551151D01*
X51127225Y-66459039D01*
X51127224Y-66459039D01*
X51122243Y-66456716D01*
X51116935Y-66455294D01*
X51116933Y-66455293D01*
X50906402Y-66398881D01*
X50906400Y-66398881D01*
X50901087Y-66397457D01*
X50673000Y-66377502D01*
X50444913Y-66397457D01*
X50439600Y-66398881D01*
X50439598Y-66398881D01*
X50229067Y-66455293D01*
X50229065Y-66455294D01*
X50223757Y-66456716D01*
X50218776Y-66459039D01*
X50218775Y-66459039D01*
X50021238Y-66551151D01*
X50021233Y-66551154D01*
X50016251Y-66553477D01*
X49911389Y-66626902D01*
X49833211Y-66681643D01*
X49833208Y-66681645D01*
X49828700Y-66684802D01*
X49666802Y-66846700D01*
X49663645Y-66851208D01*
X49663643Y-66851211D01*
X49661399Y-66854416D01*
X49535477Y-67034251D01*
X49533154Y-67039233D01*
X49533151Y-67039238D01*
X49441039Y-67236775D01*
X49438716Y-67241757D01*
X49437294Y-67247065D01*
X49437293Y-67247067D01*
X49390354Y-67422245D01*
X49379457Y-67462913D01*
X49359502Y-67691000D01*
X30353000Y-67691000D01*
X30353000Y-66646950D01*
X39918493Y-66646950D01*
X39927789Y-66658965D01*
X39978994Y-66694819D01*
X39988489Y-66700302D01*
X40185947Y-66792378D01*
X40196239Y-66796124D01*
X40406688Y-66852513D01*
X40417481Y-66854416D01*
X40634525Y-66873405D01*
X40645475Y-66873405D01*
X40862519Y-66854416D01*
X40873312Y-66852513D01*
X41083761Y-66796124D01*
X41094053Y-66792378D01*
X41291511Y-66700302D01*
X41301006Y-66694819D01*
X41353048Y-66658379D01*
X41361424Y-66647900D01*
X41354356Y-66634454D01*
X40652812Y-65932910D01*
X40638868Y-65925296D01*
X40637035Y-65925427D01*
X40630420Y-65929678D01*
X39924923Y-66635175D01*
X39918493Y-66646950D01*
X30353000Y-66646950D01*
X30353000Y-65237134D01*
X32026388Y-65237134D01*
X32033143Y-65299316D01*
X32084273Y-65435705D01*
X32171627Y-65552261D01*
X32288183Y-65639615D01*
X32424572Y-65690745D01*
X32486754Y-65697500D01*
X34183022Y-65697500D01*
X34245204Y-65690745D01*
X34381593Y-65639615D01*
X34498149Y-65552261D01*
X34503530Y-65545081D01*
X34509880Y-65538731D01*
X34512120Y-65540971D01*
X34556453Y-65507829D01*
X34627272Y-65502810D01*
X34668678Y-65520949D01*
X34668869Y-65520617D01*
X34671852Y-65522339D01*
X34672685Y-65522704D01*
X34678139Y-65526523D01*
X34683121Y-65528846D01*
X34683126Y-65528849D01*
X34880663Y-65620961D01*
X34885645Y-65623284D01*
X34890953Y-65624706D01*
X34890955Y-65624707D01*
X35101486Y-65681119D01*
X35101488Y-65681119D01*
X35106801Y-65682543D01*
X35334888Y-65702498D01*
X35562975Y-65682543D01*
X35568288Y-65681119D01*
X35568290Y-65681119D01*
X35778821Y-65624707D01*
X35778823Y-65624706D01*
X35784131Y-65623284D01*
X35789113Y-65620961D01*
X35906200Y-65566363D01*
X39327483Y-65566363D01*
X39346472Y-65783407D01*
X39348375Y-65794200D01*
X39404764Y-66004649D01*
X39408510Y-66014941D01*
X39500586Y-66212399D01*
X39506069Y-66221894D01*
X39542509Y-66273936D01*
X39552988Y-66282312D01*
X39566434Y-66275244D01*
X40550905Y-65290773D01*
X40613217Y-65256747D01*
X40684032Y-65261812D01*
X40729095Y-65290773D01*
X41714287Y-66275965D01*
X41726062Y-66282395D01*
X41738077Y-66273099D01*
X41773931Y-66221894D01*
X41779414Y-66212399D01*
X41871490Y-66014941D01*
X41875236Y-66004649D01*
X41931625Y-65794200D01*
X41933528Y-65783407D01*
X41952517Y-65566363D01*
X41952517Y-65555413D01*
X41933528Y-65338369D01*
X41931625Y-65327576D01*
X41875236Y-65117127D01*
X41871490Y-65106835D01*
X41779414Y-64909377D01*
X41773929Y-64899877D01*
X41773299Y-64898978D01*
X41773144Y-64898518D01*
X41771182Y-64895120D01*
X41771865Y-64894726D01*
X41750612Y-64831704D01*
X41767898Y-64762844D01*
X41790934Y-64737085D01*
X41789730Y-64735881D01*
X41796081Y-64729530D01*
X41803261Y-64724149D01*
X41808642Y-64716969D01*
X41808645Y-64716966D01*
X41856292Y-64653390D01*
X41890615Y-64607593D01*
X41941745Y-64471204D01*
X41948500Y-64409022D01*
X41948500Y-63373000D01*
X44660502Y-63373000D01*
X44680457Y-63601087D01*
X44681881Y-63606400D01*
X44681881Y-63606402D01*
X44715603Y-63732251D01*
X44739716Y-63822243D01*
X44742039Y-63827224D01*
X44742039Y-63827225D01*
X44834151Y-64024762D01*
X44834154Y-64024767D01*
X44836477Y-64029749D01*
X44967802Y-64217300D01*
X45129700Y-64379198D01*
X45134208Y-64382355D01*
X45134211Y-64382357D01*
X45167413Y-64405605D01*
X45317251Y-64510523D01*
X45322233Y-64512846D01*
X45322238Y-64512849D01*
X45518765Y-64604490D01*
X45524757Y-64607284D01*
X45530065Y-64608706D01*
X45530067Y-64608707D01*
X45740598Y-64665119D01*
X45740600Y-64665119D01*
X45745913Y-64666543D01*
X45974000Y-64686498D01*
X46202087Y-64666543D01*
X46207400Y-64665119D01*
X46207402Y-64665119D01*
X46417933Y-64608707D01*
X46417935Y-64608706D01*
X46423243Y-64607284D01*
X46429235Y-64604490D01*
X46625762Y-64512849D01*
X46625767Y-64512846D01*
X46630749Y-64510523D01*
X46780587Y-64405605D01*
X46813789Y-64382357D01*
X46813792Y-64382355D01*
X46818300Y-64379198D01*
X46980198Y-64217300D01*
X47111523Y-64029749D01*
X47113846Y-64024767D01*
X47113849Y-64024762D01*
X47205961Y-63827225D01*
X47205961Y-63827224D01*
X47208284Y-63822243D01*
X47232398Y-63732251D01*
X47266119Y-63606402D01*
X47266119Y-63606400D01*
X47267543Y-63601087D01*
X47287498Y-63373000D01*
X49359502Y-63373000D01*
X49379457Y-63601087D01*
X49380881Y-63606400D01*
X49380881Y-63606402D01*
X49414603Y-63732251D01*
X49438716Y-63822243D01*
X49441039Y-63827224D01*
X49441039Y-63827225D01*
X49533151Y-64024762D01*
X49533154Y-64024767D01*
X49535477Y-64029749D01*
X49666802Y-64217300D01*
X49828700Y-64379198D01*
X49833208Y-64382355D01*
X49833211Y-64382357D01*
X49866413Y-64405605D01*
X50016251Y-64510523D01*
X50021233Y-64512846D01*
X50021238Y-64512849D01*
X50217765Y-64604490D01*
X50223757Y-64607284D01*
X50229065Y-64608706D01*
X50229067Y-64608707D01*
X50439598Y-64665119D01*
X50439600Y-64665119D01*
X50444913Y-64666543D01*
X50673000Y-64686498D01*
X50901087Y-64666543D01*
X50906400Y-64665119D01*
X50906402Y-64665119D01*
X51116933Y-64608707D01*
X51116935Y-64608706D01*
X51122243Y-64607284D01*
X51128235Y-64604490D01*
X51324762Y-64512849D01*
X51324767Y-64512846D01*
X51329749Y-64510523D01*
X51479587Y-64405605D01*
X51512789Y-64382357D01*
X51512792Y-64382355D01*
X51517300Y-64379198D01*
X51679198Y-64217300D01*
X51810523Y-64029749D01*
X51812846Y-64024767D01*
X51812849Y-64024762D01*
X51904961Y-63827225D01*
X51904961Y-63827224D01*
X51907284Y-63822243D01*
X51931398Y-63732251D01*
X51956245Y-63639522D01*
X59550273Y-63639522D01*
X59597764Y-63816761D01*
X59601510Y-63827053D01*
X59693586Y-64024511D01*
X59699069Y-64034007D01*
X59824028Y-64212467D01*
X59831084Y-64220875D01*
X59985125Y-64374916D01*
X59993533Y-64381972D01*
X60171993Y-64506931D01*
X60181489Y-64512414D01*
X60378947Y-64604490D01*
X60389239Y-64608236D01*
X60561503Y-64654394D01*
X60575599Y-64654058D01*
X60579000Y-64646116D01*
X60579000Y-64640967D01*
X61087000Y-64640967D01*
X61090973Y-64654498D01*
X61099522Y-64655727D01*
X61276761Y-64608236D01*
X61287053Y-64604490D01*
X61484511Y-64512414D01*
X61494007Y-64506931D01*
X61672467Y-64381972D01*
X61680875Y-64374916D01*
X61834916Y-64220875D01*
X61841972Y-64212467D01*
X61966931Y-64034007D01*
X61972414Y-64024511D01*
X62064490Y-63827053D01*
X62068236Y-63816761D01*
X62114394Y-63644497D01*
X62114275Y-63639522D01*
X62852273Y-63639522D01*
X62899764Y-63816761D01*
X62903510Y-63827053D01*
X62995586Y-64024511D01*
X63001069Y-64034007D01*
X63126028Y-64212467D01*
X63133084Y-64220875D01*
X63287125Y-64374916D01*
X63295533Y-64381972D01*
X63473993Y-64506931D01*
X63483489Y-64512414D01*
X63680947Y-64604490D01*
X63691239Y-64608236D01*
X63863503Y-64654394D01*
X63877599Y-64654058D01*
X63881000Y-64646116D01*
X63881000Y-64640967D01*
X64389000Y-64640967D01*
X64392973Y-64654498D01*
X64401522Y-64655727D01*
X64578761Y-64608236D01*
X64589053Y-64604490D01*
X64786511Y-64512414D01*
X64796007Y-64506931D01*
X64974467Y-64381972D01*
X64982875Y-64374916D01*
X65136916Y-64220875D01*
X65143972Y-64212467D01*
X65268931Y-64034007D01*
X65274414Y-64024511D01*
X65366490Y-63827053D01*
X65370236Y-63816761D01*
X65416394Y-63644497D01*
X65416058Y-63630401D01*
X65408116Y-63627000D01*
X64407115Y-63627000D01*
X64391876Y-63631475D01*
X64390671Y-63632865D01*
X64389000Y-63640548D01*
X64389000Y-64640967D01*
X63881000Y-64640967D01*
X63881000Y-63645115D01*
X63876525Y-63629876D01*
X63875135Y-63628671D01*
X63867452Y-63627000D01*
X62867033Y-63627000D01*
X62853502Y-63630973D01*
X62852273Y-63639522D01*
X62114275Y-63639522D01*
X62114058Y-63630401D01*
X62106116Y-63627000D01*
X61105115Y-63627000D01*
X61089876Y-63631475D01*
X61088671Y-63632865D01*
X61087000Y-63640548D01*
X61087000Y-64640967D01*
X60579000Y-64640967D01*
X60579000Y-63645115D01*
X60574525Y-63629876D01*
X60573135Y-63628671D01*
X60565452Y-63627000D01*
X59565033Y-63627000D01*
X59551502Y-63630973D01*
X59550273Y-63639522D01*
X51956245Y-63639522D01*
X51965119Y-63606402D01*
X51965119Y-63606400D01*
X51966543Y-63601087D01*
X51986498Y-63373000D01*
X72981502Y-63373000D01*
X73001457Y-63601087D01*
X73002881Y-63606400D01*
X73002881Y-63606402D01*
X73036603Y-63732251D01*
X73060716Y-63822243D01*
X73063039Y-63827224D01*
X73063039Y-63827225D01*
X73155151Y-64024762D01*
X73155154Y-64024767D01*
X73157477Y-64029749D01*
X73288802Y-64217300D01*
X73450700Y-64379198D01*
X73455208Y-64382355D01*
X73455211Y-64382357D01*
X73488413Y-64405605D01*
X73638251Y-64510523D01*
X73643233Y-64512846D01*
X73643238Y-64512849D01*
X73839765Y-64604490D01*
X73845757Y-64607284D01*
X73851065Y-64608706D01*
X73851067Y-64608707D01*
X74061598Y-64665119D01*
X74061600Y-64665119D01*
X74066913Y-64666543D01*
X74295000Y-64686498D01*
X74523087Y-64666543D01*
X74528400Y-64665119D01*
X74528402Y-64665119D01*
X74738933Y-64608707D01*
X74738935Y-64608706D01*
X74744243Y-64607284D01*
X74750235Y-64604490D01*
X74946762Y-64512849D01*
X74946767Y-64512846D01*
X74951749Y-64510523D01*
X75101587Y-64405605D01*
X75134789Y-64382357D01*
X75134792Y-64382355D01*
X75139300Y-64379198D01*
X75301198Y-64217300D01*
X75432523Y-64029749D01*
X75434846Y-64024767D01*
X75434849Y-64024762D01*
X75526961Y-63827225D01*
X75526961Y-63827224D01*
X75529284Y-63822243D01*
X75553398Y-63732251D01*
X75587119Y-63606402D01*
X75587119Y-63606400D01*
X75588543Y-63601087D01*
X75608498Y-63373000D01*
X75606301Y-63347885D01*
X77897000Y-63347885D01*
X77901475Y-63363124D01*
X77902865Y-63364329D01*
X77910548Y-63366000D01*
X78982885Y-63366000D01*
X78998124Y-63361525D01*
X78999329Y-63360135D01*
X79001000Y-63352452D01*
X79001000Y-63347885D01*
X79509000Y-63347885D01*
X79513475Y-63363124D01*
X79514865Y-63364329D01*
X79522548Y-63366000D01*
X80594884Y-63366000D01*
X80610123Y-63361525D01*
X80611328Y-63360135D01*
X80612999Y-63352452D01*
X80612999Y-62725331D01*
X80612629Y-62718510D01*
X80607105Y-62667648D01*
X80603479Y-62652396D01*
X80558324Y-62531946D01*
X80549786Y-62516351D01*
X80473285Y-62414276D01*
X80460724Y-62401715D01*
X80358649Y-62325214D01*
X80343054Y-62316676D01*
X80222606Y-62271522D01*
X80207351Y-62267895D01*
X80156486Y-62262369D01*
X80149672Y-62262000D01*
X79527115Y-62262000D01*
X79511876Y-62266475D01*
X79510671Y-62267865D01*
X79509000Y-62275548D01*
X79509000Y-63347885D01*
X79001000Y-63347885D01*
X79001000Y-62280116D01*
X78996525Y-62264877D01*
X78995135Y-62263672D01*
X78987452Y-62262001D01*
X78360331Y-62262001D01*
X78353510Y-62262371D01*
X78302648Y-62267895D01*
X78287396Y-62271521D01*
X78166946Y-62316676D01*
X78151351Y-62325214D01*
X78049276Y-62401715D01*
X78036715Y-62414276D01*
X77960214Y-62516351D01*
X77951676Y-62531946D01*
X77906522Y-62652394D01*
X77902895Y-62667649D01*
X77897369Y-62718514D01*
X77897000Y-62725328D01*
X77897000Y-63347885D01*
X75606301Y-63347885D01*
X75588543Y-63144913D01*
X75578244Y-63106478D01*
X75530707Y-62929067D01*
X75530706Y-62929065D01*
X75529284Y-62923757D01*
X75526961Y-62918775D01*
X75434849Y-62721238D01*
X75434846Y-62721233D01*
X75432523Y-62716251D01*
X75301198Y-62528700D01*
X75139300Y-62366802D01*
X75134792Y-62363645D01*
X75134789Y-62363643D01*
X75003225Y-62271521D01*
X74951749Y-62235477D01*
X74946767Y-62233154D01*
X74946762Y-62233151D01*
X74749225Y-62141039D01*
X74749224Y-62141039D01*
X74744243Y-62138716D01*
X74738935Y-62137294D01*
X74738933Y-62137293D01*
X74528402Y-62080881D01*
X74528400Y-62080881D01*
X74523087Y-62079457D01*
X74295000Y-62059502D01*
X74066913Y-62079457D01*
X74061600Y-62080881D01*
X74061598Y-62080881D01*
X73851067Y-62137293D01*
X73851065Y-62137294D01*
X73845757Y-62138716D01*
X73840776Y-62141039D01*
X73840775Y-62141039D01*
X73643238Y-62233151D01*
X73643233Y-62233154D01*
X73638251Y-62235477D01*
X73586775Y-62271521D01*
X73455211Y-62363643D01*
X73455208Y-62363645D01*
X73450700Y-62366802D01*
X73288802Y-62528700D01*
X73157477Y-62716251D01*
X73155154Y-62721233D01*
X73155151Y-62721238D01*
X73063039Y-62918775D01*
X73060716Y-62923757D01*
X73059294Y-62929065D01*
X73059293Y-62929067D01*
X73011756Y-63106478D01*
X73001457Y-63144913D01*
X72981502Y-63373000D01*
X51986498Y-63373000D01*
X51966543Y-63144913D01*
X51956244Y-63106478D01*
X51954911Y-63101503D01*
X59551606Y-63101503D01*
X59551942Y-63115599D01*
X59559884Y-63119000D01*
X60560885Y-63119000D01*
X60576124Y-63114525D01*
X60577329Y-63113135D01*
X60579000Y-63105452D01*
X60579000Y-63100885D01*
X61087000Y-63100885D01*
X61091475Y-63116124D01*
X61092865Y-63117329D01*
X61100548Y-63119000D01*
X62100967Y-63119000D01*
X62114498Y-63115027D01*
X62115727Y-63106478D01*
X62114394Y-63101503D01*
X62853606Y-63101503D01*
X62853942Y-63115599D01*
X62861884Y-63119000D01*
X63862885Y-63119000D01*
X63878124Y-63114525D01*
X63879329Y-63113135D01*
X63881000Y-63105452D01*
X63881000Y-63100885D01*
X64389000Y-63100885D01*
X64393475Y-63116124D01*
X64394865Y-63117329D01*
X64402548Y-63119000D01*
X65402967Y-63119000D01*
X65416498Y-63115027D01*
X65417727Y-63106478D01*
X65370236Y-62929239D01*
X65366490Y-62918947D01*
X65274414Y-62721489D01*
X65268931Y-62711993D01*
X65143972Y-62533533D01*
X65136916Y-62525125D01*
X64982875Y-62371084D01*
X64974467Y-62364028D01*
X64796007Y-62239069D01*
X64786511Y-62233586D01*
X64589053Y-62141510D01*
X64578761Y-62137764D01*
X64406497Y-62091606D01*
X64392401Y-62091942D01*
X64389000Y-62099884D01*
X64389000Y-63100885D01*
X63881000Y-63100885D01*
X63881000Y-62105033D01*
X63877027Y-62091502D01*
X63868478Y-62090273D01*
X63691239Y-62137764D01*
X63680947Y-62141510D01*
X63483489Y-62233586D01*
X63473993Y-62239069D01*
X63295533Y-62364028D01*
X63287125Y-62371084D01*
X63133084Y-62525125D01*
X63126028Y-62533533D01*
X63001069Y-62711993D01*
X62995586Y-62721489D01*
X62903510Y-62918947D01*
X62899764Y-62929239D01*
X62853606Y-63101503D01*
X62114394Y-63101503D01*
X62068236Y-62929239D01*
X62064490Y-62918947D01*
X61972414Y-62721489D01*
X61966931Y-62711993D01*
X61841972Y-62533533D01*
X61834916Y-62525125D01*
X61680875Y-62371084D01*
X61672467Y-62364028D01*
X61494007Y-62239069D01*
X61484511Y-62233586D01*
X61287053Y-62141510D01*
X61276761Y-62137764D01*
X61104497Y-62091606D01*
X61090401Y-62091942D01*
X61087000Y-62099884D01*
X61087000Y-63100885D01*
X60579000Y-63100885D01*
X60579000Y-62105033D01*
X60575027Y-62091502D01*
X60566478Y-62090273D01*
X60389239Y-62137764D01*
X60378947Y-62141510D01*
X60181489Y-62233586D01*
X60171993Y-62239069D01*
X59993533Y-62364028D01*
X59985125Y-62371084D01*
X59831084Y-62525125D01*
X59824028Y-62533533D01*
X59699069Y-62711993D01*
X59693586Y-62721489D01*
X59601510Y-62918947D01*
X59597764Y-62929239D01*
X59551606Y-63101503D01*
X51954911Y-63101503D01*
X51908707Y-62929067D01*
X51908706Y-62929065D01*
X51907284Y-62923757D01*
X51904961Y-62918775D01*
X51812849Y-62721238D01*
X51812846Y-62721233D01*
X51810523Y-62716251D01*
X51679198Y-62528700D01*
X51517300Y-62366802D01*
X51512792Y-62363645D01*
X51512789Y-62363643D01*
X51381225Y-62271521D01*
X51329749Y-62235477D01*
X51324767Y-62233154D01*
X51324762Y-62233151D01*
X51127225Y-62141039D01*
X51127224Y-62141039D01*
X51122243Y-62138716D01*
X51116935Y-62137294D01*
X51116933Y-62137293D01*
X50906402Y-62080881D01*
X50906400Y-62080881D01*
X50901087Y-62079457D01*
X50673000Y-62059502D01*
X50444913Y-62079457D01*
X50439600Y-62080881D01*
X50439598Y-62080881D01*
X50229067Y-62137293D01*
X50229065Y-62137294D01*
X50223757Y-62138716D01*
X50218776Y-62141039D01*
X50218775Y-62141039D01*
X50021238Y-62233151D01*
X50021233Y-62233154D01*
X50016251Y-62235477D01*
X49964775Y-62271521D01*
X49833211Y-62363643D01*
X49833208Y-62363645D01*
X49828700Y-62366802D01*
X49666802Y-62528700D01*
X49535477Y-62716251D01*
X49533154Y-62721233D01*
X49533151Y-62721238D01*
X49441039Y-62918775D01*
X49438716Y-62923757D01*
X49437294Y-62929065D01*
X49437293Y-62929067D01*
X49389756Y-63106478D01*
X49379457Y-63144913D01*
X49359502Y-63373000D01*
X47287498Y-63373000D01*
X47267543Y-63144913D01*
X47257244Y-63106478D01*
X47209707Y-62929067D01*
X47209706Y-62929065D01*
X47208284Y-62923757D01*
X47205961Y-62918775D01*
X47113849Y-62721238D01*
X47113846Y-62721233D01*
X47111523Y-62716251D01*
X46980198Y-62528700D01*
X46818300Y-62366802D01*
X46813792Y-62363645D01*
X46813789Y-62363643D01*
X46682225Y-62271521D01*
X46630749Y-62235477D01*
X46625767Y-62233154D01*
X46625762Y-62233151D01*
X46428225Y-62141039D01*
X46428224Y-62141039D01*
X46423243Y-62138716D01*
X46417935Y-62137294D01*
X46417933Y-62137293D01*
X46207402Y-62080881D01*
X46207400Y-62080881D01*
X46202087Y-62079457D01*
X45974000Y-62059502D01*
X45745913Y-62079457D01*
X45740600Y-62080881D01*
X45740598Y-62080881D01*
X45530067Y-62137293D01*
X45530065Y-62137294D01*
X45524757Y-62138716D01*
X45519776Y-62141039D01*
X45519775Y-62141039D01*
X45322238Y-62233151D01*
X45322233Y-62233154D01*
X45317251Y-62235477D01*
X45265775Y-62271521D01*
X45134211Y-62363643D01*
X45134208Y-62363645D01*
X45129700Y-62366802D01*
X44967802Y-62528700D01*
X44836477Y-62716251D01*
X44834154Y-62721233D01*
X44834151Y-62721238D01*
X44742039Y-62918775D01*
X44739716Y-62923757D01*
X44738294Y-62929065D01*
X44738293Y-62929067D01*
X44690756Y-63106478D01*
X44680457Y-63144913D01*
X44660502Y-63373000D01*
X41948500Y-63373000D01*
X41948500Y-62712754D01*
X41941745Y-62650572D01*
X41890615Y-62514183D01*
X41803261Y-62397627D01*
X41686705Y-62310273D01*
X41550316Y-62259143D01*
X41488134Y-62252388D01*
X39791866Y-62252388D01*
X39729684Y-62259143D01*
X39593295Y-62310273D01*
X39476739Y-62397627D01*
X39389385Y-62514183D01*
X39338255Y-62650572D01*
X39331500Y-62712754D01*
X39331500Y-64409022D01*
X39338255Y-64471204D01*
X39389385Y-64607593D01*
X39423708Y-64653390D01*
X39471355Y-64716966D01*
X39471358Y-64716969D01*
X39476739Y-64724149D01*
X39483919Y-64729530D01*
X39490270Y-64735881D01*
X39488128Y-64738023D01*
X39521564Y-64782734D01*
X39526594Y-64853552D01*
X39508477Y-64894923D01*
X39508818Y-64895120D01*
X39507048Y-64898186D01*
X39506701Y-64898978D01*
X39506071Y-64899877D01*
X39500586Y-64909377D01*
X39408510Y-65106835D01*
X39404764Y-65117127D01*
X39348375Y-65327576D01*
X39346472Y-65338369D01*
X39327483Y-65555413D01*
X39327483Y-65566363D01*
X35906200Y-65566363D01*
X35986650Y-65528849D01*
X35986655Y-65528846D01*
X35991637Y-65526523D01*
X36133346Y-65427297D01*
X36174677Y-65398357D01*
X36174680Y-65398355D01*
X36179188Y-65395198D01*
X36341086Y-65233300D01*
X36388149Y-65166088D01*
X36469254Y-65050257D01*
X36472411Y-65045749D01*
X36474734Y-65040767D01*
X36474737Y-65040762D01*
X36566849Y-64843225D01*
X36566849Y-64843224D01*
X36569172Y-64838243D01*
X36572527Y-64825724D01*
X36627007Y-64622402D01*
X36627007Y-64622400D01*
X36628431Y-64617087D01*
X36648386Y-64389000D01*
X36628431Y-64160913D01*
X36627007Y-64155598D01*
X36570595Y-63945067D01*
X36570594Y-63945065D01*
X36569172Y-63939757D01*
X36566849Y-63934775D01*
X36474737Y-63737238D01*
X36474734Y-63737233D01*
X36472411Y-63732251D01*
X36341086Y-63544700D01*
X36179188Y-63382802D01*
X36174680Y-63379645D01*
X36174677Y-63379643D01*
X36096499Y-63324902D01*
X35991637Y-63251477D01*
X35986655Y-63249154D01*
X35986650Y-63249151D01*
X35789113Y-63157039D01*
X35789112Y-63157039D01*
X35784131Y-63154716D01*
X35778823Y-63153294D01*
X35778821Y-63153293D01*
X35568290Y-63096881D01*
X35568288Y-63096881D01*
X35562975Y-63095457D01*
X35334888Y-63075502D01*
X35106801Y-63095457D01*
X35101488Y-63096881D01*
X35101486Y-63096881D01*
X34890955Y-63153293D01*
X34890953Y-63153294D01*
X34885645Y-63154716D01*
X34880664Y-63157039D01*
X34880663Y-63157039D01*
X34683126Y-63249151D01*
X34683121Y-63249154D01*
X34678139Y-63251477D01*
X34672686Y-63255295D01*
X34672202Y-63255459D01*
X34668869Y-63257383D01*
X34668482Y-63256713D01*
X34605414Y-63277988D01*
X34536553Y-63260707D01*
X34511151Y-63237998D01*
X34509880Y-63239269D01*
X34503530Y-63232919D01*
X34498149Y-63225739D01*
X34381593Y-63138385D01*
X34245204Y-63087255D01*
X34183022Y-63080500D01*
X32486754Y-63080500D01*
X32424572Y-63087255D01*
X32288183Y-63138385D01*
X32171627Y-63225739D01*
X32084273Y-63342295D01*
X32033143Y-63478684D01*
X32026388Y-63540866D01*
X32026388Y-65237134D01*
X30353000Y-65237134D01*
X30353000Y-60959000D01*
X30373002Y-60890879D01*
X30426658Y-60844386D01*
X30479000Y-60833000D01*
X90298000Y-60833000D01*
X90366121Y-60853002D01*
G37*
G04 #@! TD.AperFunction*
M02*
