G04 #@! TF.GenerationSoftware,KiCad,Pcbnew,6.0.0-d3dd2cf0fa~116~ubuntu20.04.1*
G04 #@! TF.CreationDate,2021-12-31T11:53:35+00:00*
G04 #@! TF.ProjectId,videopac_composite,76696465-6f70-4616-935f-636f6d706f73,rev?*
G04 #@! TF.SameCoordinates,Original*
G04 #@! TF.FileFunction,Copper,L2,Bot*
G04 #@! TF.FilePolarity,Positive*
%FSLAX46Y46*%
G04 Gerber Fmt 4.6, Leading zero omitted, Abs format (unit mm)*
G04 Created by KiCad (PCBNEW 6.0.0-d3dd2cf0fa~116~ubuntu20.04.1) date 2021-12-31 11:53:35*
%MOMM*%
%LPD*%
G01*
G04 APERTURE LIST*
G04 #@! TA.AperFunction,ComponentPad*
%ADD10R,1.600000X1.600000*%
G04 #@! TD*
G04 #@! TA.AperFunction,ComponentPad*
%ADD11C,1.600000*%
G04 #@! TD*
G04 #@! TA.AperFunction,ComponentPad*
%ADD12O,1.600000X1.600000*%
G04 #@! TD*
G04 #@! TA.AperFunction,ComponentPad*
%ADD13R,1.500000X1.050000*%
G04 #@! TD*
G04 #@! TA.AperFunction,ComponentPad*
%ADD14O,1.500000X1.050000*%
G04 #@! TD*
G04 #@! TA.AperFunction,ComponentPad*
%ADD15R,1.700000X1.700000*%
G04 #@! TD*
G04 #@! TA.AperFunction,ComponentPad*
%ADD16O,1.700000X1.700000*%
G04 #@! TD*
G04 #@! TA.AperFunction,Conductor*
%ADD17C,0.500000*%
G04 #@! TD*
G04 APERTURE END LIST*
D10*
X33334888Y-64389000D03*
D11*
X35334888Y-64389000D03*
X64262000Y-80645000D03*
D12*
X74422000Y-80645000D03*
D13*
X67945000Y-70231000D03*
D14*
X67945000Y-68961000D03*
X67945000Y-67691000D03*
D11*
X60325000Y-70739000D03*
D12*
X60325000Y-80899000D03*
D11*
X74295000Y-66802000D03*
D12*
X74295000Y-76962000D03*
D13*
X45868000Y-75692000D03*
D14*
X45868000Y-76962000D03*
X45868000Y-78232000D03*
D11*
X50927000Y-80899000D03*
D12*
X50927000Y-70739000D03*
D10*
X40640000Y-63560888D03*
D11*
X40640000Y-65560888D03*
X50673000Y-63373000D03*
D12*
X60833000Y-63373000D03*
D11*
X55626000Y-80899000D03*
D12*
X55626000Y-70739000D03*
D11*
X74295000Y-63373000D03*
D12*
X64135000Y-63373000D03*
D13*
X67924000Y-76835000D03*
D14*
X67924000Y-75565000D03*
X67924000Y-74295000D03*
D10*
X45974000Y-70993000D03*
D12*
X45974000Y-63373000D03*
D11*
X79375000Y-70739000D03*
D12*
X79375000Y-80899000D03*
D11*
X60833000Y-67691000D03*
D12*
X50673000Y-67691000D03*
D15*
X79445000Y-63368000D03*
D16*
X79445000Y-65908000D03*
D15*
X41205000Y-81143000D03*
D16*
X41205000Y-78603000D03*
X41205000Y-76063000D03*
X41205000Y-73523000D03*
D17*
X50673000Y-63373000D02*
X50673000Y-67691000D01*
X45974000Y-63373000D02*
X40827888Y-63373000D01*
X40827888Y-63373000D02*
X40640000Y-63560888D01*
X50673000Y-63373000D02*
X45974000Y-63373000D01*
X67924000Y-74295000D02*
X71374000Y-70845000D01*
X71374000Y-70845000D02*
X71374000Y-68326000D01*
X71374000Y-68326000D02*
X72898000Y-66802000D01*
X72898000Y-66802000D02*
X74295000Y-66802000D01*
X74295000Y-66802000D02*
X74295000Y-63373000D01*
X63246000Y-77089000D02*
X64770000Y-75565000D01*
X67590821Y-75565000D02*
X65532000Y-73506179D01*
X64770000Y-75565000D02*
X67924000Y-75565000D01*
X65532000Y-70739000D02*
X66040000Y-70231000D01*
X59182000Y-77089000D02*
X63246000Y-77089000D01*
X66040000Y-70231000D02*
X67945000Y-70231000D01*
X58420000Y-78105000D02*
X58420000Y-77851000D01*
X55626000Y-80899000D02*
X58420000Y-78105000D01*
X67924000Y-75565000D02*
X67590821Y-75565000D01*
X65532000Y-73506179D02*
X65532000Y-70739000D01*
X58420000Y-77851000D02*
X59182000Y-77089000D01*
X48133000Y-78232000D02*
X55626000Y-70739000D01*
X45868000Y-78232000D02*
X48133000Y-78232000D01*
X55626000Y-70739000D02*
X60325000Y-70739000D01*
X82677000Y-79629000D02*
X81407000Y-80899000D01*
X79445000Y-65908000D02*
X79445000Y-67507000D01*
X79445000Y-67507000D02*
X82677000Y-70739000D01*
X79375000Y-80899000D02*
X74676000Y-80899000D01*
X81407000Y-80899000D02*
X79375000Y-80899000D01*
X82677000Y-70739000D02*
X82677000Y-79629000D01*
X74676000Y-80899000D02*
X74422000Y-80645000D01*
X42856000Y-81143000D02*
X44644000Y-82931000D01*
X63246000Y-82931000D02*
X64262000Y-81915000D01*
X41205000Y-81143000D02*
X42856000Y-81143000D01*
X64262000Y-81915000D02*
X64262000Y-80645000D01*
X44644000Y-82931000D02*
X63246000Y-82931000D01*
X79445000Y-63368000D02*
X76327000Y-66486000D01*
X76327000Y-75438000D02*
X75819000Y-75438000D01*
X76327000Y-66486000D02*
X76327000Y-75438000D01*
X75819000Y-75438000D02*
X74295000Y-76962000D01*
X39271888Y-68326000D02*
X43307000Y-68326000D01*
X43307000Y-68326000D02*
X45974000Y-70993000D01*
X45868000Y-76962000D02*
X44963978Y-76962000D01*
X35334888Y-64389000D02*
X39271888Y-68326000D01*
X45974000Y-72390000D02*
X45974000Y-70993000D01*
X44323000Y-76321022D02*
X44323000Y-74041000D01*
X44323000Y-74041000D02*
X45974000Y-72390000D01*
X44963978Y-76962000D02*
X44323000Y-76321022D01*
X41148000Y-69215000D02*
X36576000Y-69215000D01*
X36576000Y-69215000D02*
X33334888Y-65973888D01*
X41205000Y-76063000D02*
X43688000Y-73580000D01*
X43688000Y-71755000D02*
X41148000Y-69215000D01*
X33334888Y-65973888D02*
X33334888Y-64389000D01*
X43688000Y-73580000D02*
X43688000Y-71755000D01*
X50927000Y-70739000D02*
X52705000Y-68961000D01*
X45868000Y-75692000D02*
X45974000Y-75692000D01*
X52705000Y-68961000D02*
X67945000Y-68961000D01*
X45974000Y-75692000D02*
X50927000Y-70739000D01*
M02*
